<svg xmlns="http://www.w3.org/2000/svg" width="340" height="26" viewBox="0 0 340 26">
    <path fill="#000" fill-rule="evenodd" d="M6.884 4.864h1.2V22H6.596V6.688c-1.104 1.2-2.472 2.04-4.104 2.52V7.72c.792-.24 1.584-.6 2.352-1.08a9.694 9.694 0 0 0 2.04-1.776zm16.208-.336c2.064 0 3.6.936 4.608 2.832.816 1.512 1.248 3.528 1.248 6.072 0 2.52-.432 4.536-1.248 6.072-1.008 1.872-2.544 2.832-4.608 2.832-2.064 0-3.6-.96-4.608-2.832-.84-1.536-1.248-3.552-1.248-6.072 0-2.544.408-4.56 1.248-6.072 1.008-1.896 2.544-2.832 4.608-2.832zm0 1.296c-1.656 0-2.856.84-3.576 2.544-.528 1.248-.792 2.952-.792 5.064s.264 3.792.792 5.064c.72 1.68 1.92 2.544 3.576 2.544 1.632 0 2.832-.864 3.576-2.544.528-1.272.816-2.952.816-5.064s-.288-3.816-.816-5.064c-.744-1.704-1.944-2.544-3.576-2.544zm19.4-1.296c2.064 0 3.6.936 4.608 2.832.816 1.512 1.248 3.528 1.248 6.072 0 2.52-.432 4.536-1.248 6.072-1.008 1.872-2.544 2.832-4.608 2.832-2.064 0-3.6-.96-4.608-2.832-.84-1.536-1.248-3.552-1.248-6.072 0-2.544.408-4.56 1.248-6.072 1.008-1.896 2.544-2.832 4.608-2.832zm0 1.296c-1.656 0-2.856.84-3.576 2.544-.528 1.248-.792 2.952-.792 5.064s.264 3.792.792 5.064c.72 1.68 1.92 2.544 3.576 2.544 1.632 0 2.832-.864 3.576-2.544.528-1.272.816-2.952.816-5.064s-.288-3.816-.816-5.064c-.744-1.704-1.944-2.544-3.576-2.544zm29.696 6.792c1.248 0 2.184.456 2.856 1.392.576.816.888 1.92.888 3.288 0 1.344-.312 2.448-.888 3.288-.672.936-1.608 1.416-2.856 1.416-1.248 0-2.208-.48-2.856-1.416-.6-.816-.888-1.92-.888-3.288 0-1.368.288-2.472.888-3.288.648-.936 1.608-1.392 2.856-1.392zm-1.872-8.088h1.224l-9.576 17.808H60.74l9.576-17.808zm-10.224.336c1.248 0 2.184.456 2.856 1.392.576.816.888 1.92.888 3.288 0 1.344-.312 2.448-.888 3.288-.672.936-1.608 1.416-2.856 1.416-1.248 0-2.184-.48-2.832-1.416-.6-.816-.888-1.92-.888-3.288 0-1.368.288-2.472.888-3.288.648-.936 1.584-1.392 2.832-1.392zm12.096 8.808c-.816 0-1.416.336-1.8 1.032-.384.624-.576 1.488-.576 2.592s.168 1.968.552 2.592c.384.696 1.008 1.056 1.824 1.056.792 0 1.392-.36 1.824-1.08.36-.624.552-1.464.552-2.568s-.192-1.968-.576-2.592c-.408-.696-1.008-1.032-1.8-1.032zM60.092 5.92c-.816 0-1.416.336-1.8 1.032-.384.624-.552 1.488-.552 2.592s.168 1.968.552 2.592c.384.696.984 1.056 1.8 1.056.816 0 1.416-.36 1.824-1.08.36-.624.552-1.464.552-2.568s-.192-1.968-.576-2.592c-.384-.696-.984-1.032-1.8-1.032zM94.66 17.776h-2.208v-4.92c-.48.456-.984.864-1.536 1.248l-.696-.912c1.656-1.056 2.784-2.352 3.36-3.888H85.9V5.608h5.472v-1.44H84.46V3.16h20.352v1.008h-6.936v1.44h5.496v3.696h-9.6l.936.12c-.168.432-.336.816-.528 1.2h10.152v.912H93.604c-.336.432-.696.864-1.104 1.272h10.656v4.968h-7.344c-.24.456-.528.864-.864 1.248h8.16v.768c-.864 1.032-2.016 1.896-3.408 2.568 1.656.384 3.576.696 5.76.888l-.528 1.056c-2.64-.288-4.872-.744-6.744-1.32-2.088.72-4.608 1.176-7.584 1.344l-.504-1.056c2.52-.096 4.68-.384 6.48-.864-1.368-.576-2.496-1.248-3.384-1.992-.72.384-1.512.72-2.4 1.008l-.528-.936c2.208-.624 3.672-1.512 4.392-2.712zm3.456 4.152c1.416-.552 2.568-1.224 3.432-2.04h-7.56c1.032.816 2.4 1.488 4.128 2.04zm-1.44-16.32v-1.44h-4.104v1.44h4.104zm5.472 2.832V6.52h-4.272v1.92h4.272zm-5.472 0V6.52h-4.104v1.92h4.104zm-5.304 0V6.52h-4.248v1.92h4.248zm10.584 8.52v-1.32h-8.352v1.32h8.352zm-8.352-2.088h8.352V13.6h-8.352v1.272zm-4.536-5.04l1.008.456c-1.152 1.728-2.952 3.264-5.4 4.56l-.36-1.152c2.208-1.152 3.792-2.424 4.752-3.864zm.192 4.128l1.056.504a13.842 13.842 0 0 1-1.992 2.472v7.44h-1.2v-6.384c-.816.648-1.728 1.248-2.712 1.824l-.36-1.176c2.4-1.392 4.152-2.952 5.208-4.68zm42.128 2.208v6.048h2.832v1.224h-21.216v-1.224h2.736v-6.048h15.648zm-14.376 6.048h3.672v-4.848h-3.672v4.848zm4.848 0h3.48v-4.848h-3.48v4.848zm4.656 0h3.576v-4.848h-3.576v4.848zm-12.36-16.848h5.568a17.659 17.659 0 0 0-1.32-2.784l1.296-.24c.48.888.936 1.896 1.344 3.024h5.064c.624-.984 1.104-2.016 1.392-3.096l1.248.168c-.288 1.056-.744 2.016-1.32 2.928h5.64v1.176h-8.808v2.568h7.584v1.152h-7.584v2.496h9.696v1.224h-20.688V12.76h9.696v-2.496h-7.512V9.112h7.512V6.544h-8.808V5.368zm36.992 6.024h-5.616v10.536c0 .528.288.792.888.792h4.896c.912 0 1.464-.216 1.68-.648.24-.528.432-1.488.528-2.88l1.224.432c-.144 1.968-.456 3.216-.888 3.72-.384.384-1.152.6-2.256.6h-5.616c-1.176 0-1.752-.552-1.752-1.656V10.216h8.184v6.192c0 1.248-.624 1.92-1.872 1.968-.912 0-1.8-.048-2.64-.096l-.336-1.2c.912.048 1.752.096 2.568.096.672 0 1.008-.36 1.008-1.08v-4.704zm-3.12-8.664h1.008c2.064 2.208 4.08 4.56 6.048 7.056l-.864.888c-2.088-2.736-3.936-4.968-5.568-6.72a43.044 43.044 0 0 1-6.336 7.416l-.768-1.032c2.376-2.184 4.536-4.728 6.48-7.608zm8.712 1.848h1.272v15.048h-1.272V4.576zm3.912 19.536h-3.792l-.288-1.224c1.272.048 2.472.072 3.624.072.624 0 .936-.36.936-1.08V2.536h1.296v19.68c0 1.248-.6 1.896-1.776 1.896zm15.704-18.936h-3.984V4.024h8.52a16.189 16.189 0 0 0-.84-1.584l1.392-.24c.288.528.552 1.152.84 1.824h8.568v1.152h-4.032l-1.08 2.232h6.264V8.56H171.22V7.408h6.048l-.912-2.232zm2.232 2.232h5.808l1.08-2.232H177.7l.888 2.232zm-4.44 2.928h14.928v6.792h-14.928v-6.792zm13.632 5.736v-1.848h-12.336v1.848h12.336zm-12.336-2.856h12.336v-1.848h-12.336v1.848zm-2.28 5.184l1.296.264c-.576 1.92-1.392 3.576-2.4 4.968l-1.128-.72a13.69 13.69 0 0 0 2.232-4.512zm11.712 5.568h-5.856c-1.44 0-2.16-.696-2.16-2.04v-3.24h1.296v2.952c0 .768.408 1.152 1.248 1.152h5.208c.576 0 .984-.12 1.2-.336.336-.288.552-1.08.648-2.424l1.224.408c-.144 1.632-.456 2.664-.936 3.048-.384.312-1.008.48-1.872.48zm-3.24-6.12c1.056 1.08 1.872 2.016 2.448 2.832l-1.08.768c-.624-.888-1.44-1.848-2.448-2.904l1.08-.696zm7.56.432c1.392 1.632 2.472 3.048 3.192 4.272l-1.056.768c-.768-1.32-1.848-2.784-3.192-4.368l1.056-.672zm13.544.528c.84.576 1.728 1.368 2.664 2.328.816.84 1.488 1.632 2.016 2.4l-.936.792a23.775 23.775 0 0 0-1.992-2.376c-.912-.96-1.776-1.752-2.592-2.352l.84-.792zm28.568-15.816c1.512 1.2 2.784 2.376 3.816 3.576l-.912.912c-.936-1.152-2.208-2.352-3.792-3.624l.888-.864zm-2.568 6.984h4.776v11.04c.936-.72 1.968-1.632 3.072-2.688l.336 1.392c-1.44 1.368-3 2.592-4.656 3.696l-.504-1.176c.288-.288.456-.576.456-.912v-10.08h-3.48V9.976zm8.52 2.784h11.256v1.2c-.816 2.4-2.136 4.416-4.008 6.072 1.68 1.224 3.768 2.304 6.264 3.216l-.696 1.104c-2.616-1.032-4.776-2.208-6.504-3.528-1.944 1.488-4.344 2.664-7.2 3.528l-.72-1.08c2.76-.864 5.064-1.968 6.888-3.312-1.968-1.728-3.312-3.72-4.008-5.952h-1.272V12.76zm2.544 1.248c.672 1.968 1.896 3.696 3.672 5.208 1.704-1.488 2.952-3.216 3.744-5.208h-7.416zm-.576-10.512h7.728v5.328c0 .624.312.936.96.936h2.28v1.2h-2.544c-1.344 0-1.992-.648-1.992-1.92V4.72h-5.136v.984c0 2.568-1.224 4.56-3.624 5.952l-.888-.984c2.136-1.152 3.216-2.76 3.216-4.848V3.496zm26.048 6.312h6.648V2.416h1.344v7.392h6.336v1.296h-6.336V24.4h-1.344V11.104h-6.648V9.808zm-4.968-7.104c1.656 1.272 3.048 2.544 4.2 3.816l-.888.912c-1.056-1.2-2.472-2.496-4.248-3.84l.936-.888zm-2.568 7.224h4.944v11.04c.96-.768 1.992-1.68 3.12-2.76l.336 1.344c-1.44 1.416-3 2.688-4.68 3.792l-.504-1.152c.288-.288.456-.576.456-.864V11.2h-3.672V9.928zm38.096 3.216h-4.944a25.77 25.77 0 0 1-.84 2.712h6.408v8.304h-1.176v-1.488h-4.2v1.536h-1.2v-7.944c-.696 1.704-1.56 3.144-2.592 4.296l-.696-1.08c1.392-1.584 2.424-3.696 3.096-6.336h-2.04v-1.152h2.304c.192-.96.336-1.968.456-3.024h-3.336v-1.2h3.456c.072-1.008.12-2.04.144-3.144h-2.88V3.496h8.04v4.272h1.416v1.2h-1.416v4.176zm-3.936-8.52a63.06 63.06 0 0 1-.144 3.144h2.88V4.624H291.9zm-.264 4.344a36.27 36.27 0 0 1-.48 3.024h3.48V8.968h-3zm-.552 12.552h4.2v-4.464h-4.2v4.464zm11.424-13.104h-4.44V7.192h5.568a31.087 31.087 0 0 0 1.92-4.824l1.224.432c-.552 1.68-1.152 3.144-1.8 4.392h2.952v1.224h-4.152v3.912h3.624v1.224h-3.624v3.864h4.68v1.272h-4.68v5.64h-1.272v-5.64h-4.632v-1.272h4.632v-3.864h-3.864v-1.224h3.864V8.416zm-2.496-5.88a35.338 35.338 0 0 1 2.16 3.912L301.044 7c-.672-1.488-1.368-2.784-2.136-3.936l1.104-.528zm18.68 8.28a32.53 32.53 0 0 1-2.688 3.528l-.408-1.272c2.592-3.168 4.44-6.72 5.592-10.704l1.176.552c-.648 2.064-1.44 3.984-2.4 5.76v15.696h-1.272v-13.56zm3.36-4.056h6.6V2.416h1.272V6.76h6.72v1.248h-5.136a26.557 26.557 0 0 0 6.072 11.064l-.84 1.032c-3.072-3.576-5.184-7.608-6.336-12.096h-.48v10.008h3.984v1.248h-3.984v5.088h-1.272v-5.088h-3.912v-1.248h3.912V8.008h-.48c-1.248 5.064-3.384 9.192-6.408 12.384l-.672-1.104c2.832-2.904 4.848-6.672 6.048-11.28h-5.088V6.76z"/>
</svg>
