<svg xmlns="http://www.w3.org/2000/svg" width="330" height="26" viewBox="0 0 330 26">
    <path fill="#000" fill-rule="evenodd" d="M11.264 13.72v1.32c-1.464.504-3 .96-4.608 1.368v5.736c0 1.248-.672 1.872-1.992 1.872h-2.64l-.288-1.224c.864.048 1.704.072 2.472.072s1.152-.36 1.152-1.056V16.72c-1.608.36-3.264.672-4.992.96l-.192-1.272A71.014 71.014 0 0 0 5.36 15.4v-5.016H.224V9.136H5.36V5.368a52.686 52.686 0 0 1-4.2.72L.896 4.84C4.352 4.456 7.4 3.736 10.04 2.704l.456 1.224a38.21 38.21 0 0 1-3.84 1.152v4.056h6.288c-.168-1.992-.24-4.2-.24-6.648H14c0 2.52.072 4.728.216 6.648h7.56v1.248h-7.464c.168 1.824.408 3.384.72 4.632.168.72.36 1.392.576 2.016 1.272-1.488 2.376-3.192 3.312-5.112l1.128.6c-1.104 2.28-2.424 4.248-3.96 5.88.36.936.768 1.728 1.2 2.4.816 1.2 1.488 1.8 2.016 1.8.576-.024 1.08-1.464 1.488-4.296l1.152.624c-.576 3.36-1.392 5.064-2.448 5.064-.936 0-1.944-.744-3.024-2.184-.504-.696-.96-1.512-1.368-2.448a18.945 18.945 0 0 1-6.096 3.816l-.72-1.104c2.424-.912 4.536-2.256 6.312-4.008a25.595 25.595 0 0 1-.816-2.784c-.336-1.392-.576-3.024-.744-4.896H6.656v4.704a76.478 76.478 0 0 0 4.608-1.368zM16.64 2.8c1.728 1.176 3.192 2.376 4.392 3.6l-.912.912c-1.08-1.152-2.544-2.376-4.368-3.672l.888-.84zm31.04 21.384h-2.352l-.36-1.248 2.448.048c.768 0 1.176-.48 1.176-1.44V5.416h-6.048V4.144h7.344V21.88c0 1.536-.744 2.304-2.208 2.304zm-8.832-21.72c1.2 1.44 2.112 2.712 2.736 3.816L40.552 7c-.672-1.2-1.56-2.496-2.712-3.912l1.008-.624zm-4.104-.12l1.176.552a33.253 33.253 0 0 1-2.448 5.472V24.4h-1.296V10.384a26.718 26.718 0 0 1-2.88 3.48l-.408-1.344c2.712-3 4.656-6.384 5.856-10.176zm2.064 4.176h1.296v17.808h-1.296V6.52zm24.44-3.432c1.392 1.464 2.496 2.76 3.264 3.888l-1.056.696c-.864-1.248-1.92-2.52-3.216-3.864l1.008-.72zm8.28 10.128c1.776 1.944 3.168 3.648 4.128 5.112l-1.128.768c-.984-1.584-2.328-3.312-4.056-5.208l1.056-.672zM67.08 2.44h1.272v2.472a55.067 55.067 0 0 1-.168 3.576h9.96c0 6.768-.312 11.064-.912 12.888-.624 1.824-1.728 2.76-3.312 2.76-1.152 0-2.088-.024-2.856-.072l-.36-1.272c1.152.096 2.184.144 3.144.144 1.536-.12 2.4-1.536 2.64-4.248.216-2.736.336-5.688.336-8.904h-8.76c-.384 3.024-1.056 5.568-2.016 7.632-1.416 2.904-3.768 5.184-7.032 6.84l-.72-1.152c3.216-1.632 5.496-3.888 6.84-6.768.768-1.848 1.32-4.032 1.632-6.552h-7.656V8.488h7.8a55.89 55.89 0 0 0 .168-3.576V2.44zm23.336 7.704a29.952 29.952 0 0 1-3.216 3.984l-.408-1.32a28.31 28.31 0 0 0 5.856-10.392l1.224.552a28.472 28.472 0 0 1-2.16 5.016V24.4h-1.296V10.144zm10.152-7.728h1.344v8.088h6.96V11.8h-6.96v12.6h-1.344V11.8H93.8v-1.296h6.768V2.416zm31.304 11.52a59.16 59.16 0 0 1 5.16 9.576l-1.224.552a78.12 78.12 0 0 0-1.08-2.4c-4.272.744-9.456 1.296-15.504 1.656l-.36-1.32c.384-.168.792-.456 1.2-.84 2.904-2.784 6.36-7.584 10.368-14.448l1.296.648c-4.464 7.416-7.944 12.264-10.44 14.544 4.512-.312 8.808-.792 12.864-1.416a58.41 58.41 0 0 0-3.528-6.144l1.248-.408zm-6.384-11.568l1.392.336c-2.4 5.064-5.664 9.312-9.84 12.72l-.888-1.056c3.936-3.168 7.032-7.152 9.336-12zm29.624 5.424h6.024a30.185 30.185 0 0 0 2.376-5.28l1.224.432c-.768 1.968-1.536 3.576-2.328 4.848h3.84V9.04h-5.04V10c0 1.272-.072 2.472-.216 3.6h5.688v1.272h-5.232c.6 2.784 2.448 5.616 5.544 8.496l-.864.936c-3.024-2.904-4.848-5.76-5.496-8.592-.888 3.936-2.784 6.84-5.664 8.688l-.792-1.056c2.832-1.728 4.608-4.536 5.352-8.472h-4.8V13.6h4.992c.12-1.056.192-2.16.216-3.312V9.04h-4.824V7.792zm2.136-5.112c.984 1.44 1.752 2.712 2.28 3.768l-.984.696c-.552-1.152-1.32-2.424-2.328-3.816l1.032-.648zm-12.072.864h9.432v1.224h-1.704v13.656c.6-.192 1.176-.36 1.752-.552v1.272c-.6.192-1.176.36-1.752.528v4.848h-1.272v-4.512c-1.968.528-4.008.96-6.144 1.344l-.312-1.224c.528-.096 1.08-.168 1.608-.264V4.768h-1.608V3.544zm2.832 16.08a53.402 53.402 0 0 0 3.624-.84v-3.888h-3.624v4.728zm0-5.928h3.624V9.904h-3.624v3.792zm0-5.016h3.624V4.768h-3.624V8.68zm36.512-6.216h.96c3.072 3.6 6.624 6.456 10.656 8.544l-.696 1.2c-4.08-2.184-7.56-5.04-10.44-8.568-2.64 3.312-6.168 6.192-10.536 8.616l-.672-1.224c4.296-2.304 7.872-5.16 10.728-8.568zm7.896 12.408v9.432h-1.272v-1.56h-12.288v1.56h-1.272v-9.432h14.832zm-13.56 6.624h12.288V16.12h-12.288v5.376zm-.048-11.304h12.384v1.272h-12.384v-1.272zm27.44-7.104c1.392 1.464 2.496 2.76 3.264 3.888l-1.056.696c-.864-1.248-1.92-2.52-3.216-3.864l1.008-.72zm8.28 10.128c1.776 1.944 3.168 3.648 4.128 5.112l-1.128.768c-.984-1.584-2.328-3.312-4.056-5.208l1.056-.672zM212.08 2.44h1.272v2.472a55.067 55.067 0 0 1-.168 3.576h9.96c0 6.768-.312 11.064-.912 12.888-.624 1.824-1.728 2.76-3.312 2.76-1.152 0-2.088-.024-2.856-.072l-.36-1.272c1.152.096 2.184.144 3.144.144 1.536-.12 2.4-1.536 2.64-4.248.216-2.736.336-5.688.336-8.904h-8.76c-.384 3.024-1.056 5.568-2.016 7.632-1.416 2.904-3.768 5.184-7.032 6.84l-.72-1.152c3.216-1.632 5.496-3.888 6.84-6.768.768-1.848 1.32-4.032 1.632-6.552h-7.656V8.488h7.8a55.89 55.89 0 0 0 .168-3.576V2.44zm32.912 13.248h-1.944l-.288-1.224c.624.048 1.224.096 1.8.096.48 0 .72-.312.72-.936V7.192h1.296v6.744c0 1.152-.528 1.752-1.584 1.752zm-9.672-7.344a23.673 23.673 0 0 1-2.496 2.64l-.84-.984c2.28-2.016 4.08-4.536 5.424-7.608l1.272.312a25.354 25.354 0 0 1-2.064 3.84v9.216h-1.296V8.344zm7.512-5.976l1.224.312c-.312.72-.648 1.416-1.008 2.04h9.768v.816c-.288 1.2-.696 2.4-1.176 3.552l-1.176-.336c.432-.864.792-1.8 1.08-2.832h-9.216a19.745 19.745 0 0 1-3.24 3.792l-.792-.96c1.896-1.68 3.408-3.816 4.536-6.384zm-7.896 14.736l1.272.264c-.576 2.28-1.368 4.248-2.4 5.904l-1.08-.72c1.008-1.608 1.728-3.432 2.208-5.448zm11.592 6.888h-6.168c-1.368 0-2.04-.696-2.04-2.04v-5.208h1.32v4.944c0 .696.36 1.056 1.128 1.056h5.544c.528 0 .888-.144 1.104-.408.288-.36.48-1.416.576-3.144l1.224.408c-.144 2.064-.432 3.336-.864 3.816-.384.384-1.008.576-1.824.576zm3.936-7.584c1.536 2.112 2.736 3.984 3.552 5.568l-1.08.768c-.864-1.728-2.04-3.624-3.528-5.688l1.056-.648zm-8.328-6.816l1.08.528c-.912 1.872-1.968 3.48-3.216 4.824l-.984-.72c1.2-1.296 2.256-2.832 3.12-4.632zm7.608-.024a31.412 31.412 0 0 1 3.096 4.896l-1.128.576a32.12 32.12 0 0 0-3.072-4.992l1.104-.48zm-6.888 6.504c1.248 1.392 2.208 2.616 2.88 3.648l-1.032.744c-.696-1.152-1.632-2.4-2.832-3.768l.984-.624zm21.32-5.664v4.368h4.272v-4.368h-4.272zm4.272-1.176V4.816h-4.272v4.416h4.272zM264.152 16c-.12 3.408-.672 6.192-1.632 8.376l-1.008-.888c.96-2.256 1.464-5.088 1.488-8.544V3.592h6.672v18.72c0 1.296-.624 1.968-1.872 1.968h-1.92l-.312-1.152c.672.024 1.272.048 1.848.048.672 0 1.032-.432 1.032-1.296V16h-4.296zm9.024-2.376v10.728h-1.224V3.592h9.456c0 2.832-.144 4.728-.432 5.664-.264.96-1.152 1.44-2.688 1.44h-1.848l-.36-1.128h1.608c.624 0 1.08-.048 1.392-.144.288-.096.528-.336.696-.72.192-.624.312-1.92.336-3.912h-6.936v7.656h8.232v1.104c-.504 2.592-1.344 4.776-2.544 6.552 1.152 1.152 2.544 2.184 4.128 3.072l-.624 1.08c-1.68-.96-3.096-2.016-4.224-3.168a12.834 12.834 0 0 1-3.888 3.192l-.672-1.032c1.44-.816 2.688-1.824 3.696-3.072a15.439 15.439 0 0 1-3.312-6.552h-.792zm1.92 0A13.791 13.791 0 0 0 278 19.192c1.032-1.584 1.776-3.456 2.232-5.568h-5.136zm22.4-11.256l1.32.192a14.196 14.196 0 0 1-1.032 1.992h10.632v1.056c-1.608 1.872-3.576 3.432-5.904 4.704 2.784 1.248 5.928 2.064 9.408 2.448l-.576 1.224c-3.84-.456-7.248-1.44-10.248-2.952-2.976 1.368-6.432 2.352-10.416 2.976l-.6-1.2c3.672-.504 6.888-1.344 9.648-2.52a27.355 27.355 0 0 1-4.176-3.048 18.913 18.913 0 0 1-3.24 2.4l-.792-1.032c2.952-1.68 4.944-3.768 5.976-6.24zm3.624 7.272c2.112-1.08 3.936-2.376 5.448-3.864h-9.672c-.168.192-.336.384-.48.576a22.341 22.341 0 0 0 4.704 3.288zm-1.296 3.312h1.272a16 16 0 0 1-.264 2.928h8.544c-.048 3.936-.408 6.312-1.104 7.08-.696.768-1.92 1.176-3.648 1.176-.72 0-1.608-.024-2.64-.072l-.336-1.2c1.08.048 1.968.096 2.688.096 1.584-.024 2.592-.336 3-.96.408-.648.648-2.304.744-4.944h-7.536c-.24.72-.504 1.368-.84 1.968-1.272 2.16-4.08 3.936-8.448 5.328l-.864-1.032c3.936-1.176 6.576-2.688 7.92-4.512.336-.552.6-1.128.84-1.752h-7.416V15.88h7.776c.192-.912.312-1.896.312-2.928zm24.368-8.424c1.512 0 2.712.432 3.624 1.296.864.816 1.296 1.92 1.296 3.312a4.4 4.4 0 0 1-.912 2.712c-.264.336-.888.936-1.896 1.848-.576.504-.96.96-1.2 1.368a3.566 3.566 0 0 0-.504 1.848v.696h-1.464v-.696c0-.696.144-1.344.432-1.92.336-.72 1.056-1.608 2.208-2.616.528-.528.912-.912 1.104-1.152.504-.648.768-1.32.768-2.04 0-1.032-.312-1.848-.888-2.448-.624-.624-1.512-.912-2.64-.912-1.296 0-2.256.432-2.904 1.296-.576.72-.864 1.728-.864 2.976h-1.44c0-1.632.456-2.928 1.32-3.936.96-1.104 2.28-1.632 3.96-1.632zM323.88 19.6c.336 0 .624.096.864.336.24.216.36.504.36.864 0 .336-.12.624-.36.864-.24.216-.528.336-.864.336-.336 0-.648-.12-.888-.36s-.336-.504-.336-.84c0-.36.096-.648.336-.864.24-.24.552-.336.888-.336z"/>
</svg>
