<svg xmlns="http://www.w3.org/2000/svg" width="90" height="90" viewBox="0 0 90 90">
    <g fill="none" fill-rule="evenodd" stroke="#FFF" stroke-linejoin="round" stroke-width="2" transform="translate(4 9)">
        <path d="M67.452 55.548v5.29H14.548v-5.29L3.968 13.226l18.516 23.806L41 13.226l18.516 23.806 18.516-23.806z"/>
        <circle cx="3.968" cy="3.968" r="3.968"/>
        <circle cx="78.032" cy="3.968" r="3.968"/>
        <circle cx="41" cy="3.968" r="3.968"/>
        <path d="M41 47.613l-7.935-10.58L41 26.451l7.935 10.58zM14.548 64.806v6.613h52.904v-6.613M18.516 66.129h2.645M23.806 66.129h2.646M29.097 66.129h2.645M34.387 66.129h2.645M39.677 66.129h2.646M44.968 66.129h2.645M50.258 66.129h2.645M55.548 66.129h2.646M60.839 66.129h2.645M3.968 13.226l21.161 11.903M78.032 13.226L56.871 25.129M14.548 55.548h52.904M39.677 37.032h2.646"/>
    </g>
</svg>
