<svg xmlns="http://www.w3.org/2000/svg" width="90" height="90" viewBox="0 0 90 90">
    <g fill="none" fill-rule="evenodd" stroke="#FFF" stroke-width="2">
        <path d="M16.125 46h2.625M12.188 10.563V4M30.563 32.875v17.063c0 .725-.587 1.312-1.313 1.312H13.5a1.311 1.311 0 0 1-1.313-1.313V31.564M30.563 4v7.875M39.75 14.5h-2.625L24 10.562H12.187a2.626 2.626 0 0 0 0 5.25H9.563a2.626 2.626 0 0 0 0 5.25H6.937a2.626 2.626 0 0 0 0 5.25h2.625a2.626 2.626 0 0 0 0 5.25h11.813M9.563 26.313h7.874M9.563 21.063h7.874M12.188 15.813h5.25"/>
        <path d="M16.125 34.188a2.626 2.626 0 0 0 2.625 2.624H24l5.25-2.624 5.25-3.938h5.25M45 17.125v2.625M80.438 13.188H87"/>
        <path d="M58.125 31.563H41.062a1.311 1.311 0 0 1-1.312-1.313V14.5c0-.726.587-1.313 1.313-1.313h18.374M87 31.563h-7.875M76.5 40.75v-2.625L80.438 25V13.187a2.626 2.626 0 0 0-5.25 0v-2.624a2.626 2.626 0 0 0-5.25 0V7.937a2.626 2.626 0 0 0-5.25 0v2.625a2.626 2.626 0 0 0-5.25 0v11.813M64.688 10.563v7.874M69.938 10.563v7.874M75.188 13.188v5.25"/>
        <path d="M56.813 17.125a2.626 2.626 0 0 0-2.626 2.625V25l2.626 5.25 3.937 5.25v5.25M71.25 46h2.625M59.438 80.125V88"/>
        <path d="M77.813 57.813v-15.75c0-.726-.587-1.313-1.313-1.313H60.75c-.726 0-1.313.587-1.313 1.313v17.062M77.813 88v-9.188"/>
        <path d="M50.25 61.75h2.625L66 57.812h11.813a2.626 2.626 0 0 1 0 5.25h2.624a2.626 2.626 0 0 1 0 5.25h2.626a2.626 2.626 0 0 1 0 5.25h-2.626a2.626 2.626 0 0 1 0 5.25H68.626M80.438 73.563h-7.876M80.438 68.313h-7.876M77.813 63.063h-5.25M73.875 81.438a2.626 2.626 0 0 1-2.625 2.624H66l-5.25-2.624L55.5 77.5h-5.25M45 64.375V67M12.188 60.438H3"/>
        <path d="M30.563 78.813h18.375c.725 0 1.312-.587 1.312-1.313V61.75c0-.726-.587-1.313-1.313-1.313H31.875M3 78.813h6.563M13.5 51.25v2.625L9.562 67v11.813a2.626 2.626 0 0 0 5.25 0v2.624a2.626 2.626 0 0 0 5.25 0v2.626a2.626 2.626 0 0 0 5.25 0v-2.626a2.626 2.626 0 0 0 5.25 0V69.626M25.313 81.438v-7.876M20.063 81.438v-7.876M14.813 78.813v-5.25"/>
        <path d="M33.188 74.875a2.626 2.626 0 0 0 2.624-2.625V67l-2.624-5.25-3.938-5.25v-5.25M12.188 51.25h18.374"/>
    </g>
</svg>
