<svg xmlns="http://www.w3.org/2000/svg" width="90" height="90" viewBox="0 0 90 90">
    <g fill="none" fill-rule="evenodd" stroke="#FFF" stroke-width="2" transform="translate(5 4)">
        <path stroke-linejoin="round" d="M25.129 18.516L10.581 3.968 14.548 0H0v14.548l3.968-3.967 18.516 18.516M54.226 60.839l17.193 17.193L67.452 82H82V67.452l-3.968 3.967-19.838-19.838M56.871 18.516L71.419 3.968 67.452 0H82v14.548l-3.968-3.967-18.516 18.516M27.774 60.839L10.581 78.032 14.548 82H0V67.452l3.968 3.967 19.838-19.838M41 83.323v-30.42"/>
        <circle cx="41" cy="6.613" r="6.613" stroke-linejoin="round"/>
        <path d="M31.742 83.323V48.935h-5.29v-21.16a9.258 9.258 0 0 1 9.258-9.259h10.58a9.258 9.258 0 0 1 9.258 9.258v21.161h-5.29v34.388"/>
        <path stroke-linejoin="round" d="M39.677 23.806h2.646M39.677 29.097h2.646"/>
    </g>
</svg>
