<svg xmlns="http://www.w3.org/2000/svg" width="90" height="90" viewBox="0 0 90 90">
    <g fill="none" fill-rule="evenodd" stroke="#FFF" stroke-width="2">
        <path d="M13.258 65.839h27.774M13.258 71.129h27.774M13.258 76.42h27.774M13.258 81.71h29.097M33.097 81.71V87H25.16v-5.29"/>
        <path d="M41.032 81.71V52.613c7.876-4.243 13.226-12.911 13.226-22.484C54.258 16.251 43.007 5 29.13 5 15.251 5 4 16.251 4 30.129c0 9.591 5.323 18.249 13.226 22.484V81.71M25.161 65.839V52.613M33.097 65.839V52.613"/>
        <path d="M29.129 44.677c-8.035 0-14.548-6.513-14.548-14.548s6.513-14.548 14.548-14.548M48.968 65.839h27.774M48.968 71.129h27.774M48.968 76.42h27.774M47.645 81.71h29.097M64.839 81.71V87h-7.936v-5.29"/>
        <path d="M72.774 81.71V52.613C80.65 48.37 86 39.702 86 30.129 86 16.251 74.749 5 60.871 5c-13.878 0-25.13 11.251-25.13 25.129 0 9.591 5.324 18.249 13.227 22.484V81.71M56.903 65.839V52.613M64.839 65.839V52.613"/>
        <path d="M60.871 15.58c8.035 0 14.548 6.514 14.548 14.549s-6.513 14.548-14.548 14.548M45 23.516v2.645M45 28.806v2.646M45 34.097v2.645"/>
    </g>
</svg>
