<svg xmlns="http://www.w3.org/2000/svg" width="460" height="200" viewBox="0 0 460 200">
    <g fill="#FFF" fill-rule="evenodd">
        <path d="M60.387 53.64h-5.55c-2.1 0-3.12-1.08-3.12-3.24v-4.11c-1.11.51-2.25.99-3.39 1.47l-1.59-2.37c1.8-.72 3.45-1.44 4.98-2.19v-8.49h2.85v6.93c3-1.8 5.49-3.78 7.44-5.94l2.01 2.04c-2.7 2.7-5.85 5.07-9.45 7.08v4.95c0 .87.33 1.32 1.05 1.32h4.23c.69 0 1.2-.24 1.5-.66.36-.45.63-1.8.78-4.08l2.7.84c-.3 3.12-.78 5.01-1.47 5.61-.66.54-1.65.84-2.97.84zm-18.18-10.32c-1.2 1.26-2.49 2.49-3.93 3.63l-.87-2.85c3.36-2.82 5.82-6.09 7.41-9.81l2.55 1.2c-.63 1.47-1.38 2.88-2.28 4.23v14.46h-2.88V43.32zm-4.14-14.43h6.24v-2.55h2.79v2.55h8.01v-2.55h2.79v2.55h6.24v2.7h-6.24v2.34h-2.79v-2.34h-8.01v2.34h-2.79v-2.34h-6.24v-2.7zM87.923 46.2c.42 2.04.84 4.35 1.23 6.99l-1.53.33-.18-1.8c-1.29.45-2.67.84-4.17 1.14l-.33-2.19c.72-.3 1.11-.87 1.11-1.71V30.78l-1.2.12v9.36c-.09 5.37-.9 9.96-2.46 13.74l-1.98-2.04c1.44-3.3 2.22-7.2 2.28-11.7V28.77c3.63-.3 6.39-.84 8.25-1.62l1.8 2.04c-.57.21-1.14.39-1.71.57.12 8.85 1.35 16.26 3.72 22.23l-1.77 1.74c-2.37-6.51-3.63-14.34-3.75-23.49-.45.09-.87.18-1.23.24v19.68c.42-.12.81-.27 1.17-.42-.15-1.11-.3-2.16-.45-3.15l1.2-.39zm-11.73-19.8c.3.96.57 2.07.87 3.33h2.91v2.52h-8.28v-2.52h2.7c-.27-1.05-.57-2.01-.93-2.91l2.73-.42zm-1.71 14.04h-2.94v-2.58h4.62c.45-1.62.81-3.27 1.05-5.01l2.28.33c-.24 1.65-.6 3.21-1.08 4.68h1.59v2.58h-2.94c-.03 1.05-.06 2.04-.12 2.97h2.31v2.49h-2.52c-.06.42-.09.81-.15 1.2-.48 2.82-1.5 5.13-3.09 6.96l-1.83-2.22c1.2-1.5 1.98-3.36 2.34-5.52l.06-.42h-2.04v-2.49h2.31c.06-.93.12-1.92.15-2.97zm19.05-.06h-3.15V37.8h4.8c.48-1.62.81-3.3 1.05-5.04l2.28.3c-.24 1.68-.6 3.27-1.08 4.74h1.8v2.58h-3.09v3.21h2.61v2.52h-2.61v7.74h-2.61v-7.74h-2.43v-2.52h2.43v-3.21zm1.92-14.01c.3 1.02.57 2.13.84 3.36h2.88v2.52h-8.85v-2.52h3.27a34.53 34.53 0 0 0-.87-2.91l2.73-.45zm-2.49 6.36c.51 1.2.96 2.49 1.35 3.87l-2.01.84c-.42-1.5-.9-2.79-1.41-3.87l2.07-.84zm-18.93-.03c.54 1.32.99 2.7 1.41 4.2l-2.07.9c-.48-1.62-.96-3.06-1.47-4.26l2.13-.84zm47.904 2.97l5.73 5.7 5.7-5.7 1.86 1.86-5.7 5.7 5.7 5.73-1.86 1.86-5.7-5.73-5.73 5.73-1.86-1.86 5.73-5.73-5.73-5.7 1.86-1.86zm38.513 6.75a55.972 55.972 0 0 1-3.33 3.06l-.9-3c3.81-3.24 6.39-6.36 7.74-9.42h-7.05v-2.73h4.26c-.45-1.17-.96-2.31-1.56-3.42l2.7-.78c.66 1.53 1.2 2.94 1.56 4.2h2.94v2.4c-.72 2.13-1.89 4.23-3.45 6.33 1.56.96 3 2.04 4.32 3.27l-1.62 2.46c-.93-1.02-1.86-1.92-2.82-2.7v12h-2.79V42.42zm21.33-15v16.89h-2.88V30.15h-7.59v14.16h-2.82V27.42h13.29zm-.9 26.19h-2.97c-1.8 0-2.7-.99-2.7-2.94v-4.98a22.85 22.85 0 0 1-1.17 2.82c-1.47 2.52-3.81 4.44-7.05 5.82l-1.53-2.49c3.15-1.38 5.28-3.15 6.42-5.28 1.08-2.28 1.68-5.22 1.8-8.85v-5.67h2.76v5.67c-.09 2.46-.36 4.65-.81 6.51h2.34v5.85c0 .6.24.93.78.93h1.62c.3 0 .54-.15.72-.45.18-.36.3-1.38.39-3.09l2.64.87c-.21 2.55-.57 4.08-1.05 4.59-.48.45-1.23.69-2.19.69zm31.737-16.47v10.98h-2.76v-8.34h-11.28v8.34h-2.76V37.14h16.8zm4.44-5.25v6.39h-2.88v-3.63h-19.89v3.6h-2.88v-6.36h4.41c-.72-1.32-1.47-2.52-2.25-3.57l2.52-1.23c.93 1.29 1.83 2.7 2.67 4.23l-1.14.57h5.82c-.78-1.62-1.59-3.06-2.43-4.32l2.52-1.23a56.04 56.04 0 0 1 2.46 4.29l-2.49 1.26h5.04c1.14-1.68 2.13-3.48 2.94-5.37l2.82 1.02c-.84 1.71-1.71 3.15-2.61 4.35h5.37zm-14.7 9.6h2.79v3.21c0 .06-.03.15-.03.24h2.4v4.62c0 .9.42 1.35 1.26 1.35h4.56c.42 0 .75-.18.99-.48.24-.36.39-1.44.51-3.21l2.61.84c-.21 2.64-.6 4.26-1.17 4.8-.54.48-1.35.72-2.43.72h-5.94c-2.1 0-3.15-1.17-3.15-3.45v-3.24c-.48 1.62-1.38 2.97-2.7 4.08-1.86 1.44-4.92 2.58-9.12 3.36l-1.65-2.52c4.2-.72 7.08-1.59 8.61-2.67 1.5-1.14 2.31-2.64 2.46-4.44v-3.21zm34.556-15.21h2.94v5.19h10.68v14.49h-2.85v-1.71h-7.83V54.3h-2.94V44.25h-7.8v1.71h-2.85V31.47h10.65v-5.19zm-7.8 15.18h7.8v-7.2h-7.8v7.2zm10.74 0h7.83v-7.2h-7.83v7.2zm25.257-9.15h14.85v2.58h-5.97v3.69h5.04v2.52h-5.04v4.17h3.06c-.54-1.2-1.11-2.22-1.71-3.12l2.25-.72c.69.96 1.29 1.98 1.8 3.12l-1.62.72h3.06v2.58H264.3v-2.58h6.81V41.1h-5.04v-2.52h5.04v-3.69h-6v-2.58zm20.04-4.77v26.49h-2.88v-1.14h-19.44v1.14h-2.88V27.54h25.2zm-22.32 22.68h19.44V30.24h-19.44v19.98zm46.403-14.55l5.73 5.7 5.7-5.7 1.86 1.86-5.7 5.7 5.7 5.73-1.86 1.86-5.7-5.73-5.73 5.73-1.86-1.86 5.73-5.73-5.73-5.7 1.86-1.86zM342.16 29.58h3.24V51h-3.24V29.58zm9.46 0h3.99l5.22 7.74 5.22-7.74h3.99l-7.26 10.35L370.55 51h-3.99l-5.73-8.49L355.1 51h-3.99l7.71-11.07-7.2-10.35zm24.58 0h7.8c3.45 0 6.06.96 7.86 2.91 1.68 1.8 2.52 4.41 2.52 7.8 0 3.36-.87 5.97-2.58 7.83-1.8 1.92-4.41 2.88-7.86 2.88h-7.74V29.58zm3.27 2.79v15.84h3.87c2.7 0 4.71-.66 5.97-1.95 1.23-1.29 1.86-3.27 1.86-5.97 0-2.76-.63-4.74-1.83-6-1.26-1.29-3.24-1.92-5.94-1.92h-3.93zm30.94-3.21c2.49 0 4.56.63 6.18 1.95 1.56 1.26 2.52 3 2.85 5.16h-3.18c-.36-1.44-1.05-2.52-2.07-3.21-1.02-.69-2.28-1.02-3.84-1.02-2.31 0-4.05.78-5.22 2.37-1.11 1.44-1.65 3.42-1.65 5.91 0 2.58.54 4.56 1.62 5.97 1.14 1.5 2.91 2.25 5.31 2.25 1.56 0 2.88-.39 3.9-1.17 1.08-.84 1.83-2.1 2.25-3.78h3.18c-.48 2.49-1.59 4.44-3.36 5.85-1.65 1.32-3.63 1.98-5.94 1.98-3.51 0-6.15-1.14-7.92-3.36-1.56-1.92-2.31-4.5-2.31-7.74 0-3.18.78-5.76 2.4-7.77 1.8-2.28 4.38-3.39 7.8-3.39zM49.316 88.564h-8.184v16.764c0 1.056.572 1.628 1.76 1.628h7.656c1.32 0 2.156-.352 2.464-1.012.352-.704.616-2.2.792-4.444l3.916 1.32c-.352 3.828-.88 6.16-1.672 6.952-.704.704-2.156 1.056-4.268 1.056H41.088c-2.772 0-4.136-1.32-4.136-3.96v-20.9L34.84 88.08l-2.464-3.388c4.18-3.828 8.008-8.36 11.484-13.552h3.08c3.872 4.048 7.568 8.272 11 12.672l-2.728 2.86c-3.784-5.016-6.908-8.888-9.46-11.572a80.2 80.2 0 0 1-7.744 9.768h15.4v12.144c-.044 2.42-1.364 3.696-4.004 3.872a85.77 85.77 0 0 1-4.884-.132l-1.012-3.916c1.628.176 3.036.264 4.268.264 1.012 0 1.54-.528 1.54-1.496v-7.04zM59.92 74.792h4.092v27.148H59.92V74.792zm7.612 36.344h-6.644l-.968-4.004c2.156.176 4.224.264 6.16.264 1.056 0 1.584-.66 1.584-1.936V71.052h4.18v35.464c0 3.08-1.452 4.62-4.312 4.62zM92.87 76.86h-6.864v-3.52h14.52a29.907 29.907 0 0 0-1.056-2.068l4.532-.704c.352.836.748 1.76 1.1 2.772h15.224v3.52h-6.996l-1.276 2.64h10.34v3.608H83.939V79.5h9.988l-1.056-2.64zm5.412 2.64h9.416l1.276-2.64H97.227l1.056 2.64zm-9.768 5.456h29.304v13.728H88.515V84.956zm25.212 10.56v-2.2h-21.12v2.2h21.12zm-21.12-5.192h21.12v-2.156h-21.12v2.156zM86.843 100.4l4.048.836c-1.012 3.476-2.42 6.468-4.224 9.02l-3.608-2.244a23.724 23.724 0 0 0 3.784-7.612zm22.484 10.428H98.59c-3.388 0-5.06-1.54-5.06-4.532v-5.632h4.224v4.752c0 1.1.66 1.672 2.024 1.672h8.756c.792 0 1.364-.176 1.672-.484.44-.396.748-1.54.924-3.476l3.96 1.276c-.352 3.08-.968 4.972-1.936 5.588-.836.528-2.112.836-3.828.836zm-5.104-11.968c1.76 1.76 3.08 3.3 4.004 4.664l-3.476 2.42c-1.012-1.452-2.376-3.08-4.092-4.84l3.564-2.244zm13.728.924c2.42 2.86 4.268 5.368 5.544 7.48l-3.476 2.42c-1.364-2.376-3.168-4.972-5.456-7.788l3.388-2.112zm17.023-21.956h6.908v-1.892h-8.36v-3.168h8.36V70.92h3.696v1.848h7.876v3.168h-7.876v1.892h6.908v8.184h-6.908v.308a91.193 91.193 0 0 1 7.568 3.256l-2.112 3.168c-2.112-1.584-3.96-2.86-5.456-3.784v4.136h-3.696v-4.268a39.46 39.46 0 0 1-7.304 4.708l-1.76-3.3c2.904-.88 5.808-2.288 8.712-4.224h-6.556v-8.184zm14.212 5.412v-2.596h-3.608v2.596h3.608zm-7.304 0v-2.596h-3.608v2.596h3.608zm17.556-5.456c-.22.44-.44.836-.616 1.276 1.144 2.244 2.596 4.136 4.4 5.72 1.54-1.76 2.596-4.092 3.124-6.996h-6.908zm.924 9.328c-1.496-1.452-2.728-2.992-3.696-4.62a85.668 85.668 0 0 1-1.716 2.068l-2.42-3.08c2.64-2.904 4.4-6.424 5.368-10.648l3.74.484c-.264 1.012-.528 1.98-.792 2.948h11.484v3.52h-2.332c-.66 3.784-1.936 6.82-3.784 9.196 2.024 1.232 4.312 2.2 6.864 2.948l-2.156 3.3c-2.904-.968-5.456-2.2-7.568-3.696-2.112 1.408-4.884 2.596-8.228 3.564l-1.408-3.388c2.64-.704 4.884-1.54 6.644-2.596zm-9.46 10.736H135.81V94.24h35.024v3.608h-15.796v2.816h13.112v3.52h-13.112v2.86h17.908v3.696H133.61v-3.696h6.688v-7.656h3.872v7.656h6.732v-9.196zm50.947-27.016h3.08c5.544 6.248 11.88 11.176 19.096 14.784l-2.244 4.004a68.84 68.84 0 0 1-6.82-4.224v3.124h-23.144v-3.212c-2.2 1.584-4.532 3.036-6.996 4.4l-2.2-4.048c7.7-3.96 14.124-8.932 19.228-14.828zm-8.932 13.684h20.856c-3.872-2.904-7.348-6.204-10.384-9.9-2.948 3.608-6.424 6.908-10.472 9.9zm24.816 8.712v18.26h-4.048v-2.376h-20.592v2.376h-4.048v-18.26h28.688zm-24.64 11.924h20.592v-8.008h-20.592v8.008zm49.099-18.304h22.836v9.416h-22.836v-9.416zm19.008 6.336v-3.168h-15.136v3.168H261.2zm7.964 5.456v12.936h-4.048v-1.716h-22.792v1.716h-4.092V98.64h30.932zm-26.84 7.744h22.792v-4.312h-22.792v4.312zm-7.876-32.736h9.548v-2.64h4.136v2.64h10.736v-2.64h4.136v2.64h9.548V77.3h-9.548v2.244h-4.136V77.3h-10.736v2.244h-4.136V77.3h-9.548v-3.652zm37.224 7.26v8.756h-4.004v-5.236h-28.336v5.456h-4.004v-8.976h36.344zm38.275-9.856h4.092v11.836h8.184v23.364c0 3.344-1.452 5.016-4.356 5.016H313.6l-1.1-4.004 4.004.22c1.012 0 1.54-.748 1.54-2.156v-3.388H305.9v9.416h-4.18V82.888h8.228V71.052zM305.9 94.416v4.004h12.144v-4.004H305.9zm12.144-3.564v-4.004H305.9v4.004h12.144zm-13.948-18.128c1.32 2.2 2.64 4.576 3.872 7.216l-3.388 1.716c-1.232-2.728-2.552-5.104-4.004-7.216l3.52-1.716zm15.796-.44l3.476 1.628c-1.056 2.64-2.464 5.236-4.136 7.744l-3.388-1.76c1.672-2.552 3.036-5.104 4.048-7.612zm-31.152-1.276l4.048.836a203.676 203.676 0 0 1-1.056 3.696h7.524v3.96h-8.932a58.087 58.087 0 0 1-2.288 4.972h10.472v3.74h-4.224v4.532h5.72v3.872h-5.72v9.108a36.271 36.271 0 0 0 5.588-2.728l.704 3.696c-2.948 1.584-6.336 2.86-10.208 3.872L288.651 107c1.056-.396 1.584-.968 1.584-1.672v-8.712h-5.72v-3.872h5.72v-4.532h-2.332V84.78c-.528.924-1.012 1.804-1.54 2.684l-3.388-2.156c2.728-4.4 4.62-9.196 5.764-14.3zM340.17 86.54v6.424h6.16V86.54h-6.16zm6.16-3.74v-6.512h-6.16V82.8h6.16zm-6.248 13.948c-.308 5.984-1.364 10.956-3.168 14.872l-3.168-2.86c1.76-3.828 2.64-8.712 2.684-14.652V72.504h13.684v34.408c0 2.992-1.364 4.488-4.048 4.488h-3.52l-1.012-3.696c1.232.132 2.332.22 3.388.22.924 0 1.408-.792 1.408-2.332v-8.844h-6.248zm16.94-4.356V108.1a21.065 21.065 0 0 0 5.852-4.664c-2.552-3.256-4.312-6.952-5.28-11.044h-.572zm0 15.84v3.344h-3.916V72.504h18.524c0 5.72-.264 9.504-.792 11.396-.528 1.848-2.2 2.772-5.016 2.772h-3.696l-1.1-3.52c.704 0 1.672.044 2.904.044.924 0 1.628-.088 2.068-.22.44-.132.792-.528 1.056-1.144.264-.748.44-2.596.528-5.544h-10.56v12.408h14.872v3.52c-.792 4.312-2.112 8.008-3.96 11.044 1.804 1.716 3.916 3.256 6.292 4.664l-2.068 3.52c-2.508-1.496-4.708-3.168-6.556-4.972-1.804 2.024-3.96 3.696-6.424 5.016l-2.156-3.256zm4.136-15.84c.88 2.86 2.2 5.456 4.004 7.788 1.32-2.288 2.332-4.884 3.036-7.788h-7.04zm35.24-21.648l4.267.616a26.967 26.967 0 0 1-1.452 2.992h18.832v3.388c-2.64 3.036-5.852 5.676-9.592 7.876 4.708 1.76 9.944 2.948 15.752 3.476l-1.892 3.916c-6.82-.792-12.98-2.464-18.436-5.06-5.28 2.376-11.44 4.092-18.392 5.148l-1.936-3.916c5.896-.748 11.176-1.98 15.752-3.696-2.112-1.232-4.048-2.64-5.852-4.136a38.206 38.206 0 0 1-4.928 3.564l-2.552-3.344c5.148-2.948 8.624-6.556 10.428-10.824zm7.435 12.804c3.036-1.496 5.72-3.256 8.096-5.28h-15.444c-.132.132-.22.22-.264.308a41.253 41.253 0 0 0 7.612 4.972zm-3.168 7.084h4.136c0 1.584-.132 3.08-.352 4.488h15.18c-.088 7.7-.748 12.32-1.98 13.816-1.232 1.496-3.432 2.288-6.512 2.288-1.496 0-3.344-.088-5.456-.22l-1.056-3.784c2.288.088 4.136.176 5.544.264 2.244-.044 3.652-.528 4.224-1.408.572-.924.924-3.344 1.056-7.216h-11.924c-.396 1.056-.836 2.068-1.364 2.992-2.2 3.96-7.348 7.216-15.488 9.812l-2.772-3.388c7.172-2.112 11.88-4.664 14.08-7.7.352-.572.704-1.144.968-1.716h-12.364v-3.74h13.64c.264-1.408.44-2.904.44-4.488zM34.858 153.5H57.92v1.378h-3.536v18.044c0 1.612-.806 2.418-2.392 2.418h-4.29l-.312-1.352c1.43.052 2.808.104 4.108.104.962 0 1.456-.52 1.456-1.534v-17.68H34.858V153.5zm12.87 5.798v9.204h-8.372v2.366h-1.352v-11.57h9.724zm-8.372 7.904h7.02v-6.63h-7.02v6.63zm39.018-9.568c-.182.156-.364.286-.52.416l-.832-.988c1.95-1.43 3.484-3.224 4.628-5.408l1.352.312c-.312.598-.624 1.17-.988 1.69h4.342v.988c-.676 1.066-1.326 1.95-1.95 2.652h3.198v9.1h-3.952c-.052.78-.104 1.508-.208 2.184h5.252v1.274h-5.512c-.052.234-.13.468-.182.676 1.82.936 3.484 2.08 4.992 3.406l-.754 1.17c-1.508-1.456-3.068-2.652-4.654-3.562-.832 1.612-2.314 2.938-4.472 3.978l-.832-1.04c2.132-1.014 3.536-2.288 4.264-3.848.104-.26.182-.52.26-.78h-4.342v-1.274h4.654c.104-.676.182-1.404.234-2.184h-3.978v-8.762zm4.628-.338c.676-.728 1.3-1.534 1.898-2.47h-3.718c-.728.91-1.508 1.742-2.392 2.47h4.212zm3.406 7.956v-2.886h-2.834v2.886h2.834zm-3.978 0v-2.886h-2.834v2.886h2.834zm-2.834-3.952h2.834v-2.886h-2.834v2.886zm3.978-2.886v2.886h2.834v-2.886h-2.834zm-7.696-6.552l1.196.546c-1.144 2.808-2.964 5.252-5.46 7.332l-.416-1.352c2.184-1.924 3.744-4.108 4.68-6.526zm.338 6.864l1.196.546a19.337 19.337 0 0 1-1.924 3.536v12.74h-1.326v-11.024a26.816 26.816 0 0 1-2.6 2.548l-.416-1.326c2.34-2.08 4.03-4.42 5.07-7.02zm14.82 16.718h-1.82l-.286-1.3c.572.052 1.118.104 1.638.104.624 0 .962-.312.962-.91v-11.7h-2.99v-1.3h6.396v1.3h-2.08v12.038c0 1.17-.624 1.768-1.82 1.768zm-2.21-21.684h5.72v1.326h-5.72v-1.326zm22.144 8.918h17.732v6.526h-8.216v1.69h8.996v1.014h-8.996v1.768h10.92v1.144h-23.192v-1.144h10.868v-1.768h-8.892v-1.014h8.892v-1.69h-8.112v-6.526zm16.406 5.59v-1.846h-6.89v1.846h6.89zm-8.294 0v-1.846h-6.786v1.846h6.786zm-6.786-2.73h6.786v-1.924h-6.786v1.924zm8.19-1.924v1.924h6.89v-1.924h-6.89zm-8.944-11.336h16.614v6.292h-16.614v-6.292zm15.262 5.356v-1.768h-13.91v1.768h13.91zm-13.91-2.678h13.91v-1.742h-13.91v1.742zm-4.68 5.148h23.192v1.092h-23.192v-1.092zm40.318-2.522l1.248.598c-1.092 2.392-2.392 4.472-3.874 6.214l-1.144-.806c1.456-1.664 2.73-3.666 3.77-6.006zm6.864 4.628c-1.274-1.586-2.496-2.886-3.64-3.9l.91-.858c1.04.832 2.262 2.106 3.666 3.822l-.936.936zm-7.28 1.82a50.314 50.314 0 0 1 3.25 2.886c.676-1.274 1.222-2.652 1.664-4.134l1.248.546a24.193 24.193 0 0 1-1.846 4.628c1.144 1.144 2.236 2.288 3.224 3.458l-.962 1.066a62.35 62.35 0 0 0-2.99-3.276c-1.612 2.6-3.718 4.628-6.292 6.084l-.858-1.248c2.522-1.404 4.55-3.38 6.11-5.876a47.21 47.21 0 0 0-3.484-3.094l.936-1.04zm2.574-12.428c.468.91.884 1.95 1.274 3.12h4.94v1.378h-11.908v-1.378h5.59a22.732 22.732 0 0 0-1.326-2.86l1.43-.26zm9.516 5.98a63.112 63.112 0 0 1-.624 2.002c.676 2.86 1.56 5.356 2.652 7.462 1.404-2.704 2.158-5.85 2.236-9.464h-4.264zm1.248 10.816c-1.066-2.028-1.95-4.316-2.652-6.89-.52 1.092-1.066 2.106-1.664 2.99l-.884-1.092c1.82-2.912 3.068-6.812 3.744-11.752l1.378.26a46.148 46.148 0 0 1-.806 4.264h7.592v1.404h-2.34c-.13 4.212-1.066 7.852-2.808 10.868 1.534 2.548 3.38 4.472 5.538 5.798l-.858 1.222c-2.158-1.378-3.978-3.302-5.486-5.746-1.638 2.34-3.796 4.29-6.474 5.85l-.806-1.274c2.808-1.534 4.966-3.51 6.526-5.902zm23.314-15.418h16.874v9.698h-7.67v2.756h10.452v1.326h-8.996c1.82 2.522 5.018 4.784 9.568 6.76l-.988 1.196c-4.68-2.392-7.93-5.044-9.75-7.956h-.286v8.788h-1.404v-8.788h-.286c-1.95 3.224-5.278 5.876-9.958 7.956l-.78-1.274c4.472-1.742 7.67-3.978 9.594-6.682h-9.022v-1.326h10.452v-2.756h-7.8v-9.698zm15.444 8.476v-2.964h-6.24v2.964h6.24zm-7.644 0v-2.964h-6.396v2.964h6.396zm-6.396-4.212h6.396v-2.99h-6.396v2.99zm7.8-2.99v2.99h6.24v-2.99h-6.24zm33.324 2.21v17.472h-1.352v-1.586h-5.252v2.314h-1.352v-18.2h2.34a23.025 23.025 0 0 0 1.17-4.654l1.43.182a22.977 22.977 0 0 1-1.248 4.472h4.264zm-6.604 14.586h5.252v-6.162h-5.252v6.162zm0-7.436h5.252v-5.798h-5.252v5.798zm11.024-1.274c1.976 2.184 3.484 4.082 4.524 5.72l-1.118.806c-1.092-1.768-2.626-3.692-4.55-5.798l1.144-.728zm9.048-5.85c0 8.398-.13 13.598-.364 15.574-.26 2.08-1.456 3.12-3.614 3.12-.494 0-1.352-.026-2.548-.052l-.338-1.3c1.04.052 1.95.078 2.73.078 1.404 0 2.21-.78 2.418-2.314.208-1.56.312-6.136.364-13.702h-7.67c-.728 1.69-1.586 3.198-2.626 4.55l-.832-1.092c1.872-2.6 3.146-5.798 3.822-9.568l1.378.156c-.312 1.612-.702 3.146-1.196 4.55h8.476zm26.018-4.81c.312.728.598 1.534.884 2.444h10.478v1.352H255.29v-1.352h10.894a17.221 17.221 0 0 0-.936-2.184l1.534-.26zm7.254 23.79h-2.21l-.338-1.274 2.106.052c1.17 0 1.768-.468 1.768-1.404v-7.462h-17.264v10.14h-1.326v-11.414h19.916v9.022c0 1.56-.884 2.34-2.652 2.34zm-14.352-17.992h14.118v4.784h-14.118v-4.784zm12.766 3.64v-2.496h-11.414v2.496h11.414zm-10.66 6.214h9.932v5.018h-9.932v-5.018zm8.632 3.9v-2.756h-7.358v2.756h7.358zm25.706-13.416h8.866c.13-.858.234-1.716.338-2.574l1.378.182a55.128 55.128 0 0 1-.286 2.392h8.45v1.352h-8.684c-.208.988-.416 1.95-.65 2.834h6.786v8.71h-1.378v-7.358h-10.686v7.514h-1.378v-8.866h5.2c.26-.936.468-1.872.676-2.834h-8.632v-1.352zm16.874-5.72l.676 1.248c-5.278.884-11.206 1.404-17.784 1.508v6.786c-.13 5.668-1.248 10.218-3.38 13.598l-.988-1.04c1.846-3.016 2.834-7.202 2.99-12.558v-8.008c6.812-.078 12.974-.598 18.486-1.534zm-6.006 18.174a39.598 39.598 0 0 1 7.904 4.03l-.78 1.222c-2.548-1.768-5.174-3.172-7.852-4.186l.728-1.066zm-1.612-5.746l1.352.078c-.312 3.068-1.248 5.434-2.808 7.072-1.586 1.612-4.03 2.912-7.306 3.848l-.728-1.274c3.12-.832 5.408-1.976 6.864-3.432 1.43-1.456 2.314-3.536 2.626-6.292zm25.966-1.846h17.732v6.526h-8.216v1.69h8.996v1.014h-8.996v1.768h10.92v1.144h-23.192v-1.144h10.868v-1.768h-8.892v-1.014h8.892v-1.69h-8.112v-6.526zm16.406 5.59v-1.846h-6.89v1.846h6.89zm-8.294 0v-1.846h-6.786v1.846h6.786zm-6.786-2.73h6.786v-1.924h-6.786v1.924zm8.19-1.924v1.924h6.89v-1.924h-6.89zm-8.944-11.336h16.614v6.292h-16.614v-6.292zm15.262 5.356v-1.768h-13.91v1.768h13.91zm-13.91-2.678h13.91v-1.742h-13.91v1.742zm-4.68 5.148h23.192v1.092h-23.192v-1.092zm42.112 1.274h12.532v5.044h-12.532v-5.044zm11.206 3.926v-2.808h-9.88v2.808h9.88zm3.822 3.146v7.098h-1.378v-1.092h-14.612v1.092h-1.378v-7.098h17.368zm-15.99 4.784h14.612v-3.536h-14.612v3.536zm-3.926-19.5h6.006v-1.872h1.404v1.872h7.384v-1.872h1.404v1.872h6.006v1.274h-6.006v1.69h-1.404v-1.69h-7.384v1.69h-1.404v-1.69h-6.006v-1.274zm21.372 4.238v4.654h-1.378v-3.406h-17.784v3.536h-1.378v-4.784h20.54zm30.698-6.084h1.378v7.358h4.966v13.988c0 1.404-.676 2.132-2.002 2.132h-2.678l-.39-1.352 2.6.078c.702 0 1.066-.39 1.066-1.17v-3.328H414.3v5.902h-1.404v-16.25h4.992v-7.358zm-3.588 13.208v3.25h8.528v-3.25H414.3zm8.528-1.248v-3.25H414.3v3.25h8.528zm-9.412-10.972c.884 1.352 1.69 2.834 2.47 4.42l-1.144.572a33.08 33.08 0 0 0-2.496-4.394l1.17-.598zm10.296-.208l1.196.572c-.65 1.612-1.508 3.146-2.548 4.654l-1.144-.598c1.04-1.56 1.872-3.094 2.496-4.628zm-18.33-.806l1.352.286c-.26.962-.52 1.872-.806 2.756h5.044v1.352h-5.538a27.369 27.369 0 0 1-2.496 5.018l-1.144-.728c1.612-2.548 2.808-5.46 3.588-8.684zm-.988 8.294h6.084v1.274h-2.834v3.718h3.718v1.326h-3.718v6.682a20.008 20.008 0 0 0 3.744-1.742l.26 1.274c-1.586.884-3.406 1.638-5.46 2.21l-.598-1.222c.416-.156.65-.364.65-.65v-6.552h-3.718v-1.326h3.718v-3.718h-1.846v-1.274z"/>
    </g>
</svg>
