<svg xmlns="http://www.w3.org/2000/svg" width="370" height="110" viewBox="0 0 370 110">
    <g fill="none" fill-rule="evenodd">
        <path d="M0 0h370v110H0z"/>
        <g fill-rule="nonzero">
            <g fill="#3E3A39">
                <path d="M168.442 41.127V40.11h-3.481v1.018h-10.01V57.71h10.01v2.036h3.481V57.71h7.98c1.015 0 1.885-.873 1.885-1.89V41.272h-9.865v-.146zm-3.336 14.546h-6.529V43.018h6.529v12.655zm10.01 0h-6.529V43.018h6.528v12.655zM148.277 45.927H133.19c-1.015 0-1.886.873-1.886 1.891v7.71h3.192v-7.564h12.476v7.854h3.191v-7.854c0-1.164-.87-2.037-1.886-2.037zM149.293 45.782h3.192V43.89c0-1.018-.87-1.891-1.886-1.891h-1.741l.435-1.89h-3.482l-.435 1.89H142.33v-1.89h-3.192V42H135.947l-.436-1.89h-3.481l.435 1.89h-1.741c-1.016 0-1.886.873-1.886 1.89v1.892H132.029V43.89h17.118v1.89h.146z"/>
                <path d="M144.506 57.71v-4.8h-2.757c.436-1.746.436-3.055.436-3.055h-3.047v.581c0 1.164-.29 3.637-2.321 5.382-1.306 1.164-3.192 1.746-4.642 1.891h-2.612V59.6c1.451.145 6.529.436 9.575-2.182 1.16-1.018 1.886-2.182 2.466-3.345v3.636c0 1.018.87 1.891 1.886 1.891h9.43v-1.89h-8.414z"/>
                <g>
                    <path d="M102.87 48.109h2.466V59.6h-2.466z"/>
                    <path d="M107.948 44.327h-5.078v1.891h3.917v13.237h3.192V46.218c0-1.018-.87-1.89-2.031-1.89zM122.745 57.71v-4.8h3.192V42.144c0-1.018-.87-1.89-1.886-1.89H111.43v12.654h3.191V42.145h8.27v8.728h-2.902v-6.546h-3.047v5.818s0 1.019-.29 1.891c-.29.873-.725 1.746-.87 1.891-1.886 3.491-5.368 5.528-5.368 5.528h4.497s3.337-2.328 4.788-7.273v5.382c0 1.018.87 1.89 1.886 1.89H126.517v-1.89l-3.772.145zM107.948 40.11h-5.078v2.472h7.109V42c0-1.018-.87-1.89-2.031-1.89z"/>
                </g>
                <g>
                    <path d="M185.27 54.364v1.89h14.798v-3.636h-1.886v1.746h-3.772v-3.637h5.222v-1.89h-5.222V45.2h5.222v-1.89h-13.926v1.89h5.367v3.636h-5.367v1.891h5.367v3.637z"/>
                    <path d="M201.083 40.11h-20.02V59.6h21.326c1.015 0 1.886-.873 1.886-1.89v-17.6h-3.192zm0 17.6h-16.828V42.144h16.828V57.71z"/>
                </g>
            </g>
            <path fill="#93252A" d="M231.23 34.54l12.003-13.105h24.874v24.899l-20.246 4.222h-16.63z"/>
            <path fill="#DF2422" d="M243.233 21.435h24.874V46.48h-24.874z"/>
            <path fill="#93252A" d="M215.757 34.248V23.473l-4.773-17.182h-13.16v20.094l10.557 7.863z"/>
            <path fill="#DF2422" d="M197.824 6.291h13.16v20.094h-13.16z"/>
            <path fill="#93252A" d="M232.098 86.376l-2.314-8.445h-11.858l-1.302 8.445v15.726h15.474z"/>
            <path fill="#DF2422" d="M216.624 86.376h15.474v15.58h-15.474z"/>
            <g>
                <path fill="#93252A" d="M202.886 66.573l-25.308 6.407v15.58h15.619l16.052-12.813v-9.174z"/>
                <path fill="#DF2422" d="M177.578 72.98h15.474v15.58h-15.474z"/>
            </g>
            <g transform="translate(234.846 61.331)">
                <path fill="#93252A" d="M1.302 6.116l14.172 16.017 9.689-17.328L4.773.291c-3.471-.728-5.785 3.35-3.471 5.825z"/>
                <ellipse cx="22.704" cy="14.998" fill="#DF2422" rx="10.268" ry="10.338"/>
            </g>
        </g>
    </g>
</svg>
