<?xml version="1.0" encoding="UTF-8"?>
<svg width="490px" height="193px" viewBox="0 0 490 193" version="1.1" xmlns="http://www.w3.org/2000/svg" xmlns:xlink="http://www.w3.org/1999/xlink">
    <!-- Generator: Sketch 46.2 (44496) - http://www.bohemiancoding.com/sketch -->
    <title>em-banner-title</title>
    <desc>Created with Sketch.</desc>
    <defs></defs>
    <g id="从这里开始" stroke="none" stroke-width="1" fill="none" fill-rule="evenodd">
        <g id="发布需求-home" transform="translate(-135.000000, -157.000000)" fill="#FFFFFF">
            <g id="homeGRP">
                <g id="headGRP">
                    <g id="KV">
                        <g id="banner-copy-2">
                            <g id="Bitmap">
                                <g id="Group-9" transform="translate(133.000000, 157.000000)">
                                    <g id="museLOGO" transform="translate(3.000000, 20.000000)">
                                        <rect id="Rectangle-16" opacity="0.699999988" x="0" y="62" width="175" height="2"></rect>
                                        <g id="muse">
                                            <path d="M10.7263151,11.5225847 L14.858584,11.5225847 L14.858584,8.00121248 L25.0573753,8.00121248 L25.0573753,11.6986533 L29.2336046,11.6986533 L29.2336046,8.00121248 L39.0367532,8.00121248 L39.0367532,4.08368589 L29.2336046,4.08368589 L29.2336046,0.078125 L25.0573753,0.078125 L25.0573753,4.08368589 L14.858584,4.08368589 L14.858584,0.078125 L10.7263151,0.078125 L10.7263151,4.08368589 L0.615444306,4.08368589 L0.615444306,8.00121248 L10.7263151,8.00121248 L10.7263151,11.5225847 Z M11.0779975,12.2268591 C8.61622029,17.3328489 4.39603076,22.3067871 -7.10542736e-15,25.4320049 C1.01108707,26.0922622 2.63761846,27.5008111 3.38494369,28.2931199 C4.65979261,27.2367082 5.97860183,26.0482451 7.25345075,24.6396962 L7.25345075,40.441854 L11.42968,40.441854 L11.42968,19.5777236 C12.7924495,17.6409689 14.1112587,15.5281456 15.1223458,13.4593394 L11.0779975,12.2268591 Z M27.1674701,35.820053 C25.1452959,35.820053 24.7936135,35.4238986 24.7936135,33.6191953 L24.7936135,26.1362794 C29.585287,23.8473875 34.2011193,21.3824269 37.8498248,18.829432 L34.9924049,15.4841284 C32.3108261,17.6409689 28.7060809,19.7978094 24.7936135,21.9106327 L24.7936135,12.6230135 L20.6173843,12.6230135 L20.6173843,24.0674732 C18.3754086,25.167902 16.0894726,26.1802965 13.8474969,27.1046568 C14.4629412,27.9409827 15.2102664,29.2614972 15.4740283,30.2738917 C17.1884803,29.5696173 18.9029323,28.8213257 20.6173843,28.0730341 L20.6173843,33.6191953 C20.6173843,38.3730478 21.8922332,39.7375796 26.6839067,39.7375796 L34.0692384,39.7375796 C38.4213088,39.7375796 39.5642768,37.6687734 40.0918005,30.8901319 C38.9048722,30.5820118 37.1904202,29.9217545 36.2232935,29.1734629 C36.0034919,34.7196242 35.6518095,35.820053 33.8054765,35.820053 L27.1674701,35.820053 Z M70.7321349,5.71232054 L70.7321349,9.05762415 L83.4366638,9.05762415 L83.4366638,5.71232054 L79.5241965,5.71232054 C78.9966728,4.08368589 78.1174666,1.97086257 77.2822208,0.298210763 L73.9851977,1.17855382 C74.6446023,2.54308555 75.3040069,4.25975451 75.8315306,5.71232054 L70.7321349,5.71232054 Z M75.9634115,16.5845573 C75.8754909,14.6037854 75.3040069,11.6986533 74.5127214,9.45377852 L71.743222,10.158053 C72.5345075,12.4469449 73.0620312,15.4401113 73.1059915,17.3328489 L75.9634115,16.5845573 Z M56.3571143,5.71232054 L52.444647,5.71232054 C51.873163,4.08368589 50.9939568,2.05889687 50.1147507,0.386245069 L46.8177276,1.31060528 C47.4771322,2.63111986 48.1804971,4.30377166 48.6640605,5.71232054 L44.0482282,5.71232054 L44.0482282,9.05762415 L56.3571143,9.05762415 L56.3571143,5.71232054 Z M49.1476239,16.5405401 C49.1036636,14.6478025 48.5761399,11.7866876 47.8288147,9.62984713 L45.0593153,10.2901044 C45.8066405,12.5349792 46.2902039,15.4401113 46.2462436,17.2888317 L49.1476239,16.5405401 Z M55.9614716,28.5132056 L55.9614716,25.167902 L52.1369248,25.167902 L52.1369248,20.8102039 L56.4889953,20.8102039 L56.4889953,17.4649003 L53.455734,17.4649003 C54.159099,15.3080598 54.9064242,12.5349792 55.5658288,10.1140358 L52.444647,9.45377852 C52.1369248,11.7866876 51.3456393,15.1760084 50.6862347,17.4649003 L43.7405061,17.4649003 L43.7405061,20.8102039 L48.5321796,20.8102039 L48.5321796,25.167902 L44.2240694,25.167902 L44.2240694,28.5132056 L48.4882193,28.5132056 C48.2684177,31.7704749 47.3892116,35.5999672 44.1361488,37.9328763 C44.9713947,38.5050993 46.0704024,39.7815967 46.5979261,40.5298883 C50.5103934,37.4046705 51.7852424,32.650818 52.0490042,28.5132056 L55.9614716,28.5132056 Z M68.3582783,0.298210763 C65.8085805,1.57470819 61.4125497,2.93923992 57.5000823,3.73154867 L57.456122,3.73154867 L57.456122,12.0507905 C57.456122,19.3576379 57.1483999,30.3619261 53.9392974,38.417065 C54.598702,38.6811679 55.9175113,39.561511 56.4010747,40.1337339 C59.7860183,31.6824406 60.313542,19.6657579 60.313542,12.0507905 L60.313542,6.02044061 C60.9289863,5.88838916 61.5444306,5.7563377 62.159875,5.66830339 L62.159875,11.9627562 C62.159875,19.3136207 62.159875,29.5256001 58.5111694,36.9204818 C59.0826534,37.3606533 60.313542,38.4610821 60.7091848,39.0773223 C61.2367085,38.6371508 62.159875,38.1969792 66.3361042,37.0525333 C66.4679851,37.9768935 66.5559057,38.7692022 66.6438263,39.5174938 L68.8418417,39.0333051 C68.5341196,36.0401387 67.6549134,31.6384235 66.8196676,28.1610684 L64.7095728,28.6012399 C65.1052156,30.2298746 65.5008583,32.078595 65.8085805,33.9273154 L62.4236368,34.7196242 C64.7974934,27.1486739 64.885414,18.3452434 64.885414,11.9627562 L64.885414,4.96402895 C65.456898,4.83197749 65.9404614,4.65590888 66.5119454,4.47984027 C66.8196676,19.4456722 67.5230325,32.9589381 70.9079762,40.3978369 C71.4354999,39.561511 72.4905472,38.5050993 73.1939122,37.9768935 C69.9848097,31.506372 69.3254051,17.8170375 69.0616432,3.64351437 C69.8089685,3.4234286 70.5123334,3.15932569 71.2156983,2.85120562 L68.3582783,0.298210763 Z M84.0521081,20.8542211 L84.0521081,17.5089175 L80.7550851,17.5089175 C81.4144897,15.3080598 82.1618149,12.4469449 82.7772592,9.98198436 L79.6121171,9.32172706 C79.3043949,11.6986533 78.5131094,15.1760084 77.8537048,17.5089175 L70.5562937,17.5089175 L70.5562937,20.8542211 L75.2600466,20.8542211 L75.2600466,26.0482451 L71.3915395,26.0482451 L71.3915395,29.3935487 L75.2600466,29.3935487 L75.2600466,40.441854 L78.9527125,40.441854 L78.9527125,29.3935487 L83.4806241,29.3935487 L83.4806241,26.0482451 L78.9527125,26.0482451 L78.9527125,20.8542211 L84.0521081,20.8542211 Z" id="花瓣"></path>
                                            <path d="M131.694368,27.5448283 L131.694368,25.5640564 L112.747476,25.5640564 C113.055198,24.3315761 113.274999,22.9230272 113.450841,21.5144784 L132.00209,21.5144784 L132.00209,19.5777236 L113.538761,19.5777236 L113.538761,14.9999398 L128.001702,14.9999398 L128.001702,13.1072022 L113.538761,13.1072022 L113.538761,8.70548693 L130.067837,8.70548693 L130.067837,6.72471506 L120.132807,6.72471506 C121.407656,5.0080461 122.902307,2.85120562 124.045275,0.958468054 L121.97914,0.078125 C121.012014,2.05889687 119.209641,4.83197749 117.802911,6.72471506 L105.230263,6.72471506 L106.768874,5.93240631 C106.021549,4.30377166 104.307097,1.88282826 102.636605,0.078125 L100.834232,0.914450901 C102.416803,2.67513701 103.999374,5.05206325 104.79066,6.72471506 L95.075432,6.72471506 L95.075432,8.70548693 L111.384706,8.70548693 L111.384706,13.1072022 L97.361368,13.1072022 L97.361368,14.9999398 L111.384706,14.9999398 L111.384706,19.5777236 L93.2730594,19.5777236 L93.2730594,21.5144784 L111.252825,21.5144784 C111.076984,22.9670444 110.813222,24.3315761 110.5055,25.5640564 L94.2841465,25.5640564 L94.2841465,27.5448283 L109.890056,27.5448283 C107.867882,32.9589381 103.42789,36.3042417 92.7455357,37.9768935 C93.0972182,38.4610821 93.6247419,39.3854424 93.8445434,39.869631 C105.318184,37.9328763 110.065897,34.0153497 112.219952,27.5448283 L112.307873,27.5448283 C115.604896,34.2794526 122.067061,38.2409964 130.903083,39.8256139 C131.166845,39.2533909 131.738329,38.3730478 132.221892,37.8888592 C123.913394,36.6123617 117.71499,33.223041 114.549848,27.5448283 L131.694368,27.5448283 Z M169.368352,10.7742931 L157.411148,10.7742931 L157.411148,4.12770305 L169.368352,4.12770305 L169.368352,10.7742931 Z M169.368352,19.401655 L157.411148,19.401655 L157.411148,12.6670307 L169.368352,12.6670307 L169.368352,19.401655 Z M143.211969,12.6670307 L155.388974,12.6670307 L155.388974,19.401655 L143.211969,19.401655 L143.211969,12.6670307 Z M143.211969,4.12770305 L155.388974,4.12770305 L155.388974,10.7742931 L143.211969,10.7742931 L143.211969,4.12770305 Z M171.434486,2.14693118 L141.145834,2.14693118 L141.145834,21.3384097 L171.434486,21.3384097 L171.434486,2.14693118 Z M162.158861,29.2174801 C160.092727,27.2367082 156.048379,24.595679 152.619475,22.8349929 L151.212745,24.1555075 C154.641649,25.9602108 158.685997,28.7773086 160.708171,30.7140633 L162.158861,29.2174801 Z M138.903859,37.9768935 C141.145834,35.1157785 142.728405,30.4499604 143.783453,26.9726053 L141.93712,26.312348 C140.969993,29.6576516 139.299501,34.1914183 137.013565,36.964499 L138.903859,37.9768935 Z M152.575514,37.0965504 C149.893936,37.0965504 149.410372,36.8324475 149.410372,35.6439844 L149.410372,26.0042279 L147.300277,26.0042279 L147.300277,35.6439844 C147.300277,38.417065 148.443245,39.0773223 152.575514,39.0773223 L162.334703,39.0773223 C166.071329,39.0773223 166.818654,37.7127905 167.170336,31.8585092 C166.554892,31.7264578 165.719646,31.4183377 165.148162,31.0221833 C164.928361,36.3042417 164.576678,37.0965504 162.246782,37.0965504 L152.575514,37.0965504 Z M167.390138,26.4884166 C170.027756,29.8777374 172.709335,34.5435556 173.764383,37.5367219 L175.786557,36.6123617 C174.687549,33.6632125 171.91805,29.0854286 169.280431,25.6961079 L167.390138,26.4884166 Z" id="美思"></path>
                                        </g>
                                    </g>
                                    <path d="M19.016,123.032 L19.016,128.7 L39.66,128.7 L39.66,123.032 L19.016,123.032 Z M39.66,131.976 L19.016,131.976 L19.016,137.488 L39.66,137.488 L39.66,131.976 Z M39.66,140.764 L19.016,140.764 L19.016,151.892 L15.48,151.892 L15.48,124.696 C12.568,128.336 9.188,131.716 5.444,134.732 L3,131.56 C9.552,126.36 14.596,120.432 18.184,113.724 L4.404,113.724 L4.404,110.084 L19.9,110.084 C20.784,108.056 21.564,106.028 22.188,104 L25.984,104.468 C25.36,106.392 24.736,108.264 24.008,110.084 L49.852,110.084 L49.852,113.724 L22.448,113.724 C21.408,115.804 20.316,117.832 19.068,119.756 L43.196,119.756 L43.196,147.836 C43.196,150.384 41.74,151.684 38.828,151.788 L33.004,151.788 L32.068,148.356 C34.044,148.46 35.916,148.564 37.632,148.564 C38.984,148.564 39.66,147.94 39.66,146.692 L39.66,140.764 Z M67.464,106.496 L96.116,106.496 L96.116,123.5 L67.464,123.5 L67.464,106.496 Z M92.372,119.964 L92.372,110.032 L71.208,110.032 L71.208,119.964 L92.372,119.964 Z M78.852,128.648 L78.852,151.216 L75.212,151.216 L75.212,148.564 L64.24,148.564 L64.24,151.216 L60.548,151.216 L60.548,128.648 L78.852,128.648 Z M64.24,145.028 L75.212,145.028 L75.212,132.236 L64.24,132.236 L64.24,145.028 Z M103.032,128.648 L103.032,151.216 L99.288,151.216 L99.288,148.564 L87.9,148.564 L87.9,151.216 L84.208,151.216 L84.208,128.648 L103.032,128.648 Z M87.9,145.028 L99.288,145.028 L99.288,132.236 L87.9,132.236 L87.9,145.028 Z M122.1,119.496 L122.1,124.072 C121.84,135.512 119.604,144.664 115.34,151.528 L112.74,148.772 C116.276,142.844 118.2,134.576 118.512,124.072 L118.512,107.796 C132.24,107.692 144.616,106.6 155.588,104.624 L157.46,108.004 C146.956,109.772 135.152,110.76 122.1,110.968 L122.1,116.064 L139.468,116.064 C139.728,114.504 139.936,112.892 140.092,111.332 L143.836,111.8 C143.68,113.256 143.472,114.712 143.264,116.064 L159.748,116.064 L159.748,119.496 L142.692,119.496 C142.38,121.264 142.016,122.876 141.6,124.436 L154.964,124.436 L154.964,142.116 L151.376,142.116 L151.376,127.868 L130.836,127.868 L130.836,142.324 L127.248,142.324 L127.248,124.436 L137.804,124.436 C138.22,122.772 138.584,121.16 138.896,119.496 L122.1,119.496 Z M144.096,140.92 C149.868,143.104 155.12,145.704 159.852,148.772 L157.772,151.944 C152.728,148.512 147.528,145.756 142.224,143.728 L144.096,140.92 Z M140.248,129.948 L143.888,130.208 C143.264,136.344 141.392,141.076 138.272,144.3 C135.048,147.524 130.108,150.124 123.504,151.996 L121.476,148.564 C127.612,147.004 132.136,144.872 135.048,142.064 C137.96,139.256 139.676,135.2 140.248,129.948 Z M185.992,114.192 L185.992,148.564 L184.224,148.564 L184.224,145.132 L172.68,145.132 L172.68,150.02 L170.912,150.02 L170.912,114.192 L175.488,114.192 C176.632,111.176 177.464,107.952 177.984,104.572 L179.752,104.832 C179.18,108.212 178.348,111.332 177.204,114.192 L185.992,114.192 Z M172.68,143.468 L184.224,143.468 L184.224,130.208 L172.68,130.208 L172.68,143.468 Z M172.68,128.544 L184.224,128.544 L184.224,115.96 L172.68,115.96 L172.68,128.544 Z M194.572,125.58 C198.732,130 201.956,133.848 204.14,137.176 L202.736,138.216 C200.448,134.68 197.224,130.78 193.168,126.516 L194.572,125.58 Z M212.98,114.296 C212.98,130.52 212.72,140.556 212.252,144.404 C211.784,148.772 209.444,151.008 205.18,151.008 C204.244,151.008 202.58,150.956 200.292,150.956 L199.824,149.292 C201.852,149.292 203.62,149.344 205.076,149.344 C208.248,149.344 210.068,147.576 210.536,144.144 C210.952,140.712 211.16,131.352 211.264,116.064 L194.832,116.064 C193.376,119.548 191.608,122.668 189.528,125.476 L188.488,124.072 C192.388,118.768 195.04,112.216 196.444,104.52 L198.16,104.728 C197.536,108.16 196.652,111.332 195.56,114.296 L212.98,114.296 Z M228.46,105.924 L227.212,107.12 C230.644,109.928 233.348,112.58 235.376,115.076 L236.624,113.828 C234.44,111.228 231.684,108.576 228.46,105.924 Z M223.468,121.212 L233.088,121.212 L233.088,146.068 C235.324,144.404 237.768,142.272 240.472,139.672 L240.94,141.596 C237.924,144.508 234.648,147.16 231.164,149.448 L230.436,147.888 C231.008,147.316 231.32,146.796 231.32,146.276 L231.32,122.98 L223.468,122.98 L223.468,121.212 Z M241.824,127.14 L265.796,127.14 L265.796,128.856 C263.924,134.264 260.804,138.788 256.54,142.532 C260.44,145.444 265.224,147.992 270.84,150.124 L269.852,151.632 C264.028,149.344 259.14,146.64 255.292,143.624 C251.028,147.004 245.724,149.708 239.38,151.684 L238.392,150.176 C244.58,148.2 249.728,145.652 253.888,142.48 C249.26,138.528 246.14,134.004 244.528,128.908 L241.824,128.908 L241.824,127.14 Z M246.244,128.908 C247.804,133.64 250.768,137.8 255.136,141.44 C259.244,137.904 262.208,133.744 264.028,128.908 L246.244,128.908 Z M246.348,107.12 L262.364,107.12 L262.364,118.924 C262.364,120.38 263.04,121.108 264.496,121.108 L269.644,121.108 L269.644,122.772 L264.236,122.772 C261.74,122.772 260.544,121.524 260.544,119.132 L260.544,108.836 L248.168,108.836 L248.168,111.176 C248.168,116.844 245.568,121.212 240.472,124.28 L239.276,122.928 C243.956,120.224 246.348,116.376 246.348,111.384 L246.348,107.12 Z M294.692,120.9 L309.512,120.9 L309.512,104.52 L311.384,104.52 L311.384,120.9 L325.476,120.9 L325.476,122.668 L311.384,122.668 L311.384,151.84 L309.512,151.84 L309.512,122.668 L294.692,122.668 L294.692,120.9 Z M283.304,105.248 L282.056,106.444 C285.956,109.46 289.128,112.32 291.52,115.024 L292.716,113.776 C290.168,110.916 287.048,108.056 283.304,105.248 Z M278.468,121.108 L288.452,121.108 L288.452,145.912 C290.792,144.092 293.34,141.856 296.044,139.256 L296.46,141.128 C293.392,144.196 290.116,146.9 286.58,149.292 L285.852,147.732 C286.424,147.212 286.736,146.692 286.736,146.224 L286.736,122.876 L278.468,122.876 L278.468,121.108 Z M339.396,121.212 L339.396,131.612 L349.64,131.612 L349.64,121.212 L339.396,121.212 Z M349.64,119.6 L349.64,109.096 L339.396,109.096 L339.396,119.6 L349.64,119.6 Z M339.344,133.328 C339.136,140.816 337.992,147.004 335.912,151.788 L334.56,150.54 C336.64,145.548 337.732,139.152 337.784,131.456 L337.784,107.38 L351.356,107.38 L351.356,147.836 C351.356,150.332 350.108,151.632 347.664,151.632 L343.504,151.632 L343.088,149.968 C344.544,150.02 345.896,150.072 347.144,150.072 C348.808,150.072 349.64,149.084 349.64,147.212 L349.64,133.328 L339.344,133.328 Z M358.74,128.18 L358.74,151.788 L357.024,151.788 L357.024,107.328 L376.784,107.328 C376.784,113.204 376.472,117.104 375.848,118.976 C375.328,121.004 373.404,122.044 370.128,122.044 L366.228,122.044 L365.76,120.432 C366.644,120.432 367.84,120.484 369.296,120.484 C370.752,120.484 371.844,120.328 372.572,120.12 C373.3,119.912 373.82,119.34 374.184,118.456 C374.704,116.896 374.964,113.776 375.016,109.044 L358.74,109.044 L358.74,126.568 L376.68,126.568 L376.68,128.128 C375.484,134.004 373.508,138.892 370.752,142.844 C373.456,145.548 376.68,147.94 380.476,150.02 L379.592,151.528 C375.64,149.344 372.364,146.9 369.712,144.196 C367.268,147.264 364.356,149.708 360.924,151.58 L359.988,150.124 C363.368,148.252 366.228,145.86 368.568,142.948 C364.72,138.684 362.172,133.744 360.924,128.18 L358.74,128.18 Z M362.536,128.18 C363.732,133.224 366.072,137.696 369.556,141.596 C372.104,137.852 373.924,133.38 375.016,128.18 L362.536,128.18 Z M404.796,104.468 L406.616,104.676 C405.888,106.34 405.056,107.9 404.12,109.356 L427.52,109.356 L427.52,110.812 C423.88,115.024 419.408,118.56 414.052,121.368 C420.292,124.436 427.364,126.412 435.32,127.348 L434.488,129.064 C426.116,128.024 418.68,125.788 412.128,122.356 C405.576,125.476 397.932,127.712 389.144,129.064 L388.364,127.4 C396.788,126.204 404.068,124.176 410.308,121.368 C406.616,119.288 403.236,116.792 400.22,113.984 C398.036,116.064 395.54,117.988 392.628,119.704 L391.536,118.3 C398.088,114.556 402.508,109.928 404.796,104.468 Z M412.232,120.484 C417.276,117.936 421.54,114.764 425.076,111.02 L402.924,111.02 C402.404,111.644 401.936,112.216 401.468,112.736 C404.692,115.752 408.28,118.352 412.232,120.484 Z M409.84,127.088 L411.556,127.088 C411.556,129.584 411.296,131.872 410.88,133.952 L429.756,133.952 C429.652,142.22 428.872,147.16 427.312,148.772 C425.752,150.436 423.1,151.268 419.304,151.268 C417.848,151.268 416.028,151.216 413.896,151.164 L413.428,149.5 C415.612,149.552 417.432,149.604 418.888,149.656 C422.736,149.604 425.18,148.824 426.168,147.316 C427.104,145.756 427.728,141.856 427.936,135.564 L410.464,135.564 C409.996,137.228 409.372,138.788 408.644,140.192 C405.784,144.924 399.648,148.772 390.288,151.736 L389.092,150.28 C397.724,147.68 403.496,144.352 406.512,140.192 C407.396,138.736 408.124,137.228 408.644,135.564 L391.848,135.564 L391.848,133.952 L409.06,133.952 C409.58,131.82 409.84,129.532 409.84,127.088 Z" id="有品质的设计服务"></path>
                                </g>
                            </g>
                        </g>
                    </g>
                </g>
            </g>
        </g>
    </g>
</svg>