<?xml version="1.0" encoding="UTF-8"?>
<svg width="220px" height="150px" viewBox="0 0 220 150" version="1.1" xmlns="http://www.w3.org/2000/svg" xmlns:xlink="http://www.w3.org/1999/xlink">
    <!-- Generator: sketchtool 41.1 (35376) - http://www.bohemiancoding.com/sketch -->
    <title>5C2DFDE9-A9A8-4E99-90E9-AA19201D0CD2</title>
    <desc>Created with sketchtool.</desc>
    <defs></defs>
    <g id="newHome" stroke="none" stroke-width="1" fill="none" fill-rule="evenodd">
        <g id="Muse3.0-新首页" transform="translate(-610.000000, -1963.000000)" fill="#222222">
            <g id="item" transform="translate(0.000000, 1780.000000)">
                <g id="Group-5" transform="translate(130.000000, 60.000000)">
                    <g id="logo-cgworld" transform="translate(480.000000, 123.000000)">
                        <path d="M63.0354051,65.8663625 C60.3634994,65.8492318 58.4378976,67.6350102 57.3889555,69.3789136 C56.5923388,70.7025443 56.6350283,72.2229875 56.1025529,73.6014364 C55.8456535,74.2668682 56.3205743,75.0152886 56.4082403,75.7165045 C56.5980561,77.2369477 57.4808141,78.1193682 58.7344373,78.7162773 C61.0621589,79.8252034 64.3972767,79.0185386 65.8620604,76.9198398 C67.3054994,74.8515955 68.1379448,72.5069761 67.8391182,69.9746807 C67.6664544,68.5109591 67.1118719,67.0247773 65.4763302,66.4503284 C64.6911482,66.1747148 63.8506985,66.0563227 63.0354051,65.8663625 Z M66.0880861,82.9498398 C64.5992895,84.169925 63.4146557,85.2750443 62.0344887,86.0192773 C61.0236621,86.5647943 59.7666086,86.7973909 58.6002702,86.8735273 C57.3954351,86.9519477 56.1334266,87.1879705 54.9362146,86.5644136 C54.5337135,86.354658 53.9246257,86.5705045 53.4813409,86.4033852 C49.7250454,84.9887716 47.439251,82.3456977 46.500463,78.3934591 C45.9214865,75.9567148 46.0545101,73.5173057 46.2405143,71.1270045 C46.4169897,68.8581409 47.4689812,66.7110955 48.7264158,64.7642886 C50.3181246,62.3008966 52.4796621,60.4808568 55.2277991,59.4046693 C56.5603216,58.8823739 57.895131,58.3440898 59.3698248,58.3642659 C60.3223345,58.3775898 61.2775122,58.3223909 62.2269726,58.3756864 C64.5813752,58.5081636 66.7162317,59.2261295 68.3803602,60.9742205 C69.055388,61.6834307 69.9865529,62.192783 70.3395036,63.457408 C71.3110711,61.9628511 71.1704244,60.2966068 71.8812809,58.8123284 L85.0365101,58.8123284 C85.0365101,59.7956295 85.1096921,60.8573511 85.0224073,61.9057489 C84.7975251,64.6028795 85.4717906,67.2459534 85.4275764,69.9316636 C85.3826,72.644783 85.4176664,75.359425 85.5537392,78.1113739 C86.2463002,76.1447716 87.5151696,74.4659648 88.0952895,72.4670045 C88.2077306,72.0779477 88.4253709,71.715158 88.618236,71.3531295 C90.3563088,68.0853568 91.5176921,64.5492034 93.3114137,61.3038909 C93.731448,60.5444307 93.9220261,59.6582034 94.2292381,58.7986239 L106.000107,58.7986239 C106.000107,60.1466182 106.066048,61.5258284 105.986005,62.896283 C105.83621,65.4632205 106.551641,67.9677261 106.410994,70.542658 C106.274159,73.0555386 106.381264,75.5817432 106.381264,78.43305 C107.418771,76.1078455 108.306866,74.1066011 109.204107,72.1091636 C109.780797,70.8251239 110.545015,69.5939989 110.907114,68.2536182 C111.282553,66.8652716 112.122621,65.7232261 112.551422,64.3527716 C113.159367,62.4101523 114.259765,60.6217091 115.141379,58.7849193 L124.735465,58.7849193 C124.613114,59.2242261 124.560896,59.6220386 124.396998,59.966175 C123.562647,61.715408 122.810245,63.5164136 121.821906,65.1761864 C120.129572,68.0168341 118.89272,71.0904591 117.23469,73.9333909 C115.686814,76.5863625 114.456823,79.3935102 112.960403,82.0658966 C112.098227,83.6053739 111.272643,85.1646466 110.361298,86.8434534 L99.1274779,86.8434534 C99.3668441,82.4751295 98.5069555,78.1897943 98.7390797,73.8564932 C98.8499961,71.7802545 98.7581375,69.6933568 98.7581375,67.1751466 C97.0353109,70.7234818 95.3647028,73.8309875 94.0001632,77.0671636 C92.607418,80.3695784 90.6940133,83.4253114 89.4853666,86.918067 C85.9756792,86.918067 82.4324501,86.926442 78.889221,86.9112148 C78.0922231,86.9077886 77.7629041,86.5925841 77.8078805,85.7748795 C77.9210839,83.7146295 77.1500047,81.717192 77.4133837,79.6523739 C76.8607071,78.4524648 77.0855893,77.136067 76.8153495,75.8767716 C76.6335379,76.6183398 76.3564373,77.3519136 76.2962146,78.1029989 C76.2325615,78.8951977 75.6528227,79.5849932 75.8887585,80.416783 C75.1912424,80.9798114 75.8597906,82.0244023 75.1264458,82.5752489 C75.0913794,84.8239364 74.2951439,86.8956068 73.5911482,88.9813625 C73.003024,90.7226011 72.1172167,92.3108057 71.0968612,93.8556125 C70.2583173,95.125567 69.1583002,95.9600216 67.8718976,96.6296409 C66.6636321,97.2581466 65.4332595,97.753033 64.059191,98.0419705 C63.137555,98.2361182 62.2029597,98.1101125 61.3503131,98.3682148 C59.3153195,98.9833966 57.2517392,98.5555102 55.2136964,98.7382375 C54.4376621,98.8075216 53.7942702,98.457675 53.0845572,98.3324307 C52.3729383,98.2068057 51.5595507,98.6891295 50.9458891,97.9803 C49.6552938,98.0236977 48.4664672,97.6015216 47.2684929,97.201425 C46.1921075,96.8420614 45.8887071,96.5835784 46.1894394,95.6988739 C46.5732638,94.5701523 46.7855679,93.4098341 47.0870625,92.2677886 C47.3451054,91.2905784 47.5722745,90.3053739 47.848994,89.1758909 C48.2808441,89.3643284 48.7435679,89.556192 49.1986685,89.7659477 C50.7797049,90.494192 52.3900904,91.0994761 54.1685657,91.1131807 C54.583645,91.1166068 54.9743302,91.1504875 55.410373,91.3256011 C56.0049769,91.5646693 56.8835422,91.6762091 57.3931482,91.3952659 C57.963358,91.0808227 58.4638163,91.1508682 58.9974351,91.1128 C60.491949,91.0073511 61.7894051,90.544442 62.893615,89.4568341 C64.2188955,88.1510955 65.2693623,86.7281068 65.5975379,84.8581977 C66.2355936,84.3869136 65.890266,83.702067 66.0880861,82.9498398 C66.126964,82.8211693 66.0530197,82.881317 65.9786942,82.9414648 C66.0354865,82.9981864 66.0922788,83.0545273 66.1486899,83.1112489 C66.207388,83.0362545 66.2729469,82.9646864 66.3179233,82.8820784 C66.3255465,82.8679932 66.2443602,82.8055614 66.0880861,82.9498398 Z" id="Fill-1"></path>
                        <path d="M45.6996916,67.1998909 C43.1078287,66.0243455 40.7846809,65.4061182 38.5491991,65.6208227 C35.7515118,65.8895841 33.6521028,66.7583 32.0260899,69.7740614 C31.3807923,70.9713057 31.141045,72.2542034 30.960758,73.5062659 C30.5799829,76.1493398 32.68206,79.1681466 35.2411435,80.0014591 C35.4690749,80.075692 35.730167,80.0558966 35.976394,80.0635102 C36.2935161,80.0726466 36.6121627,80.0459989 36.9277602,80.0692205 C39.2745396,80.2397659 41.5450878,79.9713852 43.876621,78.7227489 C43.715773,79.5016239 43.5655974,80.0437148 43.4977516,80.5953227 C43.3064111,82.1485045 42.6725482,83.6259307 42.716,85.2171807 C42.2326938,85.4844193 42.5075075,86.0744761 42.2772891,86.3516125 C42.052788,86.6218966 41.5435632,86.6820443 41.145636,86.7772148 C40.3341542,86.9713625 39.5200043,87.1795955 38.6944197,87.2858057 C37.6073619,87.4255159 36.5199229,87.2039591 35.4035161,87.613192 C34.7582184,87.8499761 33.8278158,87.9440045 33.0632163,87.3962034 C32.8066981,87.2127148 32.3394004,87.3253966 31.9692976,87.2983682 C29.3762912,87.1068852 27.1114604,86.1407148 25.1698501,84.4177489 C23.7858715,83.1892886 22.609242,81.8157886 21.9307837,80.0543739 C21.4794946,78.8822545 20.9908522,77.7333568 21.0003812,76.4462716 C21.0091478,75.3053682 21.0114347,74.1644648 21.0003812,73.023942 C20.9763683,70.5472261 21.9650878,68.3826693 23.1733533,66.321658 C23.8110278,65.2332886 24.5020642,64.0470841 25.4770621,63.3135102 C27.2185653,62.0028227 28.71003,60.1938227 31.0823469,59.889658 C34.1758116,58.1826807 37.5604797,58.3242943 40.9196103,58.3901523 C41.6232248,58.4042375 42.2864368,58.7963398 43.0472248,58.7773057 C43.6887109,58.7609364 44.3366767,59.00305 44.9823555,59.127533 C45.6848266,59.2634364 46.151743,59.8984136 46.9491221,59.9281068 C47.5437259,59.9509477 47.5151392,60.3137375 47.3188437,61.239175 C46.8908051,63.2552659 45.9634518,65.1133739 45.6996916,67.1998909" id="Fill-3"></path>
                        <path d="M173.885839,75.7996074 C173.708601,77.8944994 173.905659,79.7792551 174.971372,81.5406699 C175.807629,82.9229256 177.00103,83.9431528 178.481822,84.1963063 C181.129334,84.6493176 183.500126,83.9545733 185.537788,81.9696983 C187.278147,80.2749028 188.340811,78.2123688 189.370314,76.1182381 C189.855145,75.1311301 190.164644,73.9620563 190.191325,72.866454 C190.240875,70.8301869 190.423449,68.7840222 189.887162,66.7431869 C189.450738,65.0815108 187.933736,63.1217608 186.293621,62.5503574 C185.539312,62.2876869 184.780811,62.1925165 183.977334,62.147596 C181.608447,62.0147381 179.621098,62.6683688 178.112481,64.5656869 C177.877689,64.8618574 177.590678,65.1199597 177.308242,65.3738744 C175.870139,66.6647665 175.238944,68.4794767 174.689698,70.1776983 C174.105004,71.9878403 173.482576,73.9152324 173.885839,75.7996074 M191.710995,64.0281642 C192.635299,60.9377892 192.906301,58.0769653 193.62783,55.3204483 C194.337925,52.6069483 194.736233,49.8119824 195.282049,46.9998858 L198.988413,46.9998858 C198.866824,48.0490449 199.017,49.2580903 198.543985,50.1306131 C198.075162,50.9970449 198.672434,52.0321188 197.859047,52.7108744 C197.735552,55.0063858 197.087586,57.2223347 196.637441,59.4519881 C196.230747,61.4684597 196.116781,63.5919028 195.190952,65.4960733 C195.26604,67.1550847 194.714126,68.7314881 194.364987,70.303704 C193.916366,72.3270278 193.747895,74.4143063 193.022173,76.3930903 C192.746216,77.1445563 192.716867,78.0330676 192.537723,78.8553403 C192.344858,79.7396642 192.522096,80.8112835 192.076905,81.5071699 C191.532233,82.3583744 192.080717,83.3142665 191.43237,84.1289256 C191.123252,84.5179824 191.396922,85.3558631 191.374053,85.9893176 C191.35309,86.5633858 191.02377,86.8983858 190.449749,86.9120903 C189.512486,86.9345506 188.574079,86.9181813 187.47673,86.9181813 C187.603655,85.7213176 187.716858,84.6550278 187.849882,83.4003006 C187.214875,84.0345165 186.672109,84.5918347 186.112571,85.1320222 C184.959573,86.2462778 182.72676,87.1812324 181.107608,87.3114256 C180.518721,87.3590108 179.9447,87.5691472 179.3581,87.6715506 C179.105394,87.7160903 175.87052,86.9977438 175.673843,86.919704 C174.082897,86.2919597 172.842614,85.1792267 171.805107,83.8849085 C171.071,82.9689881 170.763025,81.7919199 170.407025,80.6666244 C170.205775,80.0305051 170.002618,79.4244597 170.00643,78.7285733 C170.010242,78.084079 169.727805,77.4433915 169.667963,76.7920449 C169.603929,76.1007267 169.543325,75.3774313 169.672156,74.7043858 C170.238173,71.7430619 170.739012,68.7786926 172.296798,66.0868915 C174.175137,62.8419597 176.633214,60.3328858 180.325094,59.3709028 C181.774631,58.9932665 183.304212,58.1652835 184.867715,59.1284085 C185.817937,58.948346 186.668297,59.365954 187.504173,59.6647892 C189.432443,60.355346 190.629274,61.8495222 191.710995,64.0281642" id="Fill-6"></path>
                        <path d="M132.936463,84.1840864 C133.377079,84.0607455 134.205713,84.2606034 135.096857,84.0177284 C137.528253,83.3561034 139.114244,81.638467 140.574073,79.879717 C141.510955,78.7513761 141.971773,77.1867739 142.482522,75.759217 C142.898745,74.595092 143.172034,73.3571148 143.330976,72.1286545 C143.584827,70.1639557 143.243692,68.2266659 142.570188,66.3799784 C142.158921,65.2527795 141.582994,64.0517284 140.555396,63.456342 C139.296437,62.726575 137.991358,61.8708023 136.34057,62.1517455 C135.424651,62.3074443 134.424116,62.0672341 133.542882,62.3043989 C130.47,63.1320011 128.516955,64.9802114 126.93973,67.9186943 C125.719268,70.1917455 125.461606,72.6677 125.088454,75.1208136 C124.925319,76.192433 125.088073,77.2865125 125.391473,78.3885864 C125.747092,79.6813818 126.24755,80.8786261 127.087238,81.8604045 C128.491799,83.5011432 130.258839,84.5164216 132.936463,84.1840864 M147.165028,71.3825182 C147.550758,73.129467 146.865058,75.0930239 146.335251,77.0017625 C145.904925,78.5530409 144.956227,79.9870693 144.094433,81.3845523 C143.191092,82.8501773 142.018655,84.1186091 140.502415,84.9998875 C139.179803,85.7677227 137.925799,86.7224727 136.347049,86.8991091 C135.739867,86.9672511 135.27257,87.4705125 134.599829,87.3140523 C134.055537,87.1876659 133.544788,87.5462682 133.039756,87.6231659 C132.422664,87.7171943 131.677503,87.967683 131.055837,87.4164557 C130.904899,87.2828364 130.591208,87.3159557 130.350317,87.3011091 C127.737109,87.1465523 125.552321,85.7898023 123.858081,83.6945295 C122.964651,82.5897909 122.213392,81.4995182 121.874925,80.1263989 C121.632891,79.1423364 121.216287,78.2020523 121.239919,77.1547966 C121.268124,75.8878875 121.244111,74.6198364 121.247161,73.3521659 C121.248685,72.7042455 122.091422,69.3827966 122.385675,68.6903364 C123.129692,66.9399614 124.035319,65.2706716 125.202039,63.7791602 C126.109953,62.618842 127.338039,61.779058 128.614531,61.0268307 C130.435315,59.95445 132.299169,59.0430977 134.490818,59.1283705 C135.462004,58.5885636 136.569263,58.505575 137.512625,58.8851148 C138.498296,59.2817852 139.539996,58.9814273 140.505465,59.477075 C141.519722,59.997467 142.518732,60.4531432 143.406064,61.2259273 C144.971854,62.5902909 145.668608,63.564075 146.423298,65.6662 C146.900505,66.9955409 147.251931,68.3130807 147.169221,69.7311205 C147.143302,70.1734727 147.165028,70.6181091 147.165028,71.3825182" id="Fill-9"></path>
                        <path d="M165.051855,86.8767631 L161.278789,86.8767631 C164.115735,73.5681267 166.940104,60.318496 169.778575,47.0037688 L173.402609,47.0037688 C173.71287,48.1229733 173.090442,49.1961153 172.923496,50.2875301 C172.692134,51.8034051 172.289251,53.3051949 171.937825,54.807746 C171.451089,56.8915983 171.189615,59.0245585 170.559564,61.0771949 C170.314862,61.8766267 170.385376,62.7217403 170.070922,63.5337347 C169.77362,64.3019506 170.009555,65.3335983 169.594476,65.9845642 C169.088301,66.7786665 169.668421,67.7440756 168.953371,68.3923767 C169.012832,69.9851494 168.391547,71.4667631 168.061466,72.9765472 C167.619324,74.9972063 167.466862,77.0871494 166.709123,79.0526097 C166.370275,79.931604 166.415633,80.9510699 166.214001,81.8905926 C165.853808,83.5659733 165.438729,85.2295528 165.051855,86.8767631" id="Fill-11"></path>
                        <path d="M155.136226,62.8549409 C156.343729,61.1635716 157.647665,60.2240489 159.159712,59.4173841 C159.897631,59.0233784 160.604676,59.3816 161.274749,58.9750318 C161.904419,58.5935886 162.607652,58.6130034 163.344427,59.0446966 C163.768654,59.2936625 164.429579,59.1406284 165.159113,59.1771739 C164.972346,60.4254295 164.79549,61.6070659 164.594239,62.948208 C163.81668,62.8008841 162.989571,63.1907023 162.163605,62.5907477 C161.91128,62.4080205 161.341451,62.6425205 160.92256,62.7163727 C160.693485,62.7563443 160.472415,62.9326 160.253631,62.9223216 C159.35029,62.8808273 158.621901,63.1781398 157.923241,63.7659125 C157.290522,64.2984864 156.649036,64.698583 156.165348,65.4816455 C154.479113,68.2141795 153.906997,69.472333 153.263605,72.4694409 C152.492526,73.2346114 153.061592,74.3176511 152.564946,75.2316682 C152.132333,76.0280545 152.397618,77.1758102 152.072873,78.0658443 C151.807588,78.7921852 152.035138,79.7111511 151.671515,80.1519807 C151.153143,80.7804864 151.641785,81.4950261 151.123412,82.0569125 C150.625241,82.5963386 151.354012,83.561367 150.595511,84.1095489 C150.770462,85.052117 150.351952,85.8987534 150.088573,86.8500773 L146.479023,86.8500773 C146.101678,85.7571398 146.77823,84.6763841 146.957374,83.5979125 C147.097258,82.7524182 147.291648,81.8498216 147.486419,80.9940489 C147.855759,79.3708216 148.054342,77.7125716 148.613879,76.124367 C148.870016,75.3961227 148.805982,74.5963102 148.995036,73.821242 C149.261083,72.7309693 149.544282,71.6106227 149.68531,70.4853273 C149.828243,69.3451852 150.055794,68.2058045 150.287918,67.1006852 C150.505558,66.0675148 150.693087,65.0061739 150.953036,63.9711 C151.219464,62.9124239 151.486273,61.8396625 151.388316,60.7082761 C151.357442,60.3496739 151.688667,59.9602364 151.871241,59.5468159 L155.102684,59.5468159 C155.102684,60.5582875 155.102684,61.5564352 155.136226,62.8549409 C155.169387,62.6676455 155.169387,62.6109239 155.169387,62.5542023 C155.070667,62.5896057 154.960132,62.6090205 154.88047,62.6695489 C154.856839,62.6874409 154.92011,62.8199182 154.943361,62.8998614 C155.01883,62.8412364 155.094299,62.782992 155.136226,62.8549409" id="Fill-13"></path>
                        <path d="M97.2011901,93.4524324 L92.2785563,93.4524324 C92.2785563,94.5807733 92.2743636,95.6478244 92.2796998,96.7144949 C92.285036,97.7666994 92.2549246,98.8215687 92.2983764,99.7983983 L97.2011901,99.7983983 L97.2011901,93.4524324 Z M97.2023336,101.449415 L92.2785563,101.449415 C92.2785563,103.657751 92.2781752,105.800989 92.2812244,107.943847 C92.2812244,107.998665 92.3109546,108.059574 92.3433529,108.106398 C92.3780381,108.156648 92.4317812,108.193574 92.4077683,108.170734 L97.2023336,108.170734 L97.2023336,101.449415 Z M92.2747448,109.825557 L92.2747448,111.982501 L90.8431216,111.982501 L90.8431216,91.9323699 L98.9484107,91.9323699 C99.236946,93.4813642 99.3192758,103.409546 99.097824,111.586972 L97.242355,111.586972 L97.242355,109.825557 L92.2747448,109.825557 Z" id="Fill-15"></path>
                        <path d="M128.132559,97.520208 L128.132559,89.6336227 L129.550079,89.6336227 C129.737989,92.0677023 129.927805,94.5261455 130.128675,97.1300091 C130.959976,97.1421909 131.915916,97.4908955 132.828024,96.8627705 C132.873762,96.8311739 132.943895,96.8109977 132.998019,96.8186114 C134.813467,97.0854693 136.551921,96.3024068 138.359364,96.4306966 C139.318734,96.498458 139.415167,96.5970545 139.476152,97.9743614 C137.679,97.7874466 135.97142,98.6238045 134.15864,98.3382932 C132.870332,98.921117 131.48864,98.6409352 130.182799,98.735725 C129.568756,99.4285659 130.45342,99.8648273 130.406537,100.45793 C130.356987,101.084913 130.211767,101.808208 130.451895,102.332026 C130.889463,103.287537 130.887176,104.304719 131.133784,105.278884 C131.574019,107.014793 132.375591,108.590435 133.272071,110.092225 C133.783964,110.94914 134.626319,111.629418 135.823531,111.688424 C136.801578,111.736009 137.302418,111.298225 137.613441,110.435219 C137.853951,109.768265 138.180221,109.082657 138.022803,108.319009 C137.98545,108.136662 137.949621,107.902163 138.030426,107.757503 C138.239681,107.381009 138.479809,107.028878 139.028675,107.084077 C139.540567,107.13585 139.882465,107.402708 139.906859,107.865617 C139.973942,109.146231 139.472722,110.361367 139.033248,111.489708 C138.713077,112.310839 137.829938,113.074106 136.8416,113.382458 C136.407081,113.5176 135.871557,113.564424 135.441994,113.441464 C133.070439,112.76385 131.277861,110.699793 130.349745,108.250867 C129.739514,106.640202 129.445642,104.960634 128.923458,103.335503 C128.504186,102.030145 128.564409,100.570611 128.411946,99.1811227 C126.67921,99.305225 124.976966,99.4270432 123.27434,99.5488614 C122.691171,100.183458 122.529561,99.4415091 122.422837,99.1944466 C122.286764,98.8807648 122.390058,98.4639182 122.390058,98.0916114 C124.274876,97.9039352 126.103664,97.7219693 128.132559,97.520208" id="Fill-17"></path>
                        <path d="M174.665647,112.804393 L174.665647,111.367699 L176.901891,111.367699 C177.830388,110.755563 178.162375,110.065387 178.062512,109.068001 C177.95655,108.00133 177.996572,106.913341 178.051458,105.839057 C178.100627,104.872506 177.856306,103.901006 178.374679,102.930648 C178.633484,102.446802 178.420036,101.710944 178.420036,101.048938 L175.518675,101.048938 C174.972478,102.64133 175.17754,104.333841 174.912255,105.944126 C174.698426,107.243773 174.513946,108.63212 173.855308,109.860961 C173.215728,111.053637 172.65276,112.288188 172.109994,113.394449 C171.502812,113.588216 171.456692,113.14891 171.222662,113.036989 C170.957377,112.910222 170.698572,112.770893 170.333805,112.584359 C170.493128,112.332728 170.624246,112.076148 170.80034,111.854972 C171.809261,110.58654 172.846769,107.471421 173.1536,106.161114 C173.488255,104.731273 173.208105,103.299148 173.521034,101.94354 C173.760782,100.902756 173.835869,99.8950915 173.844255,98.8562108 C173.852259,97.847404 173.846161,96.8385972 173.846161,95.6957903 L171.979638,95.6957903 L171.979638,94.154029 L176.166259,94.154029 C175.831985,93.0645176 175.562507,92.1147165 175.248054,91.1801426 C174.829544,89.9334097 174.890148,89.8211085 176.281368,89.5831824 C176.73342,90.6551824 177.221681,91.7142392 177.624563,92.8045119 C177.849827,93.4139835 177.559004,93.8384438 176.88855,94.0957847 L180.269407,94.0957847 L180.269407,95.636404 L175.41843,95.636404 L175.41843,99.4588301 L179.944662,99.4588301 C179.944662,101.670972 180.146293,103.777285 179.880246,105.823069 C179.671373,107.428023 179.616486,109.014324 179.551308,110.615853 C179.500615,111.867154 178.612901,112.726353 177.355848,112.795256 C176.479951,112.843222 175.59948,112.804393 174.665647,112.804393" id="Fill-19"></path>
                        <path d="M161.609899,91.9334358 L150.675668,91.9334358 C150.63336,92.0556347 150.585715,92.1203506 150.599818,92.165271 C150.707304,92.5006517 150.772482,92.8657256 150.954675,93.1577085 C151.257694,93.6430778 151.393385,92.9555665 151.643043,93.0141915 C151.811895,93.0537824 151.963595,93.177504 152.132829,93.2045324 C152.613086,93.2825722 153.200448,93.5330608 153.563308,93.3522369 C154.708302,92.7808335 155.885694,93.0610153 157.044409,93.0214244 C158.552645,92.9700324 160.063548,93.0088619 161.609899,93.0088619 L161.609899,91.9334358 Z M150.632216,95.9880778 L161.665548,95.9880778 C161.630101,95.4516972 161.599227,94.9868847 161.57369,94.5978278 L150.632216,94.5978278 L150.632216,95.9880778 Z M149.13694,90.3749244 L163.107463,90.3749244 L163.107463,97.4491347 C163.130713,97.4240097 163.093741,97.4780665 163.043428,97.5127085 C162.996546,97.5450665 162.93518,97.574379 162.880293,97.574379 C158.321283,97.5774244 153.762272,97.5770438 149.13694,97.5770438 L149.13694,90.3749244 Z" id="Fill-21"></path>
                        <path d="M103.877372,113.185074 C103.664305,112.742722 103.461911,112.320927 103.264854,111.911313 C103.42837,111.797109 103.52404,111.672245 103.621616,111.671103 C104.636254,111.656637 105.651654,111.638364 106.665149,111.66958 C107.567727,111.697751 108.36625,111.51883 109.008879,110.722063 L109.008879,96.4594381 L100.325757,96.4594381 L100.325757,94.925671 L109.039372,94.925671 L109.039372,89.7453528 C109.211273,89.6730233 109.31571,89.6113528 109.428151,89.5858472 C109.796348,89.5020972 110.222481,89.2793983 110.525881,89.3882733 C111.114006,89.6003131 110.950871,90.2162563 110.952776,90.703529 C110.959256,92.0819778 110.955063,93.4608074 110.955063,94.9020688 L114.318006,94.9020688 L114.318006,96.374546 L110.955063,96.374546 L110.955063,102.159006 C110.955063,104.756018 111.00004,107.354171 110.936387,109.949279 C110.90437,111.247404 110.561329,112.476626 109.094639,112.943722 C108.756173,113.051836 108.401697,113.167563 108.052558,113.174415 C106.661337,113.200682 105.269355,113.185074 103.877372,113.185074" id="Fill-23"></path>
                        <path d="M160.673779,107.155493 L152.388585,107.155493 C153.562546,108.438772 154.967488,109.055095 156.272949,109.781436 C157.77966,109.059664 159.240251,108.351215 160.673779,107.155493 M165.548006,111.996624 C165.175236,112.627794 164.932439,113.03855 164.598546,113.603863 C164.398439,113.43484 164.257411,113.210999 164.103043,113.201482 C163.253827,113.149709 162.436627,113.060249 161.585505,112.863056 C159.908036,112.475141 158.27745,111.978351 156.648388,111.444255 C156.335458,111.34147 155.93715,111.318249 155.62727,111.414561 C153.424186,112.100169 151.318679,113.140953 148.945218,113.185113 C148.269047,113.890516 147.391244,113.373169 146.633887,113.638885 C146.396045,113.166078 146.188315,112.753039 145.909308,112.197624 C148.689844,111.815039 151.365942,111.345277 154.066054,110.574397 C152.625664,109.399993 151.336974,108.349692 149.84551,107.133414 L148.538525,107.133414 C148.116585,106.711999 148.314786,105.83034 148.819818,105.645709 C149.042413,105.564243 149.305792,105.574522 149.550113,105.574141 C153.917784,105.570334 158.285454,105.571476 162.722876,105.571476 L162.722876,107.520948 C161.478782,108.405652 160.071934,109.406465 158.562936,110.479988 C160.72333,111.49755 163.163111,111.280181 165.548006,111.996624" id="Fill-25"></path>
                        <path d="M154.469889,102.493511 L157.774514,102.493511 L157.774514,100.336949 L154.469889,100.336949 L154.469889,102.493511 Z M162.676565,102.493892 C162.854946,101.631648 162.993687,100.962409 163.135096,100.278705 L159.431782,100.278705 L159.431782,102.493892 L162.676565,102.493892 Z M149.103589,102.463438 L152.784034,102.463438 L152.784034,100.30421 L149.103589,100.30421 L149.103589,102.463438 Z M147.578201,104.048597 L147.578201,99.1629261 L164.698218,99.1629261 C164.698218,100.406614 164.713465,101.59967 164.693645,102.792347 C164.676493,103.833511 164.453897,104.043648 163.339396,104.04517 C158.141949,104.053165 152.944501,104.048597 147.578201,104.048597 L147.578201,104.048597 Z" id="Fill-27"></path>
                        <path d="M182.298073,97.1964381 L190.170857,97.1964381 C190.200206,97.7293926 190.230699,98.2707222 190.256998,98.7496199 C189.22902,100.352671 187.292746,101.146773 186.627247,103.231387 L190.941174,103.231387 L190.941174,104.771245 L186.853654,104.771245 L186.853654,111.693944 C186.077238,112.843984 185.044304,113.312603 183.697679,113.195353 C183.010454,113.135966 182.313701,113.185074 181.634099,113.185074 C181.480874,112.703131 181.340227,112.259256 181.190814,111.787972 C181.193482,111.786069 181.293345,111.671864 181.395876,111.670341 C182.283589,111.656256 183.172065,111.677574 184.059778,111.65816 C185.001615,111.637603 185.266137,111.386734 185.275666,110.456347 C185.2932,108.624887 185.280621,106.792665 185.280621,104.828728 L180.745242,104.828728 L180.745242,103.354347 L185.23412,103.354347 C185.134639,102.32308 185.525324,101.561336 186.284587,100.926739 C187.011452,100.319171 187.641885,99.5970176 188.483859,98.7557108 C187.3503,98.6868074 186.365773,98.7283017 185.385821,98.7210688 C184.378424,98.7126938 183.370647,98.7191653 182.298073,98.7191653 L182.298073,97.1964381 Z" id="Fill-29"></path>
                        <path d="M121.513322,89.5210551 C121.940217,89.7323335 122.35644,89.9379017 122.927412,90.2199869 C122.470406,91.3658392 122.13575,92.5767881 121.527806,93.6312767 C120.773498,94.9389188 120.455994,96.2674983 120.468954,97.7612938 C120.510119,102.507635 120.4842,107.254356 120.4842,112.001078 L120.4842,113.521902 L118.959575,113.521902 L118.959575,106.367368 L118.959575,99.1915153 L118.701532,99.090254 C118.307416,99.7632994 117.992581,100.502964 117.497459,101.091498 C116.971463,101.716578 116.823956,102.714726 115.777301,102.919532 C115.578337,102.469186 115.197943,101.999424 115.223481,101.553646 C115.247493,101.144413 115.708693,100.760305 115.977408,100.365157 C118.037176,97.3307426 119.813746,94.1562369 120.877934,90.6197028 C120.990757,90.2435892 121.277386,89.9200097 121.513322,89.5210551" id="Fill-30"></path>
                        <path d="M181.037361,98.7615352 C180.428654,98.386183 180.021579,98.134933 179.555044,97.8475182 C181.344954,95.1035636 183.12038,92.3984386 183.908992,89.1127739 C184.383532,89.3335693 184.798992,89.526575 185.4016,89.8067568 C185.034166,90.8212739 184.660633,91.853683 184.254701,92.9747909 L190.952761,92.9747909 L190.952761,94.458308 L183.644851,94.458308 C183.139438,95.2333761 182.525395,95.8771091 182.274594,96.6399955 C182.00283,97.4664557 181.205069,97.8650295 181.037361,98.7615352" id="Fill-31"></path>
                        <path d="M144.721778,103.566159 C145.265688,103.759926 145.815696,103.955596 146.324921,104.137181 C146.134724,104.656431 145.838947,105.129999 145.803499,105.62184 C145.686484,107.253443 144.537298,108.545857 144.430574,110.213624 C144.38293,110.959761 143.647298,111.646511 143.706377,112.563573 C143.731152,112.948823 142.905568,113.303999 142.502686,113.185227 C142.009469,113.039806 141.633268,112.357624 141.868823,111.830761 C142.541564,110.323261 142.981418,108.741909 143.47311,107.174641 C143.840925,106.000999 144.275444,104.847914 144.721778,103.566159" id="Fill-32"></path>
                        <path d="M169.362962,103.65501 C169.988058,103.837737 170.543022,103.999907 171.217287,104.197481 C170.076487,107.095231 169.697236,110.197788 168.830105,113.140459 C168.121917,113.203652 167.481574,113.352118 167.081741,112.719044 C168.03387,109.743635 168.872414,106.761373 169.362962,103.65501" id="Fill-33"></path>
                        <path d="M101.231232,100.031452 C101.78086,99.7558381 102.195939,99.5483665 102.675815,99.3085369 C103.731236,101.239736 104.713095,103.036173 105.775759,104.980696 C105.460924,105.073582 105.241378,105.097946 105.068714,105.199588 C104.870513,105.316838 104.713095,105.502991 104.432945,105.752719 C103.017331,104.051832 102.502388,102.002622 101.231232,100.031452" id="Fill-34"></path>
                        <path d="M133.276683,90.6318847 C134.814267,91.9026006 136.271047,93.1063165 137.826164,94.3907369 C137.420614,94.8688733 137.108828,95.2366119 136.711282,95.7056119 C135.231252,94.4413676 133.776379,93.1972994 132.225072,91.872146 C132.515513,91.5295324 132.827299,91.1621744 133.276683,90.6318847" id="Fill-35"></path>
                        <path d="M145.831019,94.5316653 C145.316077,94.0173642 144.945974,93.3622108 144.411212,93.1749153 C143.379421,92.8125062 143.023421,91.609171 142.137233,91.4188301 C142.483323,91.0708869 142.927751,90.6232051 143.399623,90.1481142 C144.078081,90.7328415 144.924248,91.5322733 145.842835,92.237296 C147.025944,93.1444608 147.064441,93.1924267 146.159957,94.2016142 C146.076484,94.2948812 145.982719,94.3797733 145.831019,94.5316653" id="Fill-36"></path>
                        <path d="M146.301861,99.7976369 C145.728983,100.364853 145.382893,100.708228 144.953711,101.133069 C143.613185,100.007012 142.31611,98.9171199 141.016748,97.8249438 C141.39981,97.4385517 141.70969,97.1256313 142.135823,96.6962222 C143.451193,97.6753358 144.782191,98.6658699 146.301861,99.7976369" id="Fill-37"></path>
                        <path d="M171.133967,99.4488943 C170.497817,99.8977182 170.093791,100.182849 169.683286,100.472167 C168.869898,99.8516557 168.234892,98.7419682 167.055975,98.1720875 C166.326823,97.8195761 166.439264,97.3250705 167.387962,96.3029398 C168.545153,97.2748205 169.709204,98.2520307 171.133967,99.4488943" id="Fill-38"></path>
                        <path d="M171.759673,92.8936676 C170.652414,93.9698551 170.517866,93.9778494 169.796337,93.3482017 C168.97342,92.6317585 168.127634,91.9415824 167.048581,91.0355597 C167.626795,90.7321562 168.07694,90.4965142 168.639527,90.2018665 C169.438812,90.8912812 170.543022,91.8441278 171.759673,92.8936676" id="Fill-39"></path>
                    </g>
                </g>
            </g>
        </g>
    </g>
</svg>