<?xml version="1.0" encoding="UTF-8"?>
<svg width="220px" height="150px" viewBox="0 0 220 150" version="1.1" xmlns="http://www.w3.org/2000/svg" xmlns:xlink="http://www.w3.org/1999/xlink">
    <!-- Generator: sketchtool 41.1 (35376) - http://www.bohemiancoding.com/sketch -->
    <title>ADB0C65A-7252-420E-9B34-BD957808255C</title>
    <desc>Created with sketchtool.</desc>
    <defs></defs>
    <g id="newHome" stroke="none" stroke-width="1" fill="none" fill-rule="evenodd">
        <g id="Muse3.0-新首页" transform="translate(-210.000000, -1963.000000)" fill="#222222">
            <g id="item" transform="translate(0.000000, 1780.000000)">
                <g id="Group-5" transform="translate(130.000000, 60.000000)">
                    <g id="redstar" transform="translate(80.000000, 123.000000)">
                        <polygon id="Fill-1" points="46 68.0866226 76.6665567 90.0692642 64.7084536 132.480679 104.404289 108.01634 127.18433 124.970868 141.522969 117.039736 113.878928 97.5704906 78.0039588 118.67417 90.0709278 79.9582264 60.0872577 58.9007736"></polygon>
                        <polygon id="Fill-2" points="90.3894103 40.7850377 85.2971216 57.4054151 98.1221938 56.5251321 107.811926 28.6605094"></polygon>
                        <g id="Group-38" transform="translate(94.716418, 58.686775)">
                            <path d="M12.5427986,16.4291681 C7.65306663,17.9500172 4.66222126,19.0125643 3.56300477,19.6359605 C3.01273673,20.2553945 2.59772642,20.2553945 2.31995322,19.6359605 C2.25463364,19.4279417 2.11805632,19.0845455 1.91154085,18.6011492 C1.49719034,17.6369983 1.2240357,16.9488851 1.08086044,16.5348285 C0.94758209,16.1934134 1.18774704,15.9490738 1.80861302,15.8117153 C2.56539652,15.8117153 3.35385013,15.3956775 4.18189137,14.5715266 C4.59690168,14.0881304 5.28506663,13.1603002 6.24440683,11.782753 C4.38906663,12.1968096 3.11302539,12.5725643 2.42683982,12.9179417 C1.94519034,13.4700172 1.56580889,13.5056775 1.28935529,13.0236021 C1.01290168,12.4702058 0.670468687,11.6790738 0.261396523,10.6469039 C0.122839822,10.1668096 0.32671611,9.857753 0.877643945,9.71577187 C1.42989137,9.36907376 1.94519034,8.85530017 2.42683982,8.16850772 C3.25224188,6.85831904 4.01100477,4.75501715 4.69719034,1.8632247 C4.7651491,1.30982847 5.11088106,1.10511149 5.72976766,1.24445111 C6.96688106,1.58850772 8.17034498,2.07388508 9.3408192,2.69001715 C9.68391199,2.90067753 9.85941714,3.13511149 9.85941714,3.41114923 C9.78683982,3.6191681 9.54799446,3.76048885 9.13496353,3.82850772 C8.58601508,3.96520583 8.17034498,4.27492281 7.89719034,4.75501715 C6.65875735,6.68596055 5.28506663,8.37256432 3.77018003,9.82011149 C4.11261302,9.88746998 4.93867487,9.88746998 6.24440683,9.82011149 L7.38057178,9.82011149 C7.933479,8.92596055 8.34453054,8.06284734 8.61834498,7.23407376 C8.75624188,6.6172813 9.10527281,6.44492281 9.65488106,6.71963979 C10.5489017,7.06303602 11.6804481,7.68577187 13.0594171,8.57530017 C13.5404068,9.13001715 13.4744275,9.50973413 12.8542213,9.71577187 C12.371912,9.64643225 11.923912,9.857753 11.5115409,10.3352058 C9.78683982,12.5428473 7.86222126,14.397187 5.72976766,15.9153945 C7.44985013,15.9153945 9.65488106,15.8117153 12.3310048,15.6050172 C12.7499738,15.6050172 12.9921182,15.708036 13.0594171,15.9153945 C13.0594171,16.122753 12.887211,16.2957719 12.5427986,16.4291681 Z M3.87310786,24.5967153 C3.31954085,24.8701115 2.94411817,25.1111492 2.73628312,25.3231304 C2.52910786,25.6599228 2.31995322,25.7992624 2.11805632,25.7286021 C1.83962333,25.7286021 1.66939652,25.5569039 1.60077797,25.2135077 C1.46024188,24.8701115 1.25636559,24.2136964 0.978592399,23.2488851 C0.841355285,22.8368096 0.739747038,22.5614322 0.670468687,22.4220926 C0.53257178,21.943319 0.772736729,21.7016209 1.39162333,21.7016209 C2.83789137,21.5669039 6.00556147,21.2188851 10.893314,20.6707719 C11.3043656,20.5994511 11.6177677,20.56247 11.818345,20.56247 C12.1653965,20.497753 12.371912,20.56247 12.435912,20.7731304 C12.5078295,20.9078473 12.371912,21.0445455 12.0242006,21.1838851 C10.2361594,22.0100172 7.51846869,23.1498285 3.87310786,24.5967153 Z M19.4587573,24.9044511 L11.1994584,24.9044511 C9.82642745,24.9044511 8.99838621,24.9401115 8.72325219,25.0035077 C8.51541714,25.0741681 8.34453054,25.0035077 8.20861302,24.802753 C8.13735529,24.7287907 8.0713759,24.6290738 8.00077797,24.4897341 C7.86222126,24.2843568 7.76061302,24.1476587 7.69133467,24.0743568 C7.6240357,23.8742624 7.69133467,23.7666209 7.89719034,23.7666209 C9.3408192,23.9079417 10.5772728,24.0076587 11.6177677,24.0743568 L15.1252316,24.0743568 L15.1252316,6.6172813 L14.0946336,6.6172813 C13.7442831,6.6172813 13.1959945,6.64831904 12.435912,6.71963979 L11.6177677,6.71963979 C11.405314,6.85831904 11.235747,6.82067753 11.0971903,6.6172813 C11.0971903,6.54926244 11.0615615,6.47926244 10.9936027,6.40860206 C10.9243244,6.3432247 10.8200769,6.13256432 10.6841594,5.78718696 C10.5489017,5.58180961 10.5772728,5.517753 10.7864275,5.58180961 C12.2333553,5.72180961 13.4744275,5.8241681 14.5050254,5.89482847 L19.1479945,5.89482847 C20.1845305,4.23794168 20.9017264,3.41114923 21.3167367,3.41114923 C22.4192522,3.82850772 23.4841594,4.65199828 24.5200357,5.89482847 C24.723912,6.10020583 24.7898914,6.27058319 24.723912,6.40860206 C24.6546336,6.6172813 24.4804481,6.71963979 24.2072934,6.71963979 C23.3145924,6.64831904 21.8003656,6.6172813 19.6652728,6.6172813 C19.6652728,6.82067753 19.5959945,6.96397942 19.4587573,7.03265866 C19.114345,7.23407376 18.9427986,7.61445111 18.9427986,8.16850772 L18.9427986,24.0743568 L19.9747161,24.0743568 C20.9360357,22.7668096 21.629479,22.0476587 22.035912,21.9089794 C23.0031697,22.1156775 24.0654378,22.8368096 25.2372316,24.0743568 C25.5156646,24.5603945 25.4483656,24.8318096 25.0333553,24.9044511 L19.4587573,24.9044511 Z" id="Fill-3"></path>
                            <path d="M33.7956811,19.6362907 L37.4106914,19.6362907 L37.4106914,16.2234605 L37.4106914,16.0174228 L33.9005883,16.0174228 C32.1085883,18.0844039 30.0104439,19.8079889 27.6048357,21.1842153 C27.3231037,21.3228945 27.1568357,21.3572341 27.0875573,21.2872341 C26.9516398,21.2185549 26.9819903,21.0792153 27.1865264,20.870536 C29.1843821,18.0494039 30.3212068,15.4673285 30.5976604,13.12497 C30.7342378,12.8528945 30.8351862,12.7109134 30.9077635,12.7109134 C30.6986089,12.5742153 30.5976604,12.2301587 30.5976604,11.6787436 C30.7342378,10.1678002 30.8035161,8.02751715 30.8035161,5.27110206 C30.8035161,3.8961964 30.7342378,2.79138508 30.5976604,1.96657376 C30.5283821,1.27780017 30.8351862,1.00374357 31.5279697,1.14374357 C31.5972481,1.14374357 31.7331656,1.17610206 31.9410006,1.24412093 C33.1761347,1.58883791 34.2436811,1.96657376 35.1403409,2.38129074 L44.1188151,2.38129074 C44.7390213,1.34581904 45.149413,0.865064322 45.3565883,0.932422813 C46.1120522,1.00374357 47.2845058,1.52147942 48.8653718,2.48100772 C49.3516398,2.82704545 49.3193099,3.20808319 48.7617842,3.61883791 C48.4906089,3.76081904 48.3566707,4.03421527 48.3566707,4.44827187 L48.3566707,7.33874357 C48.4233099,8.99430961 48.4530006,10.0944983 48.4530006,10.6485549 C48.5908976,11.3353473 48.3850419,11.7824228 47.8334543,11.985819 C47.2845058,12.1978002 46.4907738,12.4031775 45.4581965,12.6065738 C44.6354336,12.6785549 44.2191037,12.4031775 44.2191037,11.7824228 L44.2191037,10.9569511 L34.826279,10.9569511 L34.826279,11.4720455 C34.826279,11.9541209 34.3802584,12.2988379 33.4862378,12.505536 C33.0765058,12.645536 32.4853305,12.7109134 31.7331656,12.7109134 C33.1761347,13.12497 34.3802584,13.5377058 35.3448769,13.9517624 C35.6173718,14.0897813 35.7902378,14.2621398 35.8614955,14.4714794 C35.7902378,14.675536 35.6173718,14.8472341 35.3448769,14.985253 C35.277578,14.985253 35.2063202,15.0215738 35.1403409,15.0869511 C34.9292068,15.1576115 34.7952687,15.2256304 34.724011,15.29497 L37.4106914,15.29497 C37.4106914,14.9522341 37.3777017,14.4714794 37.3064439,13.8474228 C37.3064439,13.1612907 37.2721347,12.645536 37.2041759,12.2988379 C37.066279,11.8200643 37.2721347,11.6087436 37.8204233,11.6787436 C39.3366295,11.8200643 40.5744027,12.0228002 41.5377017,12.2988379 C41.8814543,12.365536 42.0873099,12.505536 42.1579079,12.7109134 C42.2232275,12.9176115 42.1216192,13.12497 41.8484646,13.3323285 C41.6439285,13.5377058 41.5377017,13.7774228 41.5377017,14.0554417 L41.5377017,15.29497 L44.8379903,15.29497 C45.7333305,13.8474228 46.2895367,13.12497 46.4907738,13.12497 C47.2475573,13.2629889 48.2491244,13.9867624 49.4882171,15.29497 C49.7633512,15.7763851 49.6610831,16.0544039 49.1774543,16.1230832 L46.2895367,16.1230832 C44.7706914,16.0544039 43.7077635,16.0174228 43.0842584,16.0174228 L41.5377017,16.0174228 L41.5377017,19.6362907 L43.8126707,19.6362907 C44.8379903,18.1880832 45.4581965,17.5026115 45.6673512,17.5686492 C46.2895367,17.7053473 47.2152275,18.4284605 48.4530006,19.7373285 C48.5908976,19.9473285 48.6271862,20.1183662 48.5579079,20.2550643 C48.4906089,20.3944039 48.3157635,20.4604417 48.0412893,20.4604417 L41.5377017,20.4604417 L41.5377017,24.6961021 L46.2895367,24.6961021 C47.389413,23.2492153 48.1468563,22.5274228 48.5579079,22.5274228 C49.3193099,22.6680832 50.352547,23.390536 51.6562996,24.6961021 C51.8621553,25.0414794 51.9281347,25.2844983 51.8621553,25.4225172 C51.8621553,25.5572341 51.6859903,25.6285549 51.3435573,25.6285549 C50.0384852,25.5572341 47.6586089,25.5215738 44.2191037,25.5215738 L31.9410006,25.5215738 C30.4914336,25.5915738 29.2226501,25.7289322 28.1161759,25.9369511 C27.9103202,26.0062907 27.7361347,25.9019511 27.6048357,25.6285549 C27.39898,25.4225172 27.1865264,25.145819 26.9819903,24.8024228 C26.9146914,24.6604417 26.8777429,24.5613851 26.8777429,24.4927058 L27.1865264,24.4927058 C27.8793099,24.6294039 29.7722584,24.6961021 32.8666914,24.6961021 L37.4106914,24.6961021 L37.4106914,20.4604417 L33.2836811,20.4604417 C32.730114,20.4604417 32.1778666,20.5311021 31.6242996,20.6704417 C31.3544439,20.6704417 31.1809182,20.5997813 31.114279,20.4604417 C30.8351862,20.1844039 30.6642996,19.9473285 30.5976604,19.7373285 C30.5283821,19.6686492 30.4914336,19.5986492 30.4914336,19.5306304 C30.4914336,19.4639322 30.5620316,19.4269511 30.6986089,19.4269511 C31.3174955,19.5669511 32.3513924,19.6362907 33.7956811,19.6362907 L33.7956811,19.6362907 Z M44.2191037,3.10440395 L35.4524233,3.10440395 C35.0367532,3.10440395 34.826279,3.34544168 34.826279,3.82883791 L34.826279,6.20355489 L44.2191037,6.20355489 L44.2191037,3.10440395 Z M34.8256192,10.1242153 L44.2191037,10.1242153 L44.2191037,7.03100772 L34.8256192,7.03100772 L34.8256192,10.1242153 Z" id="Fill-5"></path>
                            <path d="M54.4338996,26.8682153 C53.949611,26.9362341 53.6731573,26.8985926 53.6058584,26.7625549 C53.6058584,26.6284983 53.8097347,26.4528379 54.224745,26.2468002 C58.9046625,24.3184983 61.6553429,21.6703851 62.4800852,18.2905738 L56.5980233,18.2905738 C55.3602501,18.2905738 54.3593429,18.3975549 53.6058584,18.6022719 C53.3307244,18.6022719 53.1578584,18.5349134 53.091879,18.3975549 C52.9467244,18.1875549 52.7791367,17.9108568 52.5746006,17.5701021 C52.5007037,17.4307624 52.5007037,17.3607624 52.5746006,17.3607624 C52.5746006,17.2934039 52.64058,17.2564228 52.7791367,17.2564228 C54.0881677,17.3957624 55.4605388,17.4651021 56.909446,17.4651021 L62.6905594,17.4651021 C62.7578584,17.3303851 62.7908481,17.0853851 62.7908481,16.7433096 C62.861446,16.4646304 62.8911367,16.2599134 62.8911367,16.1232153 C62.5520027,16.2599134 61.9628068,16.3299134 61.1400439,16.3299134 C60.3153017,16.3999134 59.9689099,16.0168945 60.106147,15.1901021 L60.106147,13.6388756 C60.1780646,11.9859511 60.2130336,10.9901021 60.2130336,10.6473662 C59.1797965,11.7455738 58.1491986,12.7830266 57.1166213,13.744536 C56.6329924,14.229253 56.3585182,14.6413285 56.28858,14.9853851 C55.9441677,15.604819 55.5298171,15.604819 55.0508068,14.9853851 C54.224745,13.674536 53.6731573,12.6463285 53.3993429,11.884253 C53.1908481,11.4034983 53.3630543,11.0924605 53.9146419,10.9577436 C54.7413635,10.8157624 56.461446,10.2656681 59.0742295,9.3001964 C59.5598378,9.09349828 59.9346006,8.9587813 60.2130336,8.88812093 L60.2130336,5.78698885 C60.2130336,4.20670583 60.1404563,2.82717753 60.0058584,1.65500772 C59.8673017,0.966234134 60.106147,0.693498285 60.7263532,0.831517153 C62.4464357,0.966234134 63.6175697,1.17623413 64.2364563,1.44698885 C64.8566625,1.72698885 64.9602501,2.1047247 64.5432604,2.58613979 C64.2034666,2.72283791 64.03258,3.06953602 64.03258,3.62029074 L64.03258,9.5101964 C65.2010749,7.58123413 66.058147,4.89680017 66.6110543,1.44698885 C66.679013,0.966234134 66.9871367,0.79717753 67.5413635,0.933875643 C69.1222295,1.07387564 70.3923326,1.34595111 71.3569512,1.76000772 C71.7033429,1.82934734 71.8755491,2.00038508 71.8755491,2.27510206 C71.8755491,2.48113979 71.7033429,2.65680017 71.3569512,2.79151715 C70.9458996,3.00085678 70.6364563,3.30793225 70.4299409,3.72330961 C70.2207862,3.92868696 70.0188893,4.20670583 69.811714,4.54812093 L72.5986831,4.54812093 C73.2162501,3.72330961 73.661611,3.27623413 73.9400439,3.20755489 C74.8373635,3.34491338 76.0375285,4.0006681 77.5530749,5.16821527 C78.0353842,5.72227187 77.9647862,6.1006681 77.3458996,6.30604545 C76.794312,6.51208319 76.4182295,6.82113979 76.211714,7.23453602 C74.2164976,11.714536 70.7433429,14.32897 65.7836728,15.0877436 C66.1307244,15.1577436 66.6460233,15.2607624 67.3361677,15.3954794 C67.5413635,15.4681209 67.6786006,15.5011398 67.7458996,15.5011398 C68.0916316,15.5718002 68.2625182,15.7084983 68.2625182,15.9151964 C68.3324563,16.1932153 68.2262295,16.3999134 67.9563738,16.5352907 C67.5413635,16.7433096 67.2992192,17.0497247 67.2306006,17.4651021 L72.6989718,17.4651021 C73.7361677,15.8121775 74.4922914,14.9120832 74.9746006,14.7780266 C75.8692811,15.1901021 76.963879,16.1232153 78.2748893,17.5701021 C78.4800852,17.8441587 78.5493635,18.049536 78.4800852,18.1875549 C78.4800852,18.3255738 78.3454872,18.3975549 78.0663945,18.3975549 C75.7261058,18.3255738 73.3528275,18.2905738 70.9458996,18.2905738 L68.4716728,18.2905738 C70.8106419,20.704253 73.9743532,22.079819 77.9647862,22.4238756 C78.3764976,22.4932153 78.6232604,22.5962341 78.6879202,22.7355738 C78.6879202,22.9363285 78.5143945,23.11397 78.1726213,23.2493473 C77.0707656,23.8747247 76.173446,24.904253 75.4892398,26.3504794 C75.2847037,26.8332153 74.9363326,26.9718945 74.4573223,26.7625549 C70.1917553,25.5230266 67.7841677,22.7012341 67.2306006,18.2905738 L67.0240852,18.2905738 C66.2686213,23.2493473 62.0729924,26.1101021 54.4338996,26.8682153 M55.5628068,7.23453602 C55.5007862,5.92764923 55.1873842,4.85849828 54.6371161,4.03434734 C54.4972398,3.82830961 54.461611,3.68963036 54.5335285,3.62029074 C54.6028068,3.48161149 54.7756728,3.41095111 55.0508068,3.41095111 C57.4570749,3.68963036 58.9046625,4.61812093 59.3849924,6.20500772 C59.5888687,7.78595111 58.9389718,8.71906432 57.4280439,8.99444168 C56.2509718,8.99444168 55.6314254,8.40538508 55.5628068,7.23453602 M67.4384357,10.4400077 C67.3691573,10.3033096 67.2992192,10.0952907 67.2306006,9.82057376 C67.0240852,9.13047942 66.855178,8.65038508 66.7133223,8.37236621 C65.8859409,9.19915866 64.9938996,9.92359262 64.03258,10.5390643 L64.03258,14.4716115 L64.03258,14.8817058 L64.1355079,14.8817058 L64.2364563,14.8817058 C66.1643738,13.7108568 67.6786006,12.5730266 68.7797965,11.4734983 C68.0916316,11.6075549 67.6429718,11.2687813 67.4384357,10.4400077 M72.5986831,5.27123413 L69.2931161,5.27123413 C69.2244976,5.34387564 69.1598378,5.44359262 69.0892398,5.58227187 C68.6775285,6.20500772 68.1622295,6.82113979 67.5413635,7.44321527 C68.915714,7.58123413 69.9133223,7.99264923 70.5322089,8.68340395 C70.5322089,8.74944168 70.5665182,8.85576244 70.6364563,8.99444168 L70.6364563,9.3001964 C71.4638378,8.06264923 72.115714,6.71944168 72.5986831,5.27123413" id="Fill-7"></path>
                            <path d="M2.02601508,35.3350455 L2.02601508,28.4862719 L5.55195322,28.4862719 C6.20778828,28.4862719 6.70395322,28.5424039 7.04968518,28.6520266 C7.39607693,28.7669322 7.67780889,28.9749511 7.8909223,29.2774039 C8.10007693,29.5811775 8.20894291,29.9509889 8.20894291,30.3901398 C8.20894291,30.7658945 8.12712848,31.0941021 7.96415941,31.3734417 C7.79987075,31.6468379 7.57883982,31.8713662 7.29578828,32.0443851 C7.11566456,32.1553285 6.86098415,32.2418379 6.55088106,32.3171209 C6.8022625,32.3990077 6.98766456,32.4848568 7.09916972,32.5700455 C7.17768518,32.6248568 7.29182951,32.7443851 7.43764395,32.9299511 C7.58873673,33.1141964 7.68506663,33.2574983 7.73982951,33.3545738 L8.76053054,35.3350455 L6.37141714,35.3350455 L5.23855116,33.24297 C5.0953759,32.9755172 4.97133467,32.8005172 4.85982951,32.7199511 C4.70015941,32.6109889 4.52861302,32.5594794 4.33595322,32.5594794 L4.15055116,32.5594794 L4.15055116,35.3350455 L2.02601508,35.3350455 Z M4.15055116,31.2644794 L5.04193261,31.2644794 C5.1382625,31.2644794 5.32432436,31.2308002 5.60341714,31.1687247 C5.74131405,31.1396681 5.86073673,31.07297 5.94519034,30.9521209 C6.0342625,30.8391964 6.08176766,30.7071209 6.08176766,30.5578756 C6.08176766,30.3386304 6.01182951,30.1689134 5.86799446,30.0553285 C5.73009755,29.933819 5.469479,29.8737247 5.07888106,29.8737247 L4.15055116,29.8737247 L4.15055116,31.2644794 Z" id="Fill-9"></path>
                            <path d="M14.57338,33.3268379 L10.7531738,33.3268379 C10.7868233,33.6325926 10.8706171,33.8591021 11.0025759,34.0030643 C11.187978,34.2242907 11.4294625,34.3345738 11.7230707,34.3345738 C11.9117718,34.3345738 12.0945347,34.2857058 12.2581635,34.193253 C12.3617512,34.1318379 12.4725965,34.028819 12.5939986,33.8828756 L14.4664934,34.0486304 C14.1788233,34.5524983 13.831112,34.9031587 13.4253388,35.1197624 C13.0248439,35.3350455 12.4468646,35.4440077 11.6861223,35.4440077 C11.0296275,35.4440077 10.5090501,35.3495738 10.1342872,35.1653285 C9.75820477,34.9791021 9.44150374,34.6845738 9.19606044,34.2857058 C8.94995735,33.8828756 8.82327693,33.4113662 8.82327693,32.8639134 C8.82327693,32.0912719 9.0720192,31.4665549 9.56884395,30.9897624 C10.0669883,30.5103285 10.7531738,30.2719322 11.6267409,30.2719322 C12.3346996,30.2719322 12.9008027,30.3795738 13.3138336,30.5915549 C13.7196068,30.8055172 14.0330089,31.1178756 14.2514006,31.5233473 C14.4664934,31.9314605 14.57338,32.4597624 14.57338,33.1115549 L14.57338,33.3268379 Z M12.6454625,32.4141964 C12.6071945,32.0490077 12.5069058,31.783536 12.3472357,31.6309889 C12.1849264,31.4698568 11.9724728,31.3925926 11.7098749,31.3925926 C11.4043903,31.3925926 11.1615862,31.5141021 10.9788233,31.7551398 C10.8640192,31.9017436 10.7888027,32.1190077 10.7597718,32.4141964 L12.6454625,32.4141964 Z" id="Fill-11"></path>
                            <path d="M20.6742295,28.4862719 L20.6742295,35.3350455 L18.8927862,35.3350455 L18.8927862,34.5987247 C18.6466831,34.9110832 18.4137759,35.1197624 18.2092398,35.2260832 C17.9387244,35.372687 17.63258,35.4440077 17.2914666,35.4440077 C16.615178,35.4440077 16.0972398,35.1864605 15.7369924,34.6740077 C15.3807037,34.1615549 15.2032192,33.5368379 15.2032192,32.8077813 C15.2032192,31.9856115 15.3978584,31.3602341 15.7943945,30.9224039 C16.1909305,30.4872153 16.6897347,30.2719322 17.3007037,30.2719322 C17.597611,30.2719322 17.8641677,30.3214605 18.1082914,30.4191964 C18.3517553,30.518253 18.5694872,30.6721209 18.7542295,30.8662719 L18.7542295,28.4862719 L20.6742295,28.4862719 Z M18.7720439,32.8434417 C18.7720439,32.453819 18.6862707,32.1652341 18.5193429,31.9704228 C18.3517553,31.7808945 18.1426006,31.6864605 17.8892398,31.6864605 C17.6655697,31.6864605 17.4781883,31.7769322 17.3323738,31.9605172 C17.1779821,32.1447624 17.1034254,32.453819 17.1034254,32.8843851 C17.1034254,33.2865549 17.1812811,33.5850455 17.3356728,33.7719322 C17.4920439,33.9594794 17.6820646,34.0486304 17.911013,34.0486304 C18.1564563,34.0486304 18.359013,33.9594794 18.5266006,33.7666492 C18.6869305,33.5784417 18.7720439,33.2720266 18.7720439,32.8434417 L18.7720439,32.8434417 Z" id="Fill-13"></path>
                            <path d="M24.7805223,33.0721304 L26.7882749,32.9413756 C26.8285223,33.2722247 26.9169347,33.5198662 27.0508728,33.6882624 C27.267945,33.9662813 27.5767285,34.1056209 27.9772233,34.1056209 C28.2774295,34.1056209 28.5103367,34.0382624 28.6706666,33.8929794 C28.8303367,33.7543002 28.9141305,33.5865643 28.9141305,33.4043002 C28.9141305,33.2259983 28.8356151,33.0688285 28.6871615,32.9235455 C28.5340893,32.7848662 28.1758213,32.6521304 27.6083986,32.5279794 C26.6840275,32.3186398 26.0182955,32.0406209 25.6250584,31.6972247 C25.2265429,31.3518473 25.0286048,30.9107153 25.0286048,30.3738285 C25.0286048,30.0238285 25.130213,29.6876964 25.3334295,29.3746775 C25.5379656,29.0643002 25.8421305,28.8159983 26.2531821,28.6376964 C26.6635738,28.4593945 27.2210996,28.3662813 27.9363161,28.3662813 C28.8085635,28.3662813 29.4762749,28.5300549 29.930213,28.8549605 C30.3900893,29.1798662 30.6652233,29.6982624 30.7496769,30.4068473 L28.759079,30.5197719 C28.7010171,30.2186398 28.5921512,29.9954322 28.4245635,29.856753 C28.2549965,29.7180738 28.0220893,29.6500549 27.7212233,29.6500549 C27.4777594,29.6500549 27.2976357,29.7022247 27.1742543,29.8072247 C27.0488934,29.9115643 26.986213,30.0343945 26.986213,30.1869417 C26.986213,30.2945832 27.0356976,30.3929794 27.1392852,30.4788285 C27.2375945,30.567319 27.4764398,30.6498662 27.8492233,30.7337341 C28.7709553,30.9285455 29.4307491,31.1326021 29.8312439,31.3366587 C30.2304192,31.5400549 30.5227079,31.7929794 30.704811,32.0934511 C30.8855945,32.3978851 30.976646,32.7340172 30.976646,33.1104322 C30.976646,33.5495832 30.8559037,33.9530738 30.6144192,34.3281681 C30.3683161,34.6907153 30.0318213,34.9759983 29.5917388,35.1688285 C29.1635326,35.3603379 28.6152439,35.4527907 27.9541305,35.4527907 C26.7922336,35.4527907 25.9866254,35.2295832 25.5379656,34.7798662 C25.0893058,34.3347719 24.8372646,33.7609039 24.7805223,33.0721304" id="Fill-15"></path>
                            <path d="M34.205479,28.4862719 L34.205479,30.3795738 L35.2505924,30.3795738 L35.2505924,31.7657058 L34.205479,31.7657058 L34.205479,33.5150455 C34.205479,33.7270266 34.2272522,33.8683473 34.2688192,33.9403285 C34.3308398,34.0413662 34.4344275,34.0941964 34.5934378,34.0941964 C34.7313347,34.0941964 34.9213553,34.0486304 35.1740563,33.9720266 L35.3152522,35.2874983 C34.8481182,35.3911775 34.4126543,35.4440077 34.0016027,35.4440077 C33.5318295,35.4440077 33.1860976,35.3825926 32.9584687,35.2584417 C32.7321594,35.1402341 32.5738089,34.952687 32.4629635,34.7083473 C32.3580563,34.4613662 32.304613,34.0611775 32.304613,33.5110832 L32.304613,31.7657058 L31.6025924,31.7657058 L31.6025924,30.3795738 L32.304613,30.3795738 L32.304613,29.4656115 L34.205479,28.4862719 Z" id="Fill-17"></path>
                            <path d="M37.8939244,31.9925455 L36.0715738,31.8069794 C36.1368934,31.4833945 36.2371821,31.2344322 36.3658419,31.0528285 C36.4991202,30.8685832 36.6851821,30.7081115 36.9273264,30.5773568 C37.1001924,30.4789605 37.3390378,30.4069794 37.6412233,30.3475455 C37.9506666,30.2973568 38.2812233,30.2722624 38.6328934,30.2722624 C39.2075738,30.2722624 39.661512,30.2999983 40.0105429,30.3693379 C40.3542955,30.4327341 40.643945,30.5628285 40.8715738,30.7655643 C41.0378419,30.9055643 41.1625429,31.1036775 41.2562336,31.3618851 C41.3505842,31.6167907 41.3941305,31.8650926 41.3941305,32.0949039 L41.3941305,34.2827341 C41.3941305,34.5112247 41.4073264,34.6994322 41.4403161,34.8295266 C41.4680275,34.9622624 41.5379656,35.1299983 41.6342955,35.3353756 L39.846914,35.3353756 C39.7743367,35.2079228 39.7268316,35.1115077 39.7050584,35.0408473 C39.6813058,34.9748096 39.661512,34.8684889 39.6397388,34.7218851 C39.3942955,34.9642436 39.1468728,35.1319794 38.9001099,35.2376398 C38.5636151,35.3743379 38.1756563,35.4430172 37.7296357,35.4430172 C37.1391202,35.4430172 36.6924398,35.306319 36.3843161,35.0335832 C36.0814707,34.760187 35.92378,34.426036 35.92378,34.0225455 C35.92378,33.6487719 36.0319862,33.3377341 36.2582955,33.0999983 C36.477347,32.8516964 36.88378,32.6773568 37.4782543,32.5565077 C38.1901718,32.415187 38.6526872,32.310187 38.8592027,32.2540549 C39.0729759,32.1992436 39.2973058,32.1239605 39.533512,32.030187 C39.533512,31.8049983 39.4846872,31.6385832 39.3916563,31.5481115 C39.2900481,31.4576398 39.1264192,31.4100926 38.8770171,31.4100926 C38.5708728,31.4100926 38.339945,31.4589605 38.1835738,31.5566964 C38.0687697,31.6333002 37.9671615,31.7785832 37.8939244,31.9925455 L37.8939244,31.9925455 Z M39.533512,32.9817907 C39.2722336,33.0749039 39.0017182,33.1581115 38.7180068,33.2300926 C38.3320275,33.3317907 38.0892233,33.4295266 37.9869553,33.5285832 C37.8787491,33.6322624 37.827945,33.7524511 37.827945,33.8792436 C37.827945,34.0271681 37.8787491,34.1473568 37.9862955,34.2431115 C38.0892233,34.3408473 38.2396563,34.3864134 38.4402336,34.3864134 C38.653347,34.3864134 38.8526048,34.3349039 39.0327285,34.2325455 C39.2154914,34.1315077 39.3408522,34.0033945 39.4193677,33.8534889 C39.4939244,33.7134889 39.533512,33.5199983 39.533512,33.2862247 L39.533512,32.9817907 Z" id="Fill-19"></path>
                            <path d="M42.554378,30.3790455 L44.3364811,30.3790455 L44.3364811,31.1979134 C44.5067079,30.8439511 44.6881512,30.6015926 44.8662955,30.4668756 C45.0483986,30.3381021 45.2793264,30.2720643 45.5439037,30.2720643 C45.8223367,30.2720643 46.1278213,30.357253 46.4629965,30.5289511 L45.8731409,31.89197 C45.648811,31.797536 45.4746254,31.7552719 45.3426666,31.7552719 C45.0978831,31.7552719 44.8973058,31.8543285 44.7646872,32.0610266 C44.5660893,32.3476304 44.46778,32.8917813 44.46778,33.6776304 L44.46778,35.3345172 L42.554378,35.3345172 L42.554378,30.3790455 Z" id="Fill-21"></path>
                            <path d="M50.1184522,35.3350455 L50.1184522,28.4704228 L52.4811738,28.4704228 C53.0090089,28.4704228 53.4134625,28.5047624 53.7011326,28.5694794 C54.087112,28.6606115 54.4176687,28.8250455 54.7007202,29.0667436 C55.0603079,29.3711775 55.3275244,29.7608002 55.5102872,30.2375926 C55.6890914,30.7071209 55.7742048,31.2558945 55.7742048,31.8660832 C55.7742048,32.3871209 55.7141635,32.8487247 55.5927615,33.2548568 C55.4720192,33.6530643 55.3156481,33.9905172 55.1282666,34.252687 C54.938246,34.5168379 54.7290914,34.7215549 54.5034419,34.8734417 C54.2817512,35.0259889 54.0085965,35.1422153 53.6866171,35.2181587 C53.3692563,35.3000455 53.0050501,35.3350455 52.5867409,35.3350455 L50.1184522,35.3350455 Z M51.0329264,34.5320266 L52.4890914,34.5320266 C52.9370914,34.5320266 53.2907409,34.4871209 53.5460811,34.4052341 C53.8027409,34.3200455 54.0085965,34.2005172 54.1590295,34.0446681 C54.3721429,33.8293851 54.538411,33.538819 54.6584934,33.1762719 C54.7792357,32.8117436 54.8386171,32.3706115 54.8386171,31.8541964 C54.8386171,31.1363662 54.720514,30.58297 54.4895862,30.1973096 C54.2520604,29.8103285 53.9670295,29.548819 53.6338336,29.4207058 C53.3936687,29.3269322 53.0037305,29.2774039 52.464679,29.2774039 L51.0329264,29.2774039 L51.0329264,34.5320266 Z" id="Fill-23"></path>
                            <path d="M60.3195244,33.7357436 L61.184514,33.8447058 C61.0479367,34.347253 60.7965553,34.7434794 60.4270707,35.0201775 C60.0503285,35.3021587 59.5805553,35.442819 59.0052151,35.442819 C58.2787821,35.442819 57.7021223,35.21697 57.2791945,34.772536 C56.854947,34.3281021 56.6385347,33.6961209 56.6385347,32.8931021 C56.6385347,32.0597058 56.854947,31.4105549 57.2851326,30.9496115 C57.715978,30.4873473 58.2735037,30.2548945 58.9596893,30.2548945 C59.6181635,30.2548945 60.1651326,30.4833851 60.5821223,30.9350832 C61.0037305,31.3814983 61.213545,32.0200832 61.213545,32.83697 C61.213545,32.8911209 61.2128852,32.9598002 61.2082666,33.0634794 L57.5022048,33.0634794 C57.5312357,33.6076304 57.6889264,34.0289511 57.9640604,34.3181964 C58.243813,34.6054605 58.5902048,34.7527247 59.0052151,34.7527247 C59.3166378,34.7527247 59.5805553,34.6741398 59.798947,34.5097058 C60.016679,34.347253 60.1915244,34.0923473 60.3195244,33.7357436 M57.5563079,32.3747058 L60.3254625,32.3747058 C60.2944522,31.956687 60.182947,31.6390455 60.0087615,31.4323473 C59.7402254,31.1087624 59.3951532,30.9449889 58.9689264,30.9449889 C58.5809677,30.9449889 58.2563491,31.0737624 57.991112,31.3326304 C57.7304934,31.592819 57.5794006,31.9408379 57.5563079,32.3747058" id="Fill-25"></path>
                            <path d="M61.8926707,33.853753 L62.7226914,33.7236587 C62.7721759,34.053187 62.9067738,34.3094134 63.1179079,34.4923379 C63.3257429,34.6660172 63.6272687,34.7525266 64.0112687,34.7525266 C64.3998872,34.7525266 64.685578,34.6772436 64.8722996,34.5167719 C65.0636398,34.3609228 65.1579903,34.1727153 65.1579903,33.9594134 C65.1579903,33.7718662 65.0715573,33.6213002 64.9059491,33.5110172 C64.7891656,33.4377153 64.5087532,33.3426209 64.0495367,33.2283756 C63.4352687,33.0718662 63.0070625,32.9358285 62.7701965,32.8222436 C62.5280522,32.7119605 62.3426501,32.5514889 62.2238872,32.354036 C62.0985264,32.1513002 62.0384852,31.9307341 62.0384852,31.6850738 C62.0384852,31.4651681 62.0899491,31.2624322 62.1908976,31.0715832 C62.2911862,30.8833756 62.4284233,30.7288473 62.6012893,30.6013945 C62.7325883,30.5082813 62.912712,30.4257341 63.1363821,30.359036 C63.3620316,30.2923379 63.6087945,30.2566775 63.8608357,30.2566775 C64.2514336,30.2566775 64.5945264,30.3114889 64.8874749,30.4257341 C65.1804233,30.5386587 65.3974955,30.6905455 65.5406707,30.8813945 C65.6825264,31.0715832 65.7768769,31.3264889 65.8303202,31.6454511 L65.0075573,31.7550738 C64.9732481,31.5041304 64.8637223,31.3007341 64.6835986,31.1607341 C64.5087532,31.0200738 64.2520934,30.9454511 63.9294543,30.9454511 C63.5434749,30.9454511 63.2650419,31.0055455 63.1053718,31.1382813 C62.9371244,31.2630926 62.8579491,31.4182813 62.8579491,31.589319 C62.8579491,31.6969605 62.8882996,31.7966775 62.9582378,31.8818662 C63.0268563,31.9736587 63.1357223,32.0496021 63.277578,32.1070549 C63.364011,32.1394134 63.6127532,32.2133756 64.0224852,32.324319 C64.6156398,32.4847907 65.0293305,32.6109228 65.2628976,32.7152624 C65.4971244,32.8163002 65.683846,32.9609228 65.815145,33.1557341 C65.9477635,33.3479039 66.0163821,33.5869605 66.0163821,33.8735643 C66.0163821,34.1522436 65.9339079,34.4177153 65.770279,34.6620549 C65.6046707,34.9110172 65.3658254,35.1058285 65.0596811,35.2379039 C64.7522171,35.3746021 64.4045058,35.4426209 64.0112687,35.4426209 C63.3686295,35.4426209 62.8770831,35.3059228 62.5392687,35.0411115 C62.202114,34.7756398 61.9857017,34.3820549 61.8926707,33.853753" id="Fill-27"></path>
                            <path d="M67.0147161,29.4260549 L67.8625512,29.4260549 L67.8625512,28.4704889 L67.0147161,28.4704889 L67.0147161,29.4260549 Z M67.0147161,35.3351115 L67.8625512,35.3351115 L67.8625512,30.3657719 L67.0147161,30.3657719 L67.0147161,35.3351115 Z" id="Fill-29"></path>
                            <path d="M68.9828811,35.7446115 L69.802345,35.8529134 C69.8346749,36.1071587 69.9329842,36.2933851 70.0867161,36.4082907 C70.295211,36.5700832 70.5776027,36.6473473 70.9464275,36.6473473 C71.3324068,36.6473473 71.6345924,36.5700832 71.8496852,36.4129134 C72.0627986,36.2610266 72.2013553,36.0391398 72.2811903,35.7598002 C72.3234171,35.5940455 72.3385924,35.2354605 72.3359532,34.6847058 C71.9691079,35.1198945 71.5092316,35.3351775 70.9576439,35.3351775 C70.2754171,35.3351775 69.7436233,35.092819 69.3721594,34.5968756 C68.9980563,34.1068756 68.8106749,33.5138568 68.8106749,32.8264039 C68.8106749,32.3542341 68.8990872,31.9117813 69.072613,31.5142341 C69.2415202,31.1127247 69.4889429,30.801687 69.81818,30.5877247 C70.1375202,30.3691398 70.525479,30.2548945 70.9635821,30.2548945 C71.549479,30.2548945 72.035747,30.4959322 72.4157883,30.9740455 L72.4157883,30.3651775 L73.1837883,30.3651775 L73.1837883,34.6556492 C73.1837883,35.4282907 73.1006543,35.9744228 72.9475821,36.3006492 C72.7892316,36.6255549 72.5398295,36.8811209 72.2013553,37.0647058 C71.8595821,37.2482907 71.4419326,37.3460266 70.9464275,37.3460266 C70.3539326,37.3460266 69.8742625,37.2126304 69.5087367,36.9491398 C69.1445305,36.6830077 68.9677058,36.2814983 68.9828811,35.7446115 M69.6703862,32.7663096 C69.6703862,33.4161209 69.7983862,33.8909322 70.0537264,34.1900832 C70.3163244,34.4879134 70.6416027,34.6345172 71.0348398,34.6345172 C71.4221388,34.6345172 71.7480769,34.4879134 72.0119945,34.1914039 C72.2706336,33.8942341 72.4045718,33.4273473 72.4045718,32.7953662 C72.4045718,32.1884794 72.2706336,31.727536 71.997479,31.4217813 C71.7276233,31.1127247 71.4003656,30.9555549 71.0196646,30.9555549 C70.6416027,30.9555549 70.3282006,31.1120643 70.0656027,31.417819 C69.8016852,31.7176304 69.6703862,32.1653662 69.6703862,32.7663096" id="Fill-31"></path>
                            <path d="M74.4564646,35.3350455 L74.4564646,30.3657058 L75.2224852,30.3657058 L75.2224852,31.07297 C75.5853718,30.528819 76.1112275,30.2580643 76.794114,30.2580643 C77.0943202,30.2580643 77.3687945,30.3115549 77.6181965,30.4152341 C77.8675986,30.528819 78.0556398,30.6668379 78.1783615,30.8444794 C78.3050419,31.0201398 78.3908151,31.2248568 78.4376604,31.463253 C78.4699903,31.6204228 78.4825264,31.8964605 78.4825264,32.2834417 L78.4825264,35.3350455 L77.6406295,35.3350455 L77.6406295,32.3151398 C77.6406295,31.9697624 77.6076398,31.7174983 77.5423202,31.5464605 C77.4802996,31.3774039 77.3615367,31.2407058 77.1965883,31.1363662 C77.0290006,31.0353285 76.8376604,30.9897624 76.6093718,30.9897624 C76.2570419,30.9897624 75.9469388,31.1007058 75.6882996,31.3265549 C75.4290006,31.5550455 75.2990213,31.9895738 75.2990213,32.623536 L75.2990213,35.3350455 L74.4564646,35.3350455 Z" id="Fill-32"></path>
                            <path d="M57.5095945,39.1032247 L60.0352852,44.5295455 L59.4335532,44.5295455 L58.6015532,42.7511492 L56.2447697,42.7511492 L55.4121099,44.5295455 L54.8097182,44.5295455 L57.3743367,39.1032247 L57.5095945,39.1032247 Z M57.431079,40.2489794 L56.4961512,42.2235077 L58.3554501,42.2235077 L57.431079,40.2489794 Z" id="Fill-33"></path>
                            <polygon id="Fill-34" points="60.2492563 40.5207247 60.7830295 40.5207247 62.0313594 43.4244039 63.3172976 40.5207247 63.3911945 40.5207247 64.6916481 43.4244039 65.9419573 40.5207247 66.4730914 40.5207247 64.758947 44.5292153 64.6494213 44.5292153 63.3601842 41.6578945 62.0768852 44.5292153 61.9812151 44.5292153"></polygon>
                            <path d="M71.0514666,40.5207247 L71.0514666,44.5292153 L70.5401264,44.5292153 L70.5401264,43.8371398 C70.3217347,44.0979889 70.0795903,44.2967624 69.8097347,44.4294983 C69.5378996,44.5622341 69.2475903,44.6342153 68.925611,44.6342153 C68.3555491,44.6342153 67.8732398,44.425536 67.472745,44.0154417 C67.0689512,43.6020455 66.867714,43.1034605 66.867714,42.5097813 C66.867714,41.9326115 67.0689512,41.4386492 67.472745,41.0311964 C67.8804976,40.6197813 68.3694048,40.4130832 68.9401264,40.4130832 C69.2706831,40.4130832 69.5662707,40.4811021 69.834147,40.6237436 C70.1033429,40.7657247 70.3375697,40.9757247 70.5401264,41.2544039 L70.5401264,40.5207247 L71.0514666,40.5207247 Z M68.983013,40.9156304 C68.6940233,40.9156304 68.4281264,40.9889322 68.1866419,41.1262907 C67.9438378,41.2676115 67.751178,41.4650643 67.6086625,41.7219511 C67.4641677,41.9748756 67.3922501,42.2462907 67.3922501,42.5309134 C67.3922501,42.8122341 67.4641677,43.0803473 67.6093223,43.3392153 C67.751178,43.5967624 67.9451573,43.795536 68.1919202,43.940819 C68.4353842,44.0847813 68.7012811,44.1541209 68.9783945,44.1541209 C69.258147,44.1541209 69.5280027,44.0847813 69.7774048,43.9428002 C70.0314254,43.8001587 70.2260646,43.6093096 70.3600027,43.36497 C70.499879,43.1219511 70.5651986,42.8478945 70.5651986,42.5441209 C70.5651986,42.080536 70.4108068,41.6928945 70.1099409,41.3838379 C69.8057759,41.0694983 69.427714,40.9156304 68.983013,40.9156304 L68.983013,40.9156304 Z" id="Fill-35"></path>
                            <path d="M72.0221553,40.5207247 L72.5341553,40.5207247 L72.5341553,41.1051587 C72.6938254,40.8707247 72.8587738,40.7023285 73.0362584,40.5894039 C73.2091244,40.4678945 73.3938666,40.4130832 73.5852068,40.4130832 C73.7250831,40.4130832 73.882114,40.4579889 74.0431037,40.5451587 L73.7732481,40.9889322 C73.6617429,40.9400643 73.5753099,40.9156304 73.4987738,40.9156304 C73.3272275,40.9156304 73.1596398,40.9889322 72.9979903,41.1262907 C72.8396398,41.2715738 72.7169182,41.4914794 72.6331244,41.7820455 C72.5697842,42.0151587 72.5341553,42.4741209 72.5341553,43.1714794 L72.5341553,44.5292153 L72.0221553,44.5292153 L72.0221553,40.5207247 Z" id="Fill-36"></path>
                            <path d="M78.4770501,38.9768285 L78.4770501,44.5292813 L77.962411,44.5292813 L77.962411,43.8358851 C77.7453388,44.0980549 77.5051738,44.2968285 77.2386171,44.4295643 C76.9687615,44.5636209 76.6744934,44.6356021 76.3551532,44.6356021 C75.7916893,44.6356021 75.3047615,44.4242813 74.9042666,44.0155077 C74.503112,43.6007907 74.3051738,43.1035266 74.3051738,42.5098473 C74.3051738,41.9313568 74.5070707,41.4387153 74.9088852,41.0299417 C75.315978,40.6185266 75.8029058,40.4131492 76.3729677,40.4131492 C76.7008852,40.4131492 76.999112,40.4818285 77.2623697,40.6231492 C77.5249677,40.7651304 77.7598543,40.9751304 77.962411,41.2538096 L77.962411,38.9768285 L78.4770501,38.9768285 Z M76.4132151,40.9163568 C76.1288439,40.9163568 75.862947,40.9889983 75.6267409,41.1276775 C75.3793182,41.2683379 75.1919367,41.4664511 75.0461223,41.7220172 C74.9042666,41.9749417 74.8303697,42.2463568 74.8303697,42.530319 C74.8303697,42.8123002 74.9042666,43.0790926 75.0461223,43.3399417 C75.1919367,43.5968285 75.3878955,43.7956021 75.6267409,43.9408851 C75.8708646,44.0835266 76.1288439,44.1535266 76.4132151,44.1535266 C76.6929677,44.1535266 76.954246,44.0835266 77.2062872,43.9428662 C77.4563491,43.8008851 77.6470295,43.6093756 77.7822872,43.3656964 C77.9241429,43.1220172 77.9914419,42.8486209 77.9914419,42.544187 C77.9914419,42.0792813 77.8363903,41.6929605 77.5342048,41.3825832 C77.2306996,41.0695643 76.8572563,40.9163568 76.4132151,40.9163568 L76.4132151,40.9163568 Z" id="Fill-37"></path>
                        </g>
                    </g>
                </g>
            </g>
        </g>
    </g>
</svg>