<?xml version="1.0" encoding="UTF-8"?>
<svg width="220px" height="150px" viewBox="0 0 220 150" version="1.1" xmlns="http://www.w3.org/2000/svg" xmlns:xlink="http://www.w3.org/1999/xlink">
    <!-- Generator: sketchtool 41.1 (35376) - http://www.bohemiancoding.com/sketch -->
    <title>266EFFE9-2ED3-4D85-A195-FDD6DC7C6BEA</title>
    <desc>Created with sketchtool.</desc>
    <defs></defs>
    <g id="newHome" stroke="none" stroke-width="1" fill="none" fill-rule="evenodd">
        <g id="Muse3.0-新首页" transform="translate(-1010.000000, -1963.000000)" fill="#272727">
            <g id="item" transform="translate(0.000000, 1780.000000)">
                <g id="Group-5" transform="translate(130.000000, 60.000000)">
                    <g id="logo-ixdc" transform="translate(880.000000, 123.000000)">
                        <polygon id="Fill-1" points="43 93.0244706 53.337832 93.0244706 53.337832 49.5593277 43 49.5593277"></polygon>
                        <g id="Group-27" transform="translate(43.000000, 49.199529)">
                            <path d="M69.2730688,7.26287059 L67.4238688,7.26448403 L67.4238688,36.8077445 L69.2730688,36.8077445 C77.4009728,36.8077445 83.9948448,30.1953076 83.9948448,22.0350387 C83.9948448,13.8822992 77.4009728,7.26287059 69.2730688,7.26287059 L69.2730688,7.26287059 Z M68.5762688,0.33850084 C76.6602208,0.33850084 83.0005648,2.27732437 87.5774688,6.15443361 C92.1511568,10.0299294 94.4457728,15.3413916 94.4457728,22.0791395 C94.4457728,26.1175933 93.5436848,29.699442 91.7271808,32.8225345 C89.9235408,35.9563832 87.2644448,38.5201479 83.7520368,40.5482487 C81.7629408,41.7045513 79.6017888,42.5354756 77.2508928,43.0453244 C74.9214368,43.5567866 72.0265008,43.8111731 68.5762688,43.8111731 L57.0726368,43.8111731 L57.0726368,0.33850084 L68.5762688,0.33850084 Z" id="Fill-2"></path>
                            <polygon id="Fill-4" points="15.4089816 14.6381445 22.7232376 7.30019496 30.0369576 14.6381445 22.7232376 21.9750185"></polygon>
                            <polygon id="Fill-6" points="44.5249304 43.8550588 33.6226904 32.916437 22.7231304 43.8550588 15.4088744 36.5165714 44.5249304 7.30030252 51.8407944 14.6382521 40.9353384 25.5801008 51.8407944 36.5165714"></polygon>
                            <path d="M133.23947,33.5979563 L132.857302,40.1980235 C131.12227,41.3790655 129.228582,42.2799059 127.16123,42.8946286 C125.093342,43.5201076 122.949878,43.8250487 120.724942,43.8250487 C118.328486,43.8250487 116.042982,43.4571832 113.844846,42.7031664 C111.649926,41.9539899 109.622238,40.8412504 107.77679,39.3816202 C105.159502,37.3174857 103.15647,34.8037378 101.759654,31.8269311 C100.372486,28.8614185 99.6762216,25.6167798 99.6762216,22.1118387 C99.6762216,19.0860908 100.19239,16.2561076 101.214006,13.6170487 C102.248486,10.9774521 103.74339,8.63365378 105.705686,6.61093109 C107.681918,4.58390588 109.970638,3.03607395 112.56863,1.95667899 C115.160726,0.878897479 117.900222,0.338393277 120.781222,0.338393277 C123.053862,0.338393277 125.238062,0.659468908 127.311846,1.30000672 C129.365262,1.92333445 131.323806,2.88010756 133.188014,4.14343529 L128.228942,7.8839395 C126.917886,7.49778824 125.52643,7.28373782 124.083518,7.28373782 C115.962582,7.28373782 109.375142,13.895637 109.375142,22.0424605 C109.375142,30.1952 115.962582,36.8006454 124.083518,36.8006454 C127.54447,36.8006454 130.721878,35.6023933 133.23947,33.5979563" id="Fill-8"></path>
                            <path d="M2.7268464,53.477163 L2.7268464,52.1455328 L10.9898224,52.1455328 L10.9898224,53.477163 L7.5513824,53.477163 L7.5513824,55.0508101 L10.6875184,55.0508101 L10.6875184,56.3819025 L7.5513824,56.3819025 L7.5513824,58.8020706 L9.6621504,58.8020706 C9.1390144,58.1975664 8.6566144,57.692558 8.2144144,57.2891966 L9.0596864,56.5631462 C9.5806784,57.0079193 10.0839824,57.4709782 10.5669184,57.9550118 L9.6621504,58.8020706 L11.1704544,58.8020706 L11.1704544,60.1337008 L2.6051744,60.1337008 L2.6051744,58.8020706 L5.9825104,58.8020706 L5.9825104,56.3819025 L3.0280784,56.3819025 L3.0280784,55.0508101 L5.9825104,55.0508101 L5.9825104,53.477163 L2.7268464,53.477163 Z M1.8821104,61.3437849 L11.8329504,61.3437849 L11.8329504,50.9359866 L1.8821104,50.9359866 L1.8821104,61.3437849 Z M0.2537424,63.4014655 L0.2537424,49.544121 L13.5218864,49.544121 L13.5218864,63.4014655 L11.8329504,63.4014655 L11.8329504,62.6151798 L1.8821104,62.6151798 L1.8821104,63.4014655 L0.2537424,63.4014655 Z" id="Fill-11"></path>
                            <path d="M29.9021536,61.8279798 C29.2991536,60.1731227 28.6747136,58.6209882 28.0320496,57.1683496 L29.3586496,56.6235429 C29.5194496,57.0269042 29.7606496,57.6314084 30.0838576,58.4392067 C30.6037776,59.6890891 31.0079216,60.6576941 31.2893216,61.3439462 L29.9021536,61.8279798 Z M22.6650816,51.3594084 L30.3239856,51.3594084 L30.3239856,49.9067697 L22.6650816,49.9067697 L22.6650816,51.3594084 Z M21.8809136,55.2322151 L21.8809136,53.7188034 L31.0475856,53.7188034 L31.0475856,55.2322151 L27.3084496,55.2322151 L27.3084496,61.4047193 C27.3481136,62.575005 26.7252816,63.1805849 25.4388816,63.2198454 L23.7494096,63.2198454 C23.7086736,62.8170218 23.6089776,62.2910387 23.4492496,61.6461983 C23.8105136,61.6865345 24.2532496,61.7069714 24.7758496,61.7069714 C25.4179776,61.7467697 25.7192096,61.4859294 25.6806176,60.9201479 L25.6806176,55.2322151 L21.8809136,55.2322151 Z M22.6650816,62.0705345 L21.2784496,61.585963 C22.0813776,60.0521143 22.7647776,58.4187697 23.3291856,56.684316 L24.7152816,57.1683496 C24.1514096,58.7414588 23.4690816,60.375879 22.6650816,62.0705345 L22.6650816,62.0705345 Z M17.1164096,63.4010891 L17.1164096,49.6039798 L21.6992096,49.6039798 L21.6992096,51.1168538 L20.6148816,54.9901983 C21.4183456,55.9975261 21.8198096,57.1075765 21.8198096,58.3181983 C21.8198096,59.8106353 21.2371776,60.6388706 20.0713776,60.7996773 C19.7481696,60.8389378 19.4072736,60.8599126 19.0454736,60.8599126 C19.0058096,60.4963496 18.8648416,59.9735933 18.6241776,59.2857277 L18.9254096,59.2857277 C19.2062736,59.3266017 19.4276416,59.3266017 19.5884416,59.2857277 C20.1914416,59.3266017 20.4728416,58.9232403 20.4326416,58.0761815 C20.4326416,57.1075765 20.0113456,56.1185345 19.1660736,55.1106689 L20.2530816,51.0571563 L18.5641456,51.0571563 L18.5641456,63.4010891 L17.1164096,63.4010891 Z" id="Fill-13"></path>
                            <path d="M37.8987376,53.2350387 L37.8987376,51.7824 L41.6984416,51.7824 L41.6984416,48.9389714 L43.2667776,48.9389714 L43.2667776,51.7824 L47.5488816,51.7824 L47.5488816,53.2350387 L43.9292736,53.2350387 C44.8951456,55.6557445 46.3016096,57.6316773 48.1518816,59.1655261 C48.1100736,59.3268706 47.9905456,59.5893244 47.7895456,59.9518118 C47.5874736,60.314837 47.4475776,60.5966521 47.3671776,60.7994084 C45.4365056,58.944484 44.0702416,56.8873412 43.2667776,54.6269042 L43.2667776,59.3467697 L45.4981456,59.3467697 L45.4981456,60.7380975 L43.2667776,60.7380975 L43.2667776,63.3416605 L41.6984416,63.3416605 L41.6984416,60.7380975 L39.4670736,60.7380975 L39.4670736,59.3467697 L41.6984416,59.3467697 L41.6984416,54.6876773 C40.8537056,57.0266353 39.5271056,59.1445513 37.7170336,61.0414252 C37.5975056,60.7601479 37.3750656,60.314837 37.0540016,59.709795 C36.9339376,59.5495261 36.8530016,59.4285176 36.8133376,59.3467697 C38.7016656,57.7731227 40.1097376,55.7369546 41.0354096,53.2350387 L37.8987376,53.2350387 Z M35.2450016,63.3416605 L35.2450016,55.7767529 C34.8022656,56.4215933 34.3407696,57.0874084 33.8578336,57.7731227 C33.8165616,57.4106353 33.7163296,56.9056269 33.5560656,56.2607866 C33.5164016,55.9800471 33.4751296,55.7767529 33.4360016,55.6557445 C34.6816656,53.8008202 35.6872016,51.5618958 36.4504656,48.9389714 L38.0799056,49.3622319 C37.6768336,50.6121143 37.2351696,51.761963 36.7533056,52.8112403 L36.7533056,63.3416605 L35.2450016,63.3416605 Z" id="Fill-15"></path>
                            <path d="M60.1908704,60.1337008 C60.1088624,59.4071126 59.9094704,58.4186084 59.5878704,57.1687261 C59.5063984,56.8454992 59.4447584,56.6034824 59.4061664,56.4421378 L60.6721984,56.200121 C60.9932624,57.4107429 61.2757344,58.6418017 61.5180064,59.8922218 L60.1908704,60.1337008 Z M60.4926384,50.9359866 C59.8896384,52.0245244 58.9628944,53.0738017 57.7177664,54.082205 L63.3264704,54.082205 C62.1595984,53.1533983 61.2157024,52.1062723 60.4926384,50.9359866 L60.4926384,50.9359866 Z M57.6582704,60.799516 C57.3757984,59.4678857 57.0139984,58.1367933 56.5712624,56.805163 L57.8378304,56.5029109 C58.0795664,57.1902387 58.4204624,58.3185748 58.8631984,59.8922218 C58.9039344,60.1337008 58.9430624,60.3149445 58.9848704,60.4359529 L57.6582704,60.799516 Z M56.2094624,62.7356504 L56.2094624,61.4653311 L61.3968704,61.4653311 C62.1210064,59.1656336 62.6028704,57.4500034 62.8440704,56.3211294 L64.2307024,56.6841546 C63.7493744,58.2976 63.2455344,59.8922218 62.7240064,61.4653311 L64.7736704,61.4653311 L64.7736704,62.7356504 L56.2094624,62.7356504 Z M64.5925024,54.9292639 C64.1497664,54.6479866 63.7493744,54.3634824 63.3870384,54.082205 L63.3870384,55.4132975 L57.4760304,55.4132975 L57.4760304,54.2639866 L57.4165344,54.3247597 C57.1747984,54.5269782 56.8328304,54.7679193 56.3911664,55.0508101 C56.2292944,54.606037 55.9875584,54.1429782 55.6664944,53.6589445 C57.6770304,52.4090622 59.1054704,50.8144403 59.9485984,48.8783059 L61.5180064,49.0600874 L61.2157024,49.6645916 C62.3000304,51.2774992 63.6287744,52.5300706 65.1960384,53.4163899 C64.9559104,53.9004235 64.7533024,54.4059697 64.5925024,54.9292639 L64.5925024,54.9292639 Z M51.7472624,63.1594487 L51.7472624,63.0379025 C51.7065264,62.6356168 51.6261264,62.1704067 51.5055264,61.6465748 C52.1085264,61.6863731 52.6906224,61.7068101 53.2555664,61.7068101 C54.0182944,61.7466084 54.3999264,61.4443563 54.3999264,60.799516 C54.4808624,59.6292303 54.5210624,58.4186084 54.5210624,57.1687261 L50.9630944,57.1687261 L51.3243584,51.662037 L52.7115264,51.662037 L52.4102944,55.7160874 L53.7974624,55.7160874 L54.1587264,50.9967597 L50.7213584,50.9967597 L50.7213584,49.6038185 L55.6664944,49.6038185 L55.1846304,55.7160874 L56.0288304,55.7160874 C55.9875584,56.2399193 55.9473584,57.2085244 55.9082304,58.6208269 C55.8272944,59.7916504 55.7876304,60.5967597 55.7876304,61.040995 C55.7876304,62.4543731 55.0034624,63.1594487 53.4351264,63.1594487 L51.7472624,63.1594487 Z M50.5401904,60.3149445 L50.4806944,58.8020706 C50.6409584,58.7628101 50.9014544,58.7213983 51.2637904,58.6810622 C52.3893904,58.5600538 53.2748624,58.4600202 53.9180624,58.3793479 C53.8783984,58.8628437 53.8783984,59.3269782 53.9180624,59.7706756 C52.7511904,59.9314824 51.6261264,60.1127261 50.5401904,60.3149445 L50.5401904,60.3149445 Z" id="Fill-17"></path>
                            <path d="M74.3990512,56.6841008 C75.0411792,57.8554622 75.8055152,58.8235294 76.6925952,59.5893782 C77.6959872,58.8627899 78.5412592,57.8941849 79.2241232,56.6841008 L74.3990512,56.6841008 Z M72.7706832,54.8689748 C72.6109552,54.626958 72.2470112,54.2241345 71.6858192,53.6588908 C73.0922832,53.0538487 73.7354832,52.1460168 73.6154192,50.9359328 L73.6154192,49.5440672 L80.0693952,49.5440672 L80.0693952,52.0244706 C80.0275872,52.5897143 80.2891552,52.8510924 80.8530272,52.8112941 L82.1806992,52.8112941 L81.9389632,54.2031597 L80.1894592,54.2031597 C79.0220512,54.2031597 78.4592512,53.7191261 78.4999872,52.7510588 L78.4999872,50.9967059 L75.1832192,50.9967059 L75.1832192,51.3591933 C75.3038192,52.8112941 74.4987472,53.9826555 72.7706832,54.8689748 L72.7706832,54.8689748 Z M71.9270192,63.4014118 C71.8450112,63.2809412 71.7051152,63.0378487 71.5041152,62.6758992 C71.3036512,62.3521345 71.1621472,62.1101176 71.0828192,61.9487731 C72.8098112,61.5464874 74.2377152,61.041479 75.3643872,60.436437 C74.4392512,59.5893782 73.5945152,58.4389916 72.8307152,56.9868908 L73.3736832,56.6841008 L72.3483152,56.6841008 L72.3483152,55.232 L80.9736272,55.232 L80.9736272,56.8051092 C80.1674832,58.2577479 79.2042912,59.4893445 78.0792272,60.4966723 C79.1228192,61.0624538 80.4515632,61.4862521 82.0584912,61.7680672 C81.7347472,62.3327731 81.4763952,62.8356303 81.2753952,63.2809412 C79.2241232,62.635563 77.6959872,62.030521 76.6925952,61.4652773 C75.4453232,62.2305882 73.8566192,62.8775798 71.9270192,63.4014118 L71.9270192,63.4014118 Z M70.4187152,52.5698151 C70.3372432,52.4875294 70.2166432,52.3476975 70.0569152,52.1460168 C69.6131072,51.5796975 69.0503072,50.8353613 68.3674432,49.9065546 L69.6945792,49.0600336 C70.4996512,49.9065546 71.2227152,50.7751261 71.8659152,51.6619832 L70.4187152,52.5698151 Z M69.6340112,62.5543529 L68.6097152,61.4652773 C68.8900432,61.0624538 69.0310112,60.6176807 69.0310112,60.1336471 L69.0310112,55.2933109 L67.5243152,55.2933109 L67.5243152,53.780437 L70.5998832,53.780437 L70.5998832,59.5280672 C71.0828192,59.0445714 71.5641472,58.539563 72.0476192,58.0157311 C72.2470112,58.6207731 72.4287152,59.1263193 72.5900512,59.5280672 C72.3885152,59.7313613 72.0663792,60.052437 71.6252512,60.4966723 C71.1015792,60.9812437 70.7006512,61.3647059 70.4187152,61.646521 C70.1373152,61.9702857 69.8762832,62.2730756 69.6340112,62.5543529 L69.6340112,62.5543529 Z" id="Fill-19"></path>
                            <path d="M89.3926864,55.4133513 L89.3926864,53.7800067 L93.3719504,53.7800067 L93.3719504,48.9391328 L95.1230624,48.9391328 L95.1230624,53.7800067 L99.1033984,53.7800067 L99.1033984,55.4133513 L95.1230624,55.4133513 L95.1230624,63.341284 L93.3719504,63.341284 L93.3719504,55.4133513 L89.3926864,55.4133513 Z M87.9449504,52.5693849 C87.1795424,51.6825277 86.3964464,50.8144941 85.5924464,49.9674353 L86.9195824,48.9988303 C87.2015184,49.2806454 87.6024464,49.6856202 88.1255824,50.2094521 C88.6873104,50.7746958 89.0903824,51.1984941 89.3321184,51.4797714 L87.9449504,52.5693849 Z M86.7984464,63.2805109 L85.7141184,61.9488807 C86.0764544,61.6256538 86.2570864,61.1615193 86.2570864,60.5570151 L86.2570864,55.353116 L84.5676144,55.353116 L84.5676144,53.840242 L87.8849184,53.840242 L87.8849184,60.2542252 C88.4879184,59.8524773 89.2318864,59.3264941 90.1162864,58.681116 C90.2760144,59.4469647 90.4373504,60.0342588 90.5986864,60.4360067 C89.4720144,61.2023933 88.4680864,61.8886454 87.5826144,62.4936874 C87.4218144,62.6152336 87.2406464,62.7964773 87.0401824,63.0379563 C86.9195824,63.1595025 86.8397184,63.2407126 86.7984464,63.2805109 L86.7984464,63.2805109 Z" id="Fill-21"></path>
                            <path d="M114.758458,54.6271193 C115.360922,55.9582118 115.88513,57.0870857 116.326794,58.0153546 L115.000194,58.8021782 L114.095426,56.5024807 C114.012346,58.6004975 113.975362,60.0343126 113.975362,60.7996235 C113.89389,62.2909849 113.191194,63.0380101 111.864058,63.0380101 C111.501722,63.0778084 110.800098,63.0987832 109.75329,63.0987832 C109.671818,62.4937412 109.57105,61.9887328 109.452058,61.5859092 L111.201026,61.5859092 C111.96429,61.6257076 112.345386,61.2223462 112.345386,60.3758252 C112.426858,58.6811697 112.506186,56.2819765 112.587658,53.1744807 L110.35629,53.1744807 L110.295722,54.8691361 C110.214786,58.9027496 108.908018,61.746716 106.375954,63.4010353 C106.255354,63.2805647 106.053282,63.0987832 105.772954,62.8573042 C105.530146,62.6152874 105.328074,62.4329681 105.169954,62.3124975 C107.54229,60.6576403 108.727386,58.1578756 108.727386,54.808363 L108.786882,53.1744807 L106.193714,53.1744807 L106.193714,51.7229176 L108.847986,51.7229176 L108.908018,48.9391866 L110.477962,48.9391866 C110.477962,49.2618756 110.456522,49.7459092 110.41525,50.3907496 L110.41525,51.7229176 L114.21549,51.7229176 L114.155458,54.8691361 L114.758458,54.6271193 Z M106.134754,59.044195 L104.86765,58.3794555 C105.552122,57.0472874 106.074722,55.797405 106.437058,54.6271193 L107.763658,55.1106151 C107.119922,56.7240605 106.576954,58.0368672 106.134754,59.044195 L106.134754,59.044195 Z M101.430818,54.3845647 L101.430818,52.8727664 L102.757954,52.8727664 L102.757954,48.9391866 L104.324682,48.9391866 L104.324682,52.8727664 L105.651818,52.8727664 L105.651818,54.3845647 L104.324682,54.3845647 L104.324682,63.3413378 L102.757954,63.3413378 L102.757954,54.3845647 L101.430818,54.3845647 Z" id="Fill-23"></path>
                            <path d="M125.891446,50.6932706 C124.726182,51.9845647 123.459614,53.0736403 122.090134,53.9615731 L129.508374,53.9615731 C128.022046,53.0322286 126.817654,51.9436908 125.891446,50.6932706 L125.891446,50.6932706 Z M118.892894,58.6809008 L118.892894,57.1685647 L132.585014,57.1685647 L132.585014,58.6809008 L125.228414,58.6809008 C124.303278,59.6495059 123.417806,60.5788504 122.574142,61.4651697 C122.856614,61.4651697 123.278446,61.444195 123.84071,61.4049345 C125.852318,61.3645983 127.420118,61.3049008 128.543574,61.2226151 L127.216974,59.8307496 L128.362942,58.9234555 C128.768158,59.3268168 129.38831,59.951758 130.231438,60.7998924 C130.998454,61.4861445 131.559646,62.0099765 131.921982,62.3730017 L130.654878,63.4620773 C130.37455,63.0990521 130.072782,62.7752874 129.750646,62.4934723 C127.902518,62.4934723 125.52911,62.5935059 122.63471,62.7962622 C121.910038,62.8360605 121.288278,62.9172706 120.765142,63.038279 L119.979902,61.5861782 C120.505182,61.3436235 120.944702,61.0413714 121.307038,60.6783462 C121.789438,60.2341109 122.413878,59.5682958 123.175534,58.6809008 L118.892894,58.6809008 Z M132.103686,55.4744471 C131.662022,55.2318924 131.037582,54.889842 130.231438,54.4450689 C129.992918,54.2853378 129.810142,54.1632538 129.690614,54.0820437 L129.690614,55.4744471 L121.789438,55.4744471 L121.789438,54.2030521 C121.02671,54.6876235 120.202342,55.1716571 119.317942,55.6556908 C119.196806,55.3744134 118.935774,54.9506151 118.532702,54.3842958 C118.491966,54.3030857 118.45391,54.2428504 118.412102,54.2030521 C121.470518,52.7106151 123.739942,50.9148504 125.228414,48.8179092 L127.157478,48.9991529 L126.795142,49.4826487 C128.242878,51.3795227 130.334886,52.8724975 133.067414,53.9615731 C132.746886,54.4450689 132.42475,54.9506151 132.103686,55.4744471 L132.103686,55.4744471 Z" id="Fill-25"></path>
                        </g>
                    </g>
                </g>
            </g>
        </g>
    </g>
</svg>