<?xml version="1.0" encoding="UTF-8"?>
<svg width="512px" height="524px" viewBox="0 0 512 524" version="1.1" xmlns="http://www.w3.org/2000/svg" xmlns:xlink="http://www.w3.org/1999/xlink">
    <!-- Generator: Sketch 41.2 (35397) - http://www.bohemiancoding.com/sketch -->
    <title>em-title-cate</title>
    <desc>Created with Sketch.</desc>
    <defs></defs>
    <g id="newHome" stroke="none" stroke-width="1" fill="none" fill-rule="evenodd">
        <g id="Group-28" fill="#222222">
            <path d="M50.296,23.92 C51.232,23.92 51.928,23.68 52.36,23.248 C52.864,22.624 53.2,21.136 53.344,18.76 L52.576,18.52 C52.432,20.776 52.144,22.144 51.76,22.624 C51.448,22.96 50.896,23.152 50.128,23.152 L46.312,23.152 C45.448,23.152 45.04,22.648 45.04,21.688 L45.04,16.768 C48.064,15.088 50.656,13.144 52.864,10.912 L52.288,10.312 C50.368,12.376 47.968,14.224 45.04,15.88 L45.04,8.992 L44.248,8.992 L44.248,16.312 C42.856,17.032 41.368,17.728 39.76,18.4 L40.24,19.072 C41.632,18.496 42.952,17.872 44.248,17.2 L44.248,21.856 C44.248,23.224 44.848,23.92 46.072,23.92 L50.296,23.92 Z M36.64,14.008 L36.64,24.376 L37.456,24.376 L37.456,12.904 C38.224,11.776 38.896,10.576 39.472,9.28 L38.728,8.944 C37.456,12.016 35.32,14.776 32.344,17.248 L32.584,18.064 C34.12,16.864 35.464,15.496 36.64,14.008 Z M32.776,4.984 L32.776,5.8 L38.296,5.8 L38.296,8.296 L39.088,8.296 L39.088,5.8 L46.936,5.8 L46.936,8.296 L47.728,8.296 L47.728,5.8 L53.248,5.8 L53.248,4.984 L47.728,4.984 L47.728,2.464 L46.936,2.464 L46.936,4.984 L39.088,4.984 L39.088,2.464 L38.296,2.464 L38.296,4.984 L32.776,4.984 Z M74.944,18.208 L74.416,18.376 C74.608,19.432 74.8,20.512 74.968,21.64 C74.392,21.928 73.792,22.168 73.168,22.336 L73.168,5.08 C73.768,4.936 74.368,4.792 74.944,4.648 C75.04,12.64 76.144,19.096 78.256,23.992 L78.808,23.464 C76.72,18.664 75.64,12.304 75.592,4.432 L76.72,4 L76.192,3.4 C74.512,4.12 72.4,4.576 69.88,4.768 L69.88,13.408 C69.808,17.344 69.088,20.752 67.72,23.608 L68.296,24.184 C69.712,21.208 70.456,17.632 70.552,13.408 L70.552,5.44 C71.2,5.368 71.848,5.272 72.472,5.176 L72.472,22.024 C72.472,22.288 72.328,22.48 72.064,22.576 L72.184,23.272 C73.24,23.008 74.2,22.696 75.064,22.312 L75.256,23.944 L75.856,23.8 C75.592,21.688 75.28,19.84 74.944,18.208 Z M65.2,2.632 L64.384,2.776 C64.672,3.616 64.936,4.576 65.176,5.632 L62.344,5.632 L62.344,6.376 L68.584,6.376 L68.584,5.632 L65.944,5.632 C65.728,4.48 65.488,3.496 65.2,2.632 Z M65.128,12.904 C65.104,14.2 65.056,15.424 64.96,16.552 L62.584,16.552 L62.584,17.296 L64.888,17.296 L64.672,18.712 C64.288,20.68 63.544,22.264 62.44,23.512 L62.968,24.184 C64.24,22.792 65.08,20.944 65.512,18.688 C65.56,18.256 65.632,17.776 65.68,17.296 L68.176,17.296 L68.176,16.552 L65.752,16.552 C65.824,15.448 65.872,14.248 65.896,12.904 L68.608,12.904 L68.608,12.112 L66.712,12.112 C67.216,10.72 67.6,9.208 67.84,7.6 L67.12,7.48 C66.88,9.112 66.496,10.648 65.968,12.112 L62.2,12.112 L62.2,12.904 L65.128,12.904 Z M80.272,12.856 L80.272,16.72 L77.872,16.72 L77.872,17.464 L80.272,17.464 L80.272,24.112 L81.064,24.112 L81.064,17.464 L83.608,17.464 L83.608,16.72 L81.064,16.72 L81.064,12.856 L83.992,12.856 L83.992,12.088 L81.904,12.088 C82.408,10.696 82.792,9.16 83.056,7.504 L82.336,7.408 C82.096,9.04 81.712,10.6 81.184,12.088 L77.296,12.088 L77.296,12.856 L80.272,12.856 Z M80.224,2.44 L79.408,2.608 C79.744,3.472 80.032,4.48 80.296,5.632 L77.248,5.632 L77.248,6.376 L83.944,6.376 L83.944,5.632 L81.088,5.632 C80.8,4.432 80.512,3.352 80.224,2.44 Z M78.592,7.624 L77.92,7.912 C78.376,8.824 78.808,9.88 79.192,11.104 L79.84,10.816 C79.504,9.688 79.072,8.632 78.592,7.624 Z M63.472,7.576 L62.8,7.84 C63.256,8.8 63.688,9.904 64.12,11.2 L64.768,10.912 C64.408,9.736 63.976,8.632 63.472,7.576 Z M93.424,5.224 L93.424,5.992 L102.592,5.992 L102.592,9.064 L94.744,9.064 L94.744,9.832 L102.592,9.832 L102.592,12.928 L92.608,12.928 L92.608,13.744 L113.392,13.744 L113.392,12.928 L103.408,12.928 L103.408,9.832 L111.352,9.832 L111.352,9.064 L103.408,9.064 L103.408,5.992 L112.576,5.992 L112.576,5.224 L106.648,5.224 C107.176,4.384 107.56,3.472 107.8,2.512 L106.96,2.392 C106.72,3.376 106.336,4.312 105.832,5.224 L100.264,5.224 C99.832,4.168 99.4,3.232 98.92,2.416 L98.104,2.56 C98.608,3.328 99.04,4.216 99.424,5.224 L93.424,5.224 Z M102.76,14.608 C102.616,15.472 102.424,16.312 102.136,17.104 L93.184,17.104 L93.184,17.92 L101.776,17.92 C101.296,18.904 100.648,19.744 99.832,20.464 C98.248,21.832 95.68,22.864 92.104,23.584 L92.464,24.4 C96.304,23.584 98.968,22.456 100.48,21.016 C101.416,20.152 102.16,19.12 102.688,17.92 L102.928,17.92 C104.584,21.04 108.112,23.152 113.512,24.304 L113.944,23.56 C108.856,22.576 105.448,20.704 103.768,17.92 L112.84,17.92 L112.84,17.104 L103.024,17.104 C103.264,16.384 103.456,15.568 103.576,14.704 L102.76,14.608 Z M125.848,3.688 L125.848,14.008 L140.056,14.008 L140.056,3.688 L125.848,3.688 Z M139.264,13.216 L133.336,13.216 L133.336,9.232 L139.264,9.232 L139.264,13.216 Z M132.52,13.216 L126.664,13.216 L126.664,9.232 L132.52,9.232 L132.52,13.216 Z M126.664,8.464 L126.664,4.48 L132.52,4.48 L132.52,8.464 L126.664,8.464 Z M133.336,4.48 L139.264,4.48 L139.264,8.464 L133.336,8.464 L133.336,4.48 Z M125.248,16.408 C124.576,18.952 123.544,21.184 122.176,23.104 L122.872,23.56 C124.216,21.592 125.272,19.264 126.04,16.576 L125.248,16.408 Z M132.832,15.304 L132.088,15.568 C133.048,16.864 133.936,18.328 134.752,19.984 L135.52,19.672 C134.752,18.112 133.864,16.648 132.832,15.304 Z M139.792,15.856 L139.024,16.12 C140.464,18.016 141.76,20.2 142.96,22.696 L143.68,22.36 C142.6,20.056 141.304,17.896 139.792,15.856 Z M136.312,23.968 C137.224,23.968 137.896,23.776 138.304,23.416 C138.808,22.888 139.12,21.64 139.264,19.648 L138.472,19.384 C138.328,21.232 138.064,22.36 137.68,22.744 C137.416,23.032 136.912,23.176 136.168,23.176 L130.6,23.176 C129.544,23.176 129.04,22.6 129.04,21.496 L129.04,16.48 L128.224,16.48 L128.224,21.664 C128.224,23.2 128.92,23.968 130.36,23.968 L136.312,23.968 Z M155.248,20.08 C154.912,20.08 154.672,20.152 154.504,20.344 C154.312,20.512 154.24,20.752 154.24,21.088 C154.24,21.328 154.336,21.568 154.528,21.76 C154.72,21.952 154.936,22.048 155.2,22.048 C155.44,22.048 155.584,22.024 155.656,22 C155.656,22.576 155.536,23.056 155.248,23.464 C154.936,23.896 154.48,24.184 153.88,24.376 L153.88,25.096 C154.624,24.928 155.248,24.544 155.728,23.968 C156.208,23.368 156.472,22.648 156.472,21.832 C156.472,21.304 156.376,20.872 156.184,20.584 C155.944,20.248 155.632,20.08 155.248,20.08 Z M188.92,10.624 L199.384,10.624 L199.384,14.032 L188.92,14.032 L188.92,10.624 Z M199.384,14.824 L199.384,18.16 L188.92,18.16 L188.92,14.824 L199.384,14.824 Z M199.384,18.928 L199.384,22.576 C199.384,23.2 199.024,23.512 198.352,23.512 C197.536,23.512 196.672,23.488 195.712,23.464 L195.928,24.232 L198.616,24.232 C199.648,24.208 200.176,23.728 200.176,22.816 L200.176,9.88 L188.68,9.88 C189.448,8.752 190.12,7.552 190.696,6.304 L203.512,6.304 L203.512,5.512 L191.056,5.512 C191.464,4.552 191.824,3.544 192.16,2.488 L191.32,2.392 C190.984,3.448 190.6,4.48 190.144,5.512 L182.776,5.512 L182.776,6.304 L189.784,6.304 C188.056,9.856 185.512,12.952 182.152,15.616 L182.656,16.288 C184.768,14.608 186.592,12.712 188.128,10.648 L188.128,24.232 L188.92,24.232 L188.92,18.928 L199.384,18.928 Z M216.664,3.808 L216.664,10.84 L229.264,10.84 L229.264,3.808 L216.664,3.808 Z M228.424,10.024 L217.504,10.024 L217.504,4.624 L228.424,4.624 L228.424,10.024 Z M221.296,14.152 L213.568,14.152 L213.568,23.92 L214.384,23.92 L214.384,22.576 L220.48,22.576 L220.48,23.92 L221.296,23.92 L221.296,14.152 Z M214.384,21.784 L214.384,14.944 L220.48,14.944 L220.48,21.784 L214.384,21.784 Z M232.408,14.152 L224.464,14.152 L224.464,23.92 L225.28,23.92 L225.28,22.576 L231.592,22.576 L231.592,23.92 L232.408,23.92 L232.408,14.152 Z M225.28,21.784 L225.28,14.944 L231.592,14.944 L231.592,21.784 L225.28,21.784 Z M246.544,8.2 L246.544,9.016 L254.44,9.016 C254.248,10.024 254.032,11.056 253.744,12.064 L249.016,12.064 L249.016,20.128 L249.808,20.128 L249.808,12.88 L260.152,12.88 L260.152,19.936 L260.944,19.936 L260.944,12.064 L254.584,12.064 C254.848,11.104 255.088,10.096 255.28,9.016 L263.44,9.016 L263.44,8.2 L255.424,8.2 C255.568,7.384 255.664,6.568 255.76,5.704 L254.944,5.584 C254.848,6.448 254.728,7.312 254.584,8.2 L246.544,8.2 Z M261.952,2.872 C256.84,3.736 251.176,4.192 244.984,4.24 L244.984,11.536 C244.84,16.552 243.856,20.488 242.08,23.32 L242.656,23.92 C244.624,20.848 245.656,16.72 245.776,11.536 L245.776,5.008 C251.92,4.912 257.44,4.432 262.36,3.616 L261.952,2.872 Z M256.12,19.672 L255.688,20.296 C258.184,21.256 260.632,22.576 263.032,24.232 L263.488,23.56 C261.28,22.024 258.808,20.728 256.12,19.672 Z M254.968,14.128 C254.68,16.768 253.864,18.808 252.52,20.2 C251.152,21.592 249.016,22.672 246.088,23.488 L246.52,24.232 C249.52,23.368 251.752,22.192 253.192,20.704 C254.632,19.192 255.472,17.008 255.76,14.176 L254.968,14.128 Z M280.312,6.952 L276.256,6.952 C276.784,5.632 277.168,4.192 277.432,2.632 L276.616,2.512 C276.376,4.072 275.992,5.56 275.464,6.952 L273.352,6.952 L273.352,23.488 L274.168,23.488 L274.168,21.232 L279.496,21.232 L279.496,22.816 L280.312,22.816 L280.312,6.952 Z M274.168,20.464 L274.168,14.344 L279.496,14.344 L279.496,20.464 L274.168,20.464 Z M274.168,13.576 L274.168,7.768 L279.496,7.768 L279.496,13.576 L274.168,13.576 Z M284.272,12.208 L283.624,12.64 C285.496,14.608 286.984,16.408 288.04,18.04 L288.688,17.56 C287.68,16.024 286.192,14.248 284.272,12.208 Z M292.768,7 L284.728,7 C285.232,5.632 285.64,4.168 285.928,2.584 L285.136,2.488 C284.488,6.04 283.264,9.064 281.464,11.512 L281.944,12.16 C282.904,10.864 283.72,9.424 284.392,7.816 L291.976,7.816 C291.928,14.872 291.832,19.192 291.64,20.776 C291.424,22.36 290.584,23.176 289.12,23.176 C288.448,23.176 287.632,23.152 286.696,23.152 L286.912,23.92 C287.968,23.92 288.736,23.944 289.168,23.944 C291.136,23.944 292.216,22.912 292.432,20.896 C292.648,19.12 292.768,14.488 292.768,7 Z M304.528,3.136 L303.952,3.688 C305.536,4.984 306.784,6.208 307.72,7.36 L308.296,6.784 C307.288,5.584 306.016,4.36 304.528,3.136 Z M302.224,10.192 L302.224,11.008 L305.848,11.008 L305.848,21.76 C305.848,22 305.704,22.24 305.44,22.504 L305.776,23.224 C307.384,22.168 308.896,20.944 310.288,19.6 L310.072,18.712 C308.824,19.912 307.696,20.896 306.664,21.664 L306.664,10.192 L302.224,10.192 Z M310.696,12.928 L310.696,13.744 L311.944,13.744 C312.688,16.096 314.128,18.184 316.264,20.008 C314.344,21.472 311.968,22.648 309.112,23.56 L309.568,24.256 C312.496,23.344 314.944,22.096 316.912,20.536 C318.688,21.928 320.944,23.176 323.632,24.232 L324.088,23.536 C321.496,22.552 319.288,21.376 317.488,20.032 C319.456,18.304 320.896,16.216 321.76,13.72 L321.76,12.928 L310.696,12.928 Z M312.736,13.744 L320.944,13.744 C320.104,15.976 318.736,17.896 316.84,19.528 C314.824,17.848 313.456,15.928 312.736,13.744 Z M312.784,3.688 L312.784,5.656 C312.784,7.96 311.68,9.736 309.52,10.984 L310.072,11.608 C312.424,10.192 313.624,8.176 313.624,5.56 L313.624,4.48 L319.336,4.48 L319.336,9.232 C319.336,10.336 319.888,10.912 321.04,10.912 L323.536,10.912 L323.536,10.144 L321.16,10.144 C320.488,10.144 320.176,9.808 320.176,9.136 L320.176,3.688 L312.784,3.688 Z M339.712,10.048 L339.712,10.864 L346.552,10.864 L346.552,24.328 L347.416,24.328 L347.416,10.864 L353.92,10.864 L353.92,10.048 L347.416,10.048 L347.416,2.488 L346.552,2.488 L346.552,10.048 L339.712,10.048 Z M334.456,2.824 L333.88,3.376 C335.68,4.768 337.144,6.088 338.248,7.336 L338.8,6.76 C337.624,5.44 336.184,4.12 334.456,2.824 Z M332.224,10.144 L332.224,10.96 L336.04,10.96 L336.04,21.736 C336.04,21.952 335.896,22.192 335.632,22.432 L335.968,23.152 C337.6,22.048 339.112,20.8 340.528,19.384 L340.336,18.52 C339.088,19.72 337.912,20.752 336.832,21.592 L336.832,10.144 L332.224,10.144 Z M364.96,10.192 L369.688,10.192 L369.688,14.992 L364.96,14.992 L364.96,10.192 Z M369.688,9.448 L364.96,9.448 L364.96,4.6 L369.688,4.6 L369.688,9.448 Z M364.936,15.784 L369.688,15.784 L369.688,22.192 C369.688,23.056 369.304,23.512 368.536,23.512 C367.96,23.512 367.336,23.488 366.664,23.464 L366.856,24.232 L368.776,24.232 C369.904,24.232 370.48,23.632 370.48,22.48 L370.48,3.808 L364.216,3.808 L364.216,14.92 C364.192,18.472 363.688,21.424 362.728,23.728 L363.352,24.304 C364.312,22.096 364.84,19.24 364.936,15.784 Z M373.888,13.408 L374.896,13.408 C375.472,15.976 376.648,18.256 378.424,20.224 C377.344,21.568 376.024,22.672 374.464,23.536 L374.896,24.208 C376.48,23.344 377.824,22.216 378.952,20.8 C380.176,22.048 381.688,23.176 383.512,24.184 L383.92,23.488 C382.168,22.528 380.68,21.424 379.432,20.176 C380.704,18.352 381.616,16.096 382.168,13.384 L382.168,12.664 L373.888,12.664 L373.888,4.576 L381.4,4.576 C381.376,6.76 381.256,8.2 381.016,8.92 C380.848,9.328 380.608,9.592 380.272,9.688 C379.936,9.784 379.432,9.856 378.76,9.856 C378.088,9.856 377.536,9.832 377.128,9.832 L377.344,10.576 L379.144,10.576 C380.656,10.576 381.544,10.096 381.784,9.16 C382.072,8.296 382.216,6.496 382.216,3.784 L373.096,3.784 L373.096,24.304 L373.888,24.304 L373.888,13.408 Z M375.64,13.408 L381.4,13.408 C380.896,15.808 380.056,17.872 378.88,19.6 C377.272,17.8 376.192,15.736 375.64,13.408 Z M399.76,2.464 C398.704,4.984 396.664,7.12 393.64,8.848 L394.144,9.496 C395.488,8.704 396.64,7.816 397.648,6.856 C399.04,8.152 400.6,9.304 402.304,10.264 C399.424,11.56 396.064,12.496 392.176,13.048 L392.536,13.816 C396.592,13.192 400.12,12.16 403.144,10.72 C406.168,12.304 409.6,13.336 413.464,13.816 L413.848,13.024 C410.176,12.592 406.912,11.68 404.032,10.264 C406.504,8.968 408.568,7.336 410.248,5.392 L410.248,4.72 L399.448,4.72 C399.88,4.048 400.264,3.328 400.6,2.56 L399.76,2.464 Z M403.192,9.856 C401.368,8.872 399.712,7.672 398.224,6.28 C398.44,6.04 398.656,5.776 398.896,5.488 L409.12,5.488 C407.488,7.216 405.52,8.68 403.192,9.856 Z M402.088,12.904 C402.088,14.032 401.968,15.088 401.728,16.072 L393.784,16.072 L393.784,16.816 L401.536,16.816 C401.296,17.584 400.96,18.28 400.552,18.952 C399.16,20.872 396.496,22.408 392.512,23.608 L393.064,24.28 C397.384,22.912 400.216,21.136 401.536,18.952 C401.872,18.304 402.16,17.584 402.376,16.816 L410.44,16.816 C410.344,19.72 410.056,21.52 409.624,22.24 C409.168,22.936 408.04,23.296 406.264,23.32 C405.592,23.296 404.752,23.272 403.744,23.248 L403.96,24.016 C404.944,24.04 405.784,24.064 406.456,24.064 C408.208,24.064 409.432,23.68 410.152,22.912 C410.872,22.168 411.232,19.888 411.28,16.072 L402.568,16.072 C402.76,15.112 402.88,14.056 402.88,12.904 L402.088,12.904 Z M423.448,3.856 L423.448,4.672 L432.496,4.672 L432.496,14.656 L422.488,14.656 L422.488,15.448 L432.496,15.448 L432.496,24.28 L433.312,24.28 L433.312,15.448 L443.512,15.448 L443.512,14.656 L433.312,14.656 L433.312,4.672 L442.6,4.672 L442.6,3.856 L423.448,3.856 Z M425.68,6.856 L424.936,7.24 C425.896,8.872 426.784,10.768 427.624,12.88 L428.392,12.52 C427.552,10.48 426.64,8.584 425.68,6.856 Z M440.344,6.688 C439.6,8.608 438.592,10.528 437.296,12.472 L438.016,12.856 C439.288,10.96 440.32,9.016 441.112,7.024 L440.344,6.688 Z M470.704,14.632 L455.296,14.632 L455.296,24.304 L456.112,24.304 L456.112,22.768 L469.888,22.768 L469.888,24.304 L470.704,24.304 L470.704,14.632 Z M456.112,21.952 L456.112,15.424 L469.888,15.424 L469.888,21.952 L456.112,21.952 Z M453.352,11.752 C459.736,11.488 465.472,11.128 470.584,10.648 C471.256,11.56 471.904,12.544 472.576,13.576 L473.344,13.192 C471.472,10.312 469.432,7.648 467.224,5.2 L466.48,5.584 C467.68,6.88 468.856,8.32 470.008,9.88 C465.496,10.36 460.408,10.696 454.792,10.912 C457.24,9.232 459.736,6.544 462.28,2.8 L461.488,2.512 C458.536,6.904 455.776,9.736 453.184,10.984 L453.352,11.752 Z" id="花瓣美思，有品质的设计服务平台-copy"></path>
            <path d="M92.872,117.896 L92.872,118.712 L107.632,118.712 L107.632,117.896 L92.872,117.896 Z M108.184,104.552 L106.936,113.024 L97.648,113.024 L98.92,106.664 L98.104,106.544 L96.64,113.84 L111.808,113.84 C111.568,118.4 111.208,121.088 110.728,121.88 C110.248,122.696 109.312,123.104 107.92,123.104 C106.912,123.104 105.832,123.056 104.68,123.008 L104.896,123.8 C106.048,123.8 107.056,123.824 107.92,123.824 C109.72,123.824 110.92,123.296 111.496,122.264 C112.048,121.232 112.432,118.16 112.672,113.024 L107.776,113.024 L109.072,103.736 L94.744,103.736 L94.744,104.552 L108.184,104.552 Z M131.44,102.488 L131.44,122.336 L122.464,122.336 L122.464,123.152 L143.584,123.152 L143.584,122.336 L132.304,122.336 L132.304,111.056 L141.184,111.056 L141.184,110.264 L132.304,110.264 L132.304,102.488 L131.44,102.488 Z M172.624,107.576 L164.872,109.016 C164.704,107.072 164.632,104.912 164.632,102.512 L163.816,102.512 C163.816,104.984 163.912,107.192 164.104,109.16 L160.456,109.832 L160.576,110.648 L164.176,109.976 C164.368,111.968 164.632,113.672 164.992,115.088 C165.232,116.12 165.52,117.08 165.832,117.992 C164.176,119.336 162.28,120.392 160.12,121.16 L160.576,121.904 C162.616,121.136 164.464,120.08 166.12,118.784 C166.576,119.984 167.08,120.992 167.632,121.808 C168.664,123.296 169.696,124.064 170.728,124.064 C171.304,124.064 171.856,123.464 172.336,122.312 C172.72,121.352 173.056,120.176 173.392,118.736 L172.672,118.256 C172,121.472 171.328,123.128 170.68,123.248 C169.888,123.224 169,122.48 168.04,120.992 C167.584,120.272 167.152,119.36 166.768,118.256 C168.784,116.504 170.488,114.296 171.856,111.656 L171.136,111.248 C169.888,113.696 168.352,115.76 166.48,117.44 C166.192,116.552 165.904,115.568 165.664,114.488 C165.352,113.12 165.112,111.56 164.944,109.832 L172.744,108.368 L172.624,107.576 Z M160.144,112.4 C159.04,113 157.912,113.552 156.736,114.08 L156.736,108.032 L160.048,108.032 L160.048,107.24 L156.736,107.24 L156.736,102.584 L155.944,102.584 L155.944,107.24 L152.32,107.24 L152.32,108.032 L155.944,108.032 L155.944,114.392 C154.696,114.896 153.376,115.328 152.032,115.688 L152.272,116.528 C153.52,116.144 154.744,115.688 155.944,115.208 L155.944,122.24 C155.944,123.008 155.56,123.392 154.792,123.392 C154.168,123.392 153.52,123.368 152.848,123.344 L153.016,124.136 L155.08,124.136 C156.184,124.136 156.736,123.56 156.736,122.456 L156.736,114.872 C157.888,114.368 159.04,113.816 160.144,113.216 L160.144,112.4 Z M168.208,102.584 L167.464,102.92 C168.28,103.856 169.072,104.912 169.84,106.112 L170.584,105.752 C169.864,104.6 169.072,103.544 168.208,102.584 Z M194.464,121.16 C192.736,121.544 190.912,121.88 189.04,122.192 L189.04,116.792 L193.816,116.792 L193.816,115.976 L189.04,115.976 L189.04,112.76 L188.224,112.76 L188.224,115.976 L183.184,115.976 L183.184,116.792 L188.224,116.792 L188.224,122.336 C186.352,122.624 184.408,122.864 182.416,123.104 L182.584,123.896 C186.856,123.368 190.816,122.72 194.464,121.952 L194.464,121.16 Z M182.632,103.856 L182.632,104.672 L187.12,104.672 C185.656,107.744 184.24,109.88 182.872,111.104 C182.776,111.128 182.68,111.152 182.536,111.2 L182.728,111.944 C186.448,111.608 189.856,111.176 192.976,110.648 C193.384,111.344 193.768,112.016 194.104,112.688 L194.752,112.208 C193.888,110.528 192.64,108.56 190.984,106.28 L190.36,106.688 C191.176,107.84 191.92,108.944 192.592,110.024 C189.952,110.456 187.072,110.84 183.904,111.128 C185.2,109.784 186.544,107.648 187.96,104.672 L194.368,104.672 L194.368,103.856 L182.632,103.856 Z M200.824,124.064 C202.024,124.064 202.648,123.464 202.648,122.264 L202.648,102.584 L201.808,102.584 L201.808,122.048 C201.808,122.888 201.376,123.32 200.536,123.32 C199.48,123.32 198.352,123.296 197.176,123.272 L197.368,124.064 L200.824,124.064 Z M196.768,104.744 L196.768,119.816 L197.584,119.816 L197.584,104.744 L196.768,104.744 Z M224.992,115.64 C225.88,115.64 226.336,115.136 226.336,114.176 L226.336,107.096 L225.52,107.096 L225.52,113.984 C225.52,114.584 225.256,114.896 224.728,114.896 C224.128,114.896 223.504,114.872 222.856,114.848 L223.024,115.64 L224.992,115.64 Z M215.56,107.72 L215.56,115.76 L216.376,115.76 L216.376,106.568 C217.168,105.368 217.864,104.072 218.44,102.656 L217.648,102.44 C216.352,105.512 214.528,108.128 212.128,110.288 L212.632,110.912 C213.688,109.952 214.672,108.872 215.56,107.72 Z M223.048,102.416 C221.944,105.008 220.384,107.216 218.344,109.04 L218.848,109.664 C220.168,108.488 221.296,107.168 222.232,105.68 L231.832,105.68 C231.544,106.784 231.184,107.816 230.704,108.776 L231.472,108.968 C231.952,107.816 232.36,106.64 232.648,105.44 L232.648,104.888 L222.712,104.888 C223.096,104.168 223.48,103.424 223.816,102.632 L223.048,102.416 Z M215.2,117.248 C214.696,119.312 213.952,121.16 212.944,122.744 L213.64,123.2 C214.648,121.568 215.44,119.648 215.992,117.416 L215.2,117.248 Z M226.552,123.92 C227.32,123.92 227.872,123.728 228.208,123.368 C228.616,122.84 228.88,121.592 229,119.6 L228.232,119.336 C228.136,121.184 227.92,122.312 227.608,122.696 C227.392,122.984 226.984,123.128 226.408,123.128 L220.576,123.128 C219.76,123.128 219.352,122.744 219.352,122 L219.352,116.792 L218.512,116.792 L218.512,122.168 C218.512,123.32 219.112,123.92 220.336,123.92 L226.552,123.92 Z M230.32,116.624 L229.648,117.032 C231.16,119.096 232.36,120.968 233.224,122.696 L233.872,122.216 C233.056,120.608 231.856,118.736 230.32,116.624 Z M222.352,109.688 C221.464,111.512 220.408,113.096 219.16,114.416 L219.784,114.872 C221.032,113.504 222.136,111.872 223.072,110 L222.352,109.688 Z M229.552,109.664 L228.808,109.952 C229.96,111.416 230.992,113.096 231.928,114.992 L232.648,114.632 C231.736,112.808 230.704,111.152 229.552,109.664 Z M222.544,116.12 L221.896,116.528 C223.144,117.92 224.152,119.192 224.872,120.344 L225.52,119.864 C224.848,118.808 223.84,117.56 222.544,116.12 Z M242.44,114.128 L242.44,114.896 L252.328,114.896 L251.248,117.224 L244.528,117.224 L244.528,124.352 L245.32,124.352 L245.32,117.968 L249.856,117.968 L249.856,124.136 L250.672,124.136 L250.672,117.968 L255.208,117.968 L255.208,124.136 L256,124.136 L256,117.968 L260.824,117.968 L260.824,122.24 C260.824,123.104 260.416,123.56 259.624,123.56 L257.944,123.536 L258.16,124.304 L259.864,124.304 C261.04,124.304 261.64,123.656 261.64,122.408 L261.64,117.224 L252.04,117.224 L253.168,114.896 L263.56,114.896 L263.56,114.128 L242.44,114.128 Z M243.904,103.496 L243.904,104.216 L252.592,104.216 L252.592,106.424 L243.28,106.424 L243.28,110.96 L244.072,110.96 L244.072,107.12 L252.592,107.12 L252.592,112.808 L253.408,112.808 L253.408,107.12 L261.928,107.12 L261.928,110.96 L262.72,110.96 L262.72,106.424 L253.408,106.424 L253.408,104.216 L262.12,104.216 L262.12,103.496 L243.904,103.496 Z M245.92,109.016 L245.92,109.688 L250.864,109.688 L250.864,109.016 L245.92,109.016 Z M245.92,111.464 L245.92,112.112 L250.864,112.112 L250.864,111.464 L245.92,111.464 Z M255.112,109.016 L255.112,109.688 L260.032,109.688 L260.032,109.016 L255.112,109.016 Z M255.136,111.464 L255.136,112.112 L260.104,112.112 L260.104,111.464 L255.136,111.464 Z M272.488,103.688 L272.488,104.456 L279.904,104.456 L279.904,107.264 L274.048,107.264 L274.048,112.784 L280.768,112.784 C280.288,113.72 279.76,114.68 279.184,115.64 L272.2,115.64 L272.2,116.432 L278.728,116.432 C278.176,117.32 277.6,118.232 276.976,119.168 C279.136,119.672 281.32,120.272 283.504,120.944 C281.296,122.048 277.72,122.912 272.776,123.488 L273.112,124.232 C278.152,123.56 281.848,122.624 284.176,121.4 C284.248,121.352 284.344,121.28 284.44,121.232 C287.272,122.12 290.104,123.152 292.936,124.352 L293.44,123.68 C290.656,122.528 287.92,121.544 285.256,120.728 C286.84,119.624 287.872,118.184 288.4,116.432 L293.776,116.432 L293.776,115.64 L280.072,115.64 C280.576,114.776 281.104,113.816 281.68,112.784 L291.952,112.784 L291.952,107.264 L286.096,107.264 L286.096,104.456 L293.512,104.456 L293.512,103.688 L272.488,103.688 Z M284.368,120.44 C282.256,119.792 280.168,119.24 278.128,118.784 C278.584,118.088 279.088,117.296 279.616,116.432 L287.56,116.432 C287.056,118.064 286,119.408 284.368,120.44 Z M285.304,107.264 L280.696,107.264 L280.696,104.456 L285.304,104.456 L285.304,107.264 Z M291.16,112.016 L286.096,112.016 L286.096,108.032 L291.16,108.032 L291.16,112.016 Z M285.304,112.016 L280.696,112.016 L280.696,108.032 L285.304,108.032 L285.304,112.016 Z M279.904,112.016 L274.84,112.016 L274.84,108.032 L279.904,108.032 L279.904,112.016 Z M310.312,106.952 L306.256,106.952 C306.784,105.632 307.168,104.192 307.432,102.632 L306.616,102.512 C306.376,104.072 305.992,105.56 305.464,106.952 L303.352,106.952 L303.352,123.488 L304.168,123.488 L304.168,121.232 L309.496,121.232 L309.496,122.816 L310.312,122.816 L310.312,106.952 Z M304.168,120.464 L304.168,114.344 L309.496,114.344 L309.496,120.464 L304.168,120.464 Z M304.168,113.576 L304.168,107.768 L309.496,107.768 L309.496,113.576 L304.168,113.576 Z M314.272,112.208 L313.624,112.64 C315.496,114.608 316.984,116.408 318.04,118.04 L318.688,117.56 C317.68,116.024 316.192,114.248 314.272,112.208 Z M322.768,107 L314.728,107 C315.232,105.632 315.64,104.168 315.928,102.584 L315.136,102.488 C314.488,106.04 313.264,109.064 311.464,111.512 L311.944,112.16 C312.904,110.864 313.72,109.424 314.392,107.816 L321.976,107.816 C321.928,114.872 321.832,119.192 321.64,120.776 C321.424,122.36 320.584,123.176 319.12,123.176 C318.448,123.176 317.632,123.152 316.696,123.152 L316.912,123.92 C317.968,123.92 318.736,123.944 319.168,123.944 C321.136,123.944 322.216,122.912 322.432,120.896 C322.648,119.12 322.768,114.488 322.768,107 Z M334.528,103.136 L333.952,103.688 C335.536,104.984 336.784,106.208 337.72,107.36 L338.296,106.784 C337.288,105.584 336.016,104.36 334.528,103.136 Z M332.224,110.192 L332.224,111.008 L335.848,111.008 L335.848,121.76 C335.848,122 335.704,122.24 335.44,122.504 L335.776,123.224 C337.384,122.168 338.896,120.944 340.288,119.6 L340.072,118.712 C338.824,119.912 337.696,120.896 336.664,121.664 L336.664,110.192 L332.224,110.192 Z M340.696,112.928 L340.696,113.744 L341.944,113.744 C342.688,116.096 344.128,118.184 346.264,120.008 C344.344,121.472 341.968,122.648 339.112,123.56 L339.568,124.256 C342.496,123.344 344.944,122.096 346.912,120.536 C348.688,121.928 350.944,123.176 353.632,124.232 L354.088,123.536 C351.496,122.552 349.288,121.376 347.488,120.032 C349.456,118.304 350.896,116.216 351.76,113.72 L351.76,112.928 L340.696,112.928 Z M342.736,113.744 L350.944,113.744 C350.104,115.976 348.736,117.896 346.84,119.528 C344.824,117.848 343.456,115.928 342.736,113.744 Z M342.784,103.688 L342.784,105.656 C342.784,107.96 341.68,109.736 339.52,110.984 L340.072,111.608 C342.424,110.192 343.624,108.176 343.624,105.56 L343.624,104.48 L349.336,104.48 L349.336,109.232 C349.336,110.336 349.888,110.912 351.04,110.912 L353.536,110.912 L353.536,110.144 L351.16,110.144 C350.488,110.144 350.176,109.808 350.176,109.136 L350.176,103.688 L342.784,103.688 Z M369.712,110.048 L369.712,110.864 L376.552,110.864 L376.552,124.328 L377.416,124.328 L377.416,110.864 L383.92,110.864 L383.92,110.048 L377.416,110.048 L377.416,102.488 L376.552,102.488 L376.552,110.048 L369.712,110.048 Z M364.456,102.824 L363.88,103.376 C365.68,104.768 367.144,106.088 368.248,107.336 L368.8,106.76 C367.624,105.44 366.184,104.12 364.456,102.824 Z M362.224,110.144 L362.224,110.96 L366.04,110.96 L366.04,121.736 C366.04,121.952 365.896,122.192 365.632,122.432 L365.968,123.152 C367.6,122.048 369.112,120.8 370.528,119.384 L370.336,118.52 C369.088,119.72 367.912,120.752 366.832,121.592 L366.832,110.144 L362.224,110.144 Z M393.304,105.776 L393.304,118.16 L394.096,118.16 L394.096,105.776 L393.304,105.776 Z M397.6,102.536 L397.6,114.032 C397.552,118.496 396.064,121.712 393.136,123.728 L393.736,124.256 C396.784,122.096 398.344,118.688 398.416,114.032 L398.416,102.536 L397.6,102.536 Z M400.288,103.808 L400.288,104.624 L406.576,104.624 L406.576,108.584 L401.248,108.584 L401.248,121.856 L402.04,121.856 L402.04,109.376 L406.576,109.376 L406.576,124.304 L407.392,124.304 L407.392,109.376 L411.928,109.376 L411.928,120.008 C411.928,120.656 411.616,120.992 411.04,120.992 L409.288,120.944 L409.504,121.784 L411.304,121.784 C412.24,121.784 412.72,121.256 412.72,120.2 L412.72,108.584 L407.392,108.584 L407.392,104.624 L413.632,104.624 L413.632,103.808 L400.288,103.808 Z" id="马上找到您需要的设计师-copy"></path>
            <path d="M157.528,501.464 C156.4,505.256 154.528,508.712 151.888,511.784 L152.152,512.672 C153.328,511.352 154.384,509.936 155.32,508.4 L155.32,523.352 L156.112,523.352 L156.112,506.984 C156.952,505.376 157.672,503.648 158.272,501.8 L157.528,501.464 Z M170.56,522.824 C171.568,522.824 172.288,522.56 172.672,522.032 C173.056,521.48 173.32,519.944 173.464,517.424 L172.672,517.16 C172.552,519.608 172.336,521.024 172.048,521.432 C171.712,521.816 171.16,522.008 170.44,522.008 L162.304,522.008 C161.464,522.008 161.056,521.624 161.056,520.88 L161.056,509.912 L165.592,508.4 L165.592,517.976 L166.408,517.976 L166.408,508.136 L170.92,506.648 C170.92,510.848 170.824,513.248 170.632,513.872 C170.44,514.496 169.96,514.832 169.192,514.832 C168.904,514.832 168.592,514.808 168.256,514.784 L168.496,515.6 L169.024,515.6 C170.44,515.6 171.256,515.096 171.448,514.112 C171.64,513.104 171.736,510.248 171.736,505.52 L166.408,507.32 L166.408,501.488 L165.592,501.488 L165.592,507.584 L161.056,509.096 L161.056,503.72 L160.264,503.72 L160.264,509.36 L157.504,510.272 L157.504,511.088 L160.264,510.176 L160.264,521 C160.264,522.2 160.864,522.824 162.112,522.824 L170.56,522.824 Z M200.752,523.136 C202.048,523.136 202.696,522.416 202.696,521.024 L202.696,503.384 L195.592,503.384 L195.592,504.176 L201.88,504.176 L201.88,520.808 C201.88,521.84 201.448,522.368 200.584,522.368 L198.088,522.344 L198.304,523.136 L200.752,523.136 Z M191.608,501.536 L190.96,501.944 C192.16,503.384 193.096,504.704 193.792,505.928 L194.44,505.448 C193.768,504.32 192.832,503.024 191.608,501.536 Z M187.96,501.464 C186.76,505.256 184.768,508.712 181.96,511.808 L182.224,512.648 C183.4,511.424 184.456,510.104 185.416,508.664 L185.416,523.352 L186.232,523.352 L186.232,507.344 C187.216,505.64 188.032,503.792 188.704,501.8 L187.96,501.464 Z M190.024,505.592 L190.024,523.256 L190.84,523.256 L190.84,505.592 L190.024,505.592 Z M213.64,502.112 L213.088,502.664 C214.816,503.96 216.208,505.208 217.264,506.384 L217.84,505.808 C216.712,504.584 215.32,503.36 213.64,502.112 Z M227.944,522.824 L233.56,522.824 L233.776,521.96 C233.152,521.96 232.288,521.984 231.184,522.008 C230.032,522.008 228.928,522.032 227.824,522.032 C225.928,522.032 224.416,522.008 223.288,521.984 C221.872,521.936 220.744,521.768 219.928,521.48 C219.16,521.144 218.488,520.616 217.864,519.848 C217.528,519.464 217.216,519.2 216.904,519.08 L216.904,510.104 L212.416,510.104 L212.416,510.92 L216.112,510.92 L216.112,519.056 C215.128,519.296 213.904,520.52 212.416,522.776 L213.088,523.352 C214.624,521 215.752,519.824 216.496,519.824 C216.784,519.824 217.096,520.016 217.432,520.448 C218.2,521.408 219.064,522.008 219.976,522.296 C220.888,522.584 222.136,522.728 223.672,522.776 C225.208,522.8 226.648,522.824 227.944,522.824 Z M226.264,501.416 L226.264,504.824 L222.04,504.824 C222.424,503.888 222.76,502.904 223.048,501.872 L222.256,501.704 C221.632,504.056 220.672,506.144 219.4,507.944 L220.096,508.4 C220.672,507.56 221.2,506.648 221.68,505.64 L226.264,505.64 L226.264,509.816 L219.952,509.816 L219.952,510.632 L224.152,510.632 C224.104,512.456 223.816,513.992 223.336,515.264 C222.664,516.848 221.32,518.144 219.304,519.128 L219.808,519.824 C222.064,518.672 223.552,517.16 224.224,515.312 C224.656,514.016 224.872,512.456 224.92,510.632 L227.968,510.632 L227.968,518.168 C227.968,518.576 228.088,518.912 228.352,519.176 C228.592,519.416 228.952,519.56 229.432,519.56 L231.184,519.56 C231.952,519.536 232.504,519.368 232.84,519.032 C233.248,518.624 233.512,517.496 233.608,515.648 L232.864,515.384 C232.768,517.256 232.504,518.312 232.072,518.576 C231.832,518.72 231.472,518.792 230.992,518.792 L229.624,518.792 C229.048,518.792 228.76,518.528 228.76,518 L228.76,510.632 L233.056,510.632 L233.056,509.816 L227.056,509.816 L227.056,505.64 L232.168,505.64 L232.168,504.824 L227.056,504.824 L227.056,501.416 L226.264,501.416 Z M251.128,502.688 L251.128,503.456 L252.136,503.456 C252.904,505.52 254.248,507.2 256.12,508.496 C254.488,509.384 252.568,510.104 250.312,510.68 L250.72,511.376 C253.12,510.752 255.16,509.936 256.864,508.976 C258.64,510.056 260.92,510.824 263.656,511.256 L263.968,510.536 C261.424,510.152 259.312,509.48 257.584,508.544 C259.744,507.152 261.28,505.448 262.168,503.408 L262.168,502.688 L251.128,502.688 Z M252.952,503.456 L261.256,503.456 C260.368,505.28 258.904,506.84 256.84,508.088 C255.016,506.912 253.72,505.376 252.952,503.456 Z M244.84,523.064 C245.968,523.064 246.544,522.488 246.544,521.384 L246.544,513.968 C247.6,513.536 248.656,513.056 249.664,512.528 L249.664,511.688 C248.656,512.216 247.6,512.72 246.544,513.152 L246.544,507.224 L249.592,507.224 L249.592,506.432 L246.544,506.432 L246.544,501.584 L245.728,501.584 L245.728,506.432 L242.44,506.432 L242.44,507.224 L245.728,507.224 L245.728,513.464 C244.576,513.896 243.4,514.256 242.176,514.568 L242.392,515.36 C243.544,515.024 244.648,514.664 245.728,514.256 L245.728,521.168 C245.728,521.936 245.32,522.32 244.552,522.32 C243.928,522.32 243.28,522.296 242.608,522.272 L242.776,523.064 L244.84,523.064 Z M251.464,513.728 L251.464,514.496 L256.552,514.496 L256.552,518.048 L250.24,518.048 L250.24,518.84 L256.552,518.84 L256.552,523.136 L257.368,523.136 L257.368,518.84 L263.656,518.84 L263.656,518.048 L257.368,518.048 L257.368,514.496 L262.456,514.496 L262.456,513.728 L257.368,513.728 L257.368,511.184 L256.552,511.184 L256.552,513.728 L251.464,513.728 Z M282.976,509.552 L282.976,521.192 C282.976,521.912 282.544,522.296 281.728,522.296 C280.384,522.296 279.112,522.272 277.96,522.224 L278.2,523.04 C279.256,523.064 280.528,523.088 281.968,523.088 C283.168,523.088 283.768,522.512 283.768,521.36 L283.768,509.984 C286.648,508.112 289.24,506.144 291.496,504.032 L291.496,503.24 L273.952,503.24 L273.952,504.032 L290.368,504.032 C288.064,506.144 285.592,507.968 282.976,509.552 Z M303.424,504.224 L303.424,504.992 L312.592,504.992 L312.592,508.064 L304.744,508.064 L304.744,508.832 L312.592,508.832 L312.592,511.928 L302.608,511.928 L302.608,512.744 L323.392,512.744 L323.392,511.928 L313.408,511.928 L313.408,508.832 L321.352,508.832 L321.352,508.064 L313.408,508.064 L313.408,504.992 L322.576,504.992 L322.576,504.224 L316.648,504.224 C317.176,503.384 317.56,502.472 317.8,501.512 L316.96,501.392 C316.72,502.376 316.336,503.312 315.832,504.224 L310.264,504.224 C309.832,503.168 309.4,502.232 308.92,501.416 L308.104,501.56 C308.608,502.328 309.04,503.216 309.424,504.224 L303.424,504.224 Z M312.76,513.608 C312.616,514.472 312.424,515.312 312.136,516.104 L303.184,516.104 L303.184,516.92 L311.776,516.92 C311.296,517.904 310.648,518.744 309.832,519.464 C308.248,520.832 305.68,521.864 302.104,522.584 L302.464,523.4 C306.304,522.584 308.968,521.456 310.48,520.016 C311.416,519.152 312.16,518.12 312.688,516.92 L312.928,516.92 C314.584,520.04 318.112,522.152 323.512,523.304 L323.944,522.56 C318.856,521.576 315.448,519.704 313.768,516.92 L322.84,516.92 L322.84,516.104 L313.024,516.104 C313.264,515.384 313.456,514.568 313.576,513.704 L312.76,513.608 Z M335.848,502.688 L335.848,513.008 L350.056,513.008 L350.056,502.688 L335.848,502.688 Z M349.264,512.216 L343.336,512.216 L343.336,508.232 L349.264,508.232 L349.264,512.216 Z M342.52,512.216 L336.664,512.216 L336.664,508.232 L342.52,508.232 L342.52,512.216 Z M336.664,507.464 L336.664,503.48 L342.52,503.48 L342.52,507.464 L336.664,507.464 Z M343.336,503.48 L349.264,503.48 L349.264,507.464 L343.336,507.464 L343.336,503.48 Z M335.248,515.408 C334.576,517.952 333.544,520.184 332.176,522.104 L332.872,522.56 C334.216,520.592 335.272,518.264 336.04,515.576 L335.248,515.408 Z M342.832,514.304 L342.088,514.568 C343.048,515.864 343.936,517.328 344.752,518.984 L345.52,518.672 C344.752,517.112 343.864,515.648 342.832,514.304 Z M349.792,514.856 L349.024,515.12 C350.464,517.016 351.76,519.2 352.96,521.696 L353.68,521.36 C352.6,519.056 351.304,516.896 349.792,514.856 Z M346.312,522.968 C347.224,522.968 347.896,522.776 348.304,522.416 C348.808,521.888 349.12,520.64 349.264,518.648 L348.472,518.384 C348.328,520.232 348.064,521.36 347.68,521.744 C347.416,522.032 346.912,522.176 346.168,522.176 L340.6,522.176 C339.544,522.176 339.04,521.6 339.04,520.496 L339.04,515.48 L338.224,515.48 L338.224,520.664 C338.224,522.2 338.92,522.968 340.36,522.968 L346.312,522.968 Z" id="他们选择了美思-copy"></path>
            <path d="M183.448,401.608 L182.896,402.112 C184.192,403.12 185.224,404.056 186.016,404.968 L186.592,404.44 C185.752,403.48 184.696,402.544 183.448,401.608 Z M185.944,408.712 C185.08,411.736 183.928,414.304 182.44,416.464 C182.176,415.744 181.936,414.952 181.72,414.112 C181.24,412.12 180.904,409.504 180.76,406.288 L188.512,406.288 L188.512,405.496 L180.712,405.496 C180.64,404.248 180.616,402.904 180.616,401.464 L179.8,401.464 C179.8,402.856 179.824,404.2 179.872,405.496 L169.96,405.496 L169.96,413.44 C169.888,417.424 169.048,420.496 167.464,422.704 L168.088,423.28 C169.792,420.832 170.68,417.544 170.752,413.44 L170.752,411.856 L175.816,411.856 C175.816,414.712 175.72,416.704 175.576,417.808 C175.432,418.72 175,419.2 174.28,419.248 C173.656,419.248 172.864,419.224 171.952,419.2 L172.216,419.944 C173.032,419.992 173.752,420.016 174.376,420.016 C175.432,419.944 176.08,419.368 176.296,418.264 C176.512,417.016 176.632,414.616 176.632,411.04 L170.752,411.04 L170.752,406.288 L179.92,406.288 C180.064,409.432 180.4,412.072 180.904,414.232 C181.192,415.312 181.504,416.32 181.864,417.256 C180.112,419.536 177.952,421.264 175.36,422.416 L175.816,423.088 C178.264,422.008 180.4,420.328 182.2,418.072 C182.632,419.08 183.136,419.968 183.688,420.736 C184.816,422.176 185.848,422.92 186.808,422.92 C187.768,422.92 188.488,421.408 188.992,418.408 L188.248,418 C187.816,420.664 187.288,422.008 186.64,422.056 C186.016,422.056 185.224,421.408 184.288,420.16 C183.736,419.368 183.232,418.432 182.776,417.328 C184.384,415.096 185.68,412.336 186.688,409.024 L185.944,408.712 Z M201.184,405.304 L201.184,417.64 C199.888,418 198.52,418.312 197.128,418.576 L197.32,419.392 C200.488,418.72 203.416,417.904 206.104,416.896 L206.104,416.056 C204.76,416.56 203.392,417.016 201.976,417.424 L201.976,405.304 L205.792,405.304 L205.792,404.512 L197.368,404.512 L197.368,405.304 L201.184,405.304 Z M210.808,401.584 L210.808,406.744 L206.608,406.744 L206.608,407.56 L210.784,407.56 C210.64,414.472 208.72,419.488 205.072,422.656 L205.72,423.208 C209.464,419.872 211.432,414.664 211.6,407.56 L217.072,407.56 C217.024,414.04 216.928,418 216.736,419.464 C216.448,421.312 215.368,422.248 213.496,422.248 C212.872,422.248 212.176,422.224 211.36,422.2 L211.552,422.968 C212.488,422.992 213.16,423.016 213.544,423.016 C215.944,423.016 217.264,421.864 217.528,419.584 C217.744,417.928 217.864,413.656 217.864,406.744 L211.624,406.744 L211.624,401.584 L210.808,401.584 Z M230.656,404.992 L230.656,417.28 C229.552,417.616 228.424,417.952 227.224,418.24 L227.44,419.032 C230.32,418.264 232.792,417.448 234.904,416.56 L234.904,415.744 C233.824,416.176 232.672,416.608 231.472,417.016 L231.472,404.992 L234.616,404.992 L234.616,404.176 L227.44,404.176 L227.44,404.992 L230.656,404.992 Z M235.768,402.856 L235.768,403.672 L242.008,403.672 C241.864,404.848 241.648,405.976 241.312,407.056 L237.184,407.056 L237.184,417.856 L237.976,417.856 L237.976,407.872 L246.544,407.872 L246.544,417.856 L247.36,417.856 L247.36,407.056 L242.104,407.056 C242.416,406 242.656,404.872 242.8,403.672 L248.824,403.672 L248.824,402.856 L235.768,402.856 Z M243.736,418.192 L243.208,418.72 C245.392,420.376 247.144,421.96 248.488,423.472 L249.064,422.896 C247.648,421.336 245.872,419.776 243.736,418.192 Z M241.696,409.912 L241.696,413.92 C241.648,416.176 241.096,418.024 239.992,419.44 C238.72,420.832 236.68,421.912 233.872,422.656 L234.352,423.376 C237.208,422.536 239.272,421.408 240.544,420.016 C241.84,418.504 242.488,416.464 242.512,413.92 L242.512,409.912 L241.696,409.912 Z M275.56,403 L260.488,403 L260.488,423.304 L261.328,423.304 L261.328,421.48 L274.72,421.48 L274.72,423.256 L275.56,423.256 L275.56,403 Z M261.328,420.664 L261.328,415.288 L274.72,415.288 L274.72,420.664 L261.328,420.664 Z M261.328,414.52 L261.328,409.432 L274.72,409.432 L274.72,414.52 L261.328,414.52 Z M261.328,408.64 L261.328,403.816 L274.72,403.816 L274.72,408.64 L261.328,408.64 Z M298.072,418.336 C301.432,419.584 304.696,421.264 307.864,423.4 L308.32,422.704 C305.368,420.784 302.104,419.128 298.552,417.736 C298.984,417.16 299.368,416.512 299.704,415.84 L308.032,415.84 L308.032,415.024 L300.064,415.024 C300.688,413.44 301.024,411.616 301.048,409.552 L301.048,406.84 L300.256,406.84 L300.256,409.552 C300.232,411.592 299.872,413.416 299.2,415.024 L287.992,415.024 L287.992,415.84 L298.816,415.84 C298.456,416.512 298.024,417.16 297.544,417.76 C295.528,419.872 292.264,421.48 287.8,422.608 L288.28,423.328 C292.792,422.128 296.008,420.496 297.976,418.432 L298.072,418.336 Z M290.8,410.32 L290.368,410.944 C292.072,411.64 293.728,412.6 295.36,413.824 L295.792,413.152 C294.304,412.048 292.624,411.088 290.8,410.32 Z M292.6,406.768 L292.168,407.392 C294.04,408.16 295.84,409.192 297.616,410.536 L298.048,409.864 C296.416,408.64 294.592,407.608 292.6,406.768 Z M307.312,404.272 L298.72,404.272 C298.36,403.168 297.976,402.184 297.544,401.344 L296.704,401.512 C297.136,402.328 297.52,403.24 297.904,404.272 L288.64,404.272 L288.64,408.376 L289.456,408.376 L289.456,405.064 L306.496,405.064 L306.496,408.376 L307.312,408.376 L307.312,404.272 Z M323.584,403.12 L323.584,403.912 L325.864,403.912 C325.48,408.64 324.256,412.336 322.192,415.024 L322.576,415.792 C323.176,415.024 323.728,414.16 324.232,413.224 C325.48,413.944 326.728,414.88 327.952,416.032 C326.752,418.768 325.12,420.88 323.056,422.416 L323.488,423.136 C327.28,420.328 329.68,415.576 330.712,408.88 L330.712,408.136 L326.008,408.136 C326.296,406.84 326.512,405.424 326.656,403.912 L331.336,403.912 L331.336,403.12 L323.584,403.12 Z M324.544,412.552 C325.048,411.448 325.48,410.248 325.816,408.928 L329.92,408.928 C329.536,411.28 328.984,413.392 328.264,415.264 C327.16,414.232 325.912,413.32 324.544,412.552 Z M335.8,423.112 C337,423.112 337.6,422.464 337.6,421.216 L337.6,401.584 L336.784,401.584 L336.784,421.024 C336.784,421.936 336.352,422.392 335.512,422.392 C334.72,422.392 333.88,422.368 332.992,422.32 L333.16,423.112 L335.8,423.112 Z M319.744,408.904 L319.744,423.352 L320.56,423.352 L320.56,407.344 C321.376,405.664 322.072,403.816 322.648,401.848 L321.88,401.488 C320.896,405.232 319.264,408.64 316.984,411.688 L317.248,412.552 C318.16,411.424 318.976,410.2 319.744,408.904 Z M332.776,403.84 L332.776,418.816 L333.568,418.816 L333.568,403.84 L332.776,403.84 Z" id="成功项目实例-copy"></path>
            <path d="M177.16,207.008 L177.16,207.824 L182.176,207.824 L182.176,209.216 C182.176,210.488 182.08,211.688 181.912,212.84 L176.8,212.84 L176.8,213.656 L181.792,213.656 C181.048,217.832 179.176,220.832 176.2,222.632 L176.704,223.28 C179.776,221.36 181.72,218.24 182.536,213.944 C183.064,216.992 185.008,220.088 188.368,223.208 L188.92,222.632 C185.608,219.584 183.688,216.584 183.136,213.656 L188.608,213.656 L188.608,212.84 L182.728,212.84 C182.872,211.64 182.968,210.368 182.968,209.024 L182.968,207.824 L188.2,207.824 L188.2,207.008 L184.048,207.008 C184.864,205.664 185.68,203.96 186.472,201.872 L185.704,201.584 C185.032,203.528 184.216,205.328 183.232,207.008 L177.16,207.008 Z M179.032,201.8 L178.384,202.208 C179.416,203.6 180.208,204.896 180.784,206.072 L181.432,205.616 C180.856,204.536 180.064,203.264 179.032,201.8 Z M167.224,202.76 L167.224,203.552 L169,203.552 L169,219.056 C168.424,219.152 167.848,219.272 167.272,219.368 L167.488,220.136 C169.696,219.752 171.832,219.272 173.872,218.72 L173.872,223.52 L174.664,223.52 L174.664,218.504 L176.608,217.928 L176.608,217.112 C175.984,217.304 175.336,217.52 174.664,217.712 L174.664,203.552 L176.56,203.552 L176.56,202.76 L167.224,202.76 Z M169.792,218.888 L169.792,213.68 L173.872,213.68 L173.872,217.952 C172.552,218.312 171.184,218.624 169.792,218.888 Z M169.792,212.912 L169.792,208.688 L173.872,208.688 L173.872,212.912 L169.792,212.912 Z M169.792,207.896 L169.792,203.552 L173.872,203.552 L173.872,207.896 L169.792,207.896 Z M207.712,201.536 C204.832,205.04 201.208,207.992 196.864,210.368 L197.272,211.112 C201.712,208.616 205.288,205.688 208,202.28 C210.928,205.904 214.48,208.832 218.632,211.064 L219.064,210.32 C214.984,208.184 211.408,205.256 208.288,201.536 L207.712,201.536 Z M215.2,214.064 L200.8,214.064 L200.8,223.256 L201.616,223.256 L201.616,221.552 L214.384,221.552 L214.384,223.256 L215.2,223.256 L215.2,214.064 Z M201.616,220.736 L201.616,214.88 L214.384,214.88 L214.384,220.736 L201.616,220.736 Z M201.88,209.432 L201.88,210.224 L214.12,210.224 L214.12,209.432 L201.88,209.432 Z M229.528,202.136 L228.952,202.688 C230.536,203.984 231.784,205.208 232.72,206.36 L233.296,205.784 C232.288,204.584 231.016,203.36 229.528,202.136 Z M227.224,209.192 L227.224,210.008 L230.848,210.008 L230.848,220.76 C230.848,221 230.704,221.24 230.44,221.504 L230.776,222.224 C232.384,221.168 233.896,219.944 235.288,218.6 L235.072,217.712 C233.824,218.912 232.696,219.896 231.664,220.664 L231.664,209.192 L227.224,209.192 Z M235.696,211.928 L235.696,212.744 L236.944,212.744 C237.688,215.096 239.128,217.184 241.264,219.008 C239.344,220.472 236.968,221.648 234.112,222.56 L234.568,223.256 C237.496,222.344 239.944,221.096 241.912,219.536 C243.688,220.928 245.944,222.176 248.632,223.232 L249.088,222.536 C246.496,221.552 244.288,220.376 242.488,219.032 C244.456,217.304 245.896,215.216 246.76,212.72 L246.76,211.928 L235.696,211.928 Z M237.736,212.744 L245.944,212.744 C245.104,214.976 243.736,216.896 241.84,218.528 C239.824,216.848 238.456,214.928 237.736,212.744 Z M237.784,202.688 L237.784,204.656 C237.784,206.96 236.68,208.736 234.52,209.984 L235.072,210.608 C237.424,209.192 238.624,207.176 238.624,204.56 L238.624,203.48 L244.336,203.48 L244.336,208.232 C244.336,209.336 244.888,209.912 246.04,209.912 L248.536,209.912 L248.536,209.144 L246.16,209.144 C245.488,209.144 245.176,208.808 245.176,208.136 L245.176,202.688 L237.784,202.688 Z M264.712,209.048 L264.712,209.864 L271.552,209.864 L271.552,223.328 L272.416,223.328 L272.416,209.864 L278.92,209.864 L278.92,209.048 L272.416,209.048 L272.416,201.488 L271.552,201.488 L271.552,209.048 L264.712,209.048 Z M259.456,201.824 L258.88,202.376 C260.68,203.768 262.144,205.088 263.248,206.336 L263.8,205.76 C262.624,204.44 261.184,203.12 259.456,201.824 Z M257.224,209.144 L257.224,209.96 L261.04,209.96 L261.04,220.736 C261.04,220.952 260.896,221.192 260.632,221.432 L260.968,222.152 C262.6,221.048 264.112,219.8 265.528,218.384 L265.336,217.52 C264.088,218.72 262.912,219.752 261.832,220.592 L261.832,209.144 L257.224,209.144 Z M297.568,201.416 L297.568,206 L288.856,206 L288.856,216.776 L289.696,216.776 L289.696,215.048 L297.568,215.048 L297.568,223.448 L298.432,223.448 L298.432,215.048 L306.328,215.048 L306.328,216.776 L307.168,216.776 L307.168,206 L298.432,206 L298.432,201.416 L297.568,201.416 Z M289.696,214.232 L289.696,206.816 L297.568,206.816 L297.568,214.232 L289.696,214.232 Z M298.432,214.232 L298.432,206.816 L306.328,206.816 L306.328,214.232 L298.432,214.232 Z M330.928,222.488 C331.864,222.488 332.536,222.176 332.944,221.6 C333.424,220.784 333.76,218.84 333.904,215.72 L333.136,215.456 C332.992,218.48 332.728,220.328 332.344,220.976 C332.056,221.408 331.528,221.648 330.784,221.648 L325.768,221.648 C324.808,221.648 324.352,221.24 324.352,220.448 L324.352,206.528 L323.512,206.528 L323.512,220.616 C323.512,221.864 324.184,222.488 325.528,222.488 L330.928,222.488 Z M320.104,209.36 C319.456,213.032 318.472,216.272 317.152,219.08 L317.872,219.536 C319.168,216.728 320.176,213.392 320.896,209.528 L320.104,209.36 Z M334.48,208.472 L333.64,208.76 C335.32,211.52 336.856,214.712 338.248,218.312 L338.992,217.976 C337.72,214.616 336.208,211.448 334.48,208.472 Z M325.648,201.824 L324.952,202.256 C327.256,204.368 329.08,206.312 330.4,208.064 L331.096,207.584 C329.848,205.952 328.024,204.032 325.648,201.824 Z" id="联合设计中心-copy"></path>
            <path d="M38.92,309.624 L49.384,309.624 L49.384,313.032 L38.92,313.032 L38.92,309.624 Z M49.384,313.824 L49.384,317.16 L38.92,317.16 L38.92,313.824 L49.384,313.824 Z M49.384,317.928 L49.384,321.576 C49.384,322.2 49.024,322.512 48.352,322.512 C47.536,322.512 46.672,322.488 45.712,322.464 L45.928,323.232 L48.616,323.232 C49.648,323.208 50.176,322.728 50.176,321.816 L50.176,308.88 L38.68,308.88 C39.448,307.752 40.12,306.552 40.696,305.304 L53.512,305.304 L53.512,304.512 L41.056,304.512 C41.464,303.552 41.824,302.544 42.16,301.488 L41.32,301.392 C40.984,302.448 40.6,303.48 40.144,304.512 L32.776,304.512 L32.776,305.304 L39.784,305.304 C38.056,308.856 35.512,311.952 32.152,314.616 L32.656,315.288 C34.768,313.608 36.592,311.712 38.128,309.648 L38.128,323.232 L38.92,323.232 L38.92,317.928 L49.384,317.928 Z M66.664,302.808 L66.664,309.84 L79.264,309.84 L79.264,302.808 L66.664,302.808 Z M78.424,309.024 L67.504,309.024 L67.504,303.624 L78.424,303.624 L78.424,309.024 Z M71.296,313.152 L63.568,313.152 L63.568,322.92 L64.384,322.92 L64.384,321.576 L70.48,321.576 L70.48,322.92 L71.296,322.92 L71.296,313.152 Z M64.384,320.784 L64.384,313.944 L70.48,313.944 L70.48,320.784 L64.384,320.784 Z M82.408,313.152 L74.464,313.152 L74.464,322.92 L75.28,322.92 L75.28,321.576 L81.592,321.576 L81.592,322.92 L82.408,322.92 L82.408,313.152 Z M75.28,320.784 L75.28,313.944 L81.592,313.944 L81.592,320.784 L75.28,320.784 Z M96.544,307.2 L96.544,308.016 L104.44,308.016 C104.248,309.024 104.032,310.056 103.744,311.064 L99.016,311.064 L99.016,319.128 L99.808,319.128 L99.808,311.88 L110.152,311.88 L110.152,318.936 L110.944,318.936 L110.944,311.064 L104.584,311.064 C104.848,310.104 105.088,309.096 105.28,308.016 L113.44,308.016 L113.44,307.2 L105.424,307.2 C105.568,306.384 105.664,305.568 105.76,304.704 L104.944,304.584 C104.848,305.448 104.728,306.312 104.584,307.2 L96.544,307.2 Z M111.952,301.872 C106.84,302.736 101.176,303.192 94.984,303.24 L94.984,310.536 C94.84,315.552 93.856,319.488 92.08,322.32 L92.656,322.92 C94.624,319.848 95.656,315.72 95.776,310.536 L95.776,304.008 C101.92,303.912 107.44,303.432 112.36,302.616 L111.952,301.872 Z M106.12,318.672 L105.688,319.296 C108.184,320.256 110.632,321.576 113.032,323.232 L113.488,322.56 C111.28,321.024 108.808,319.728 106.12,318.672 Z M104.968,313.128 C104.68,315.768 103.864,317.808 102.52,319.2 C101.152,320.592 99.016,321.672 96.088,322.488 L96.52,323.232 C99.52,322.368 101.752,321.192 103.192,319.704 C104.632,318.192 105.472,316.008 105.76,313.176 L104.968,313.128 Z M130.312,305.952 L126.256,305.952 C126.784,304.632 127.168,303.192 127.432,301.632 L126.616,301.512 C126.376,303.072 125.992,304.56 125.464,305.952 L123.352,305.952 L123.352,322.488 L124.168,322.488 L124.168,320.232 L129.496,320.232 L129.496,321.816 L130.312,321.816 L130.312,305.952 Z M124.168,319.464 L124.168,313.344 L129.496,313.344 L129.496,319.464 L124.168,319.464 Z M124.168,312.576 L124.168,306.768 L129.496,306.768 L129.496,312.576 L124.168,312.576 Z M134.272,311.208 L133.624,311.64 C135.496,313.608 136.984,315.408 138.04,317.04 L138.688,316.56 C137.68,315.024 136.192,313.248 134.272,311.208 Z M142.768,306 L134.728,306 C135.232,304.632 135.64,303.168 135.928,301.584 L135.136,301.488 C134.488,305.04 133.264,308.064 131.464,310.512 L131.944,311.16 C132.904,309.864 133.72,308.424 134.392,306.816 L141.976,306.816 C141.928,313.872 141.832,318.192 141.64,319.776 C141.424,321.36 140.584,322.176 139.12,322.176 C138.448,322.176 137.632,322.152 136.696,322.152 L136.912,322.92 C137.968,322.92 138.736,322.944 139.168,322.944 C141.136,322.944 142.216,321.912 142.432,319.896 C142.648,318.12 142.768,313.488 142.768,306 Z M154.528,302.136 L153.952,302.688 C155.536,303.984 156.784,305.208 157.72,306.36 L158.296,305.784 C157.288,304.584 156.016,303.36 154.528,302.136 Z M152.224,309.192 L152.224,310.008 L155.848,310.008 L155.848,320.76 C155.848,321 155.704,321.24 155.44,321.504 L155.776,322.224 C157.384,321.168 158.896,319.944 160.288,318.6 L160.072,317.712 C158.824,318.912 157.696,319.896 156.664,320.664 L156.664,309.192 L152.224,309.192 Z M160.696,311.928 L160.696,312.744 L161.944,312.744 C162.688,315.096 164.128,317.184 166.264,319.008 C164.344,320.472 161.968,321.648 159.112,322.56 L159.568,323.256 C162.496,322.344 164.944,321.096 166.912,319.536 C168.688,320.928 170.944,322.176 173.632,323.232 L174.088,322.536 C171.496,321.552 169.288,320.376 167.488,319.032 C169.456,317.304 170.896,315.216 171.76,312.72 L171.76,311.928 L160.696,311.928 Z M162.736,312.744 L170.944,312.744 C170.104,314.976 168.736,316.896 166.84,318.528 C164.824,316.848 163.456,314.928 162.736,312.744 Z M162.784,302.688 L162.784,304.656 C162.784,306.96 161.68,308.736 159.52,309.984 L160.072,310.608 C162.424,309.192 163.624,307.176 163.624,304.56 L163.624,303.48 L169.336,303.48 L169.336,308.232 C169.336,309.336 169.888,309.912 171.04,309.912 L173.536,309.912 L173.536,309.144 L171.16,309.144 C170.488,309.144 170.176,308.808 170.176,308.136 L170.176,302.688 L162.784,302.688 Z M189.712,309.048 L189.712,309.864 L196.552,309.864 L196.552,323.328 L197.416,323.328 L197.416,309.864 L203.92,309.864 L203.92,309.048 L197.416,309.048 L197.416,301.488 L196.552,301.488 L196.552,309.048 L189.712,309.048 Z M184.456,301.824 L183.88,302.376 C185.68,303.768 187.144,305.088 188.248,306.336 L188.8,305.76 C187.624,304.44 186.184,303.12 184.456,301.824 Z M182.224,309.144 L182.224,309.96 L186.04,309.96 L186.04,320.736 C186.04,320.952 185.896,321.192 185.632,321.432 L185.968,322.152 C187.6,321.048 189.112,319.8 190.528,318.384 L190.336,317.52 C189.088,318.72 187.912,319.752 186.832,320.592 L186.832,309.144 L182.224,309.144 Z M215.248,319.08 C214.912,319.08 214.672,319.152 214.504,319.344 C214.312,319.512 214.24,319.752 214.24,320.088 C214.24,320.328 214.336,320.568 214.528,320.76 C214.72,320.952 214.936,321.048 215.2,321.048 C215.44,321.048 215.584,321.024 215.656,321 C215.656,321.576 215.536,322.056 215.248,322.464 C214.936,322.896 214.48,323.184 213.88,323.376 L213.88,324.096 C214.624,323.928 215.248,323.544 215.728,322.968 C216.208,322.368 216.472,321.648 216.472,320.832 C216.472,320.304 216.376,319.872 216.184,319.584 C215.944,319.248 215.632,319.08 215.248,319.08 Z M246.64,306.912 L245.92,307.296 C246.76,308.52 247.552,309.936 248.32,311.52 L249.016,311.16 C248.296,309.624 247.504,308.208 246.64,306.912 Z M251.416,313.152 C249.976,316.272 246.856,318.984 242.08,321.336 L242.536,322.056 C247.432,319.584 250.648,316.608 252.136,313.152 L252.592,313.152 L252.592,323.232 L253.408,323.232 L253.408,313.152 L253.816,313.152 C255.544,316.44 258.688,319.392 263.272,322.032 L263.824,321.36 C259.36,318.96 256.264,316.224 254.584,313.152 L263.296,313.152 L263.296,312.36 L257.2,312.36 C258.232,310.824 259.144,309.024 259.936,306.96 L259.144,306.696 C258.376,308.712 257.464,310.608 256.384,312.36 L253.408,312.36 L253.408,305.472 L262.6,305.472 L262.6,304.68 L253.408,304.68 L253.408,301.608 L252.592,301.608 L252.592,304.68 L243.592,304.68 L243.592,305.472 L252.592,305.472 L252.592,312.36 L242.656,312.36 L242.656,313.152 L251.416,313.152 Z M290.752,304.632 L281.104,304.632 C281.68,303.672 282.136,302.64 282.424,301.536 L281.584,301.416 C281.32,302.52 280.888,303.6 280.264,304.632 L275.248,304.632 L275.248,323.256 L276.064,323.256 L276.064,321.504 L289.936,321.504 L289.936,323.256 L290.752,323.256 L290.752,304.632 Z M276.064,320.688 L276.064,315.936 L289.936,315.936 L289.936,320.688 L276.064,320.688 Z M276.064,315.12 L276.064,310.68 L289.936,310.68 L289.936,315.12 L276.064,315.12 Z M276.064,309.864 L276.064,305.424 L289.936,305.424 L289.936,309.864 L276.064,309.864 Z M302.344,309.192 L302.344,310.008 L309.136,310.008 C308.632,311.664 308.08,313.248 307.504,314.784 L319.72,314.784 C318.328,316.8 316.36,318.696 313.84,320.448 C312.016,319.728 310.072,319.056 308.056,318.48 L307.6,319.128 C311.512,320.232 315.328,321.744 319.024,323.64 L319.48,322.944 C317.968,322.176 316.36,321.456 314.68,320.784 C317.392,318.816 319.36,316.776 320.608,314.712 L320.608,313.992 L308.632,313.992 C309.112,312.792 309.568,311.448 310,310.008 L323.656,310.008 L323.656,309.192 L310.24,309.192 C310.576,308.016 310.888,306.744 311.224,305.352 L322.24,305.352 L322.24,304.56 L311.392,304.56 C311.584,303.6 311.8,302.592 312.04,301.488 L311.224,301.416 C311.032,302.472 310.792,303.504 310.552,304.56 L303.976,304.56 L303.976,305.352 L310.384,305.352 C310.072,306.648 309.736,307.944 309.376,309.192 L302.344,309.192 Z M340,301.848 L340,321.24 L332.488,321.24 L332.488,322.056 L353.512,322.056 L353.512,321.24 L345.952,321.24 L345.952,301.848 L345.16,301.848 L345.16,321.24 L340.792,321.24 L340.792,301.848 L340,301.848 Z M351.904,306.024 C350.824,310.536 349.552,314.232 348.088,317.136 L348.832,317.424 C350.392,314.208 351.664,310.488 352.648,306.24 L351.904,306.024 Z M333.976,305.976 L333.256,306.216 C334.648,309.864 335.776,313.656 336.688,317.592 L337.456,317.4 C336.424,313.104 335.272,309.288 333.976,305.976 Z M370.312,305.952 L366.256,305.952 C366.784,304.632 367.168,303.192 367.432,301.632 L366.616,301.512 C366.376,303.072 365.992,304.56 365.464,305.952 L363.352,305.952 L363.352,322.488 L364.168,322.488 L364.168,320.232 L369.496,320.232 L369.496,321.816 L370.312,321.816 L370.312,305.952 Z M364.168,319.464 L364.168,313.344 L369.496,313.344 L369.496,319.464 L364.168,319.464 Z M364.168,312.576 L364.168,306.768 L369.496,306.768 L369.496,312.576 L364.168,312.576 Z M374.272,311.208 L373.624,311.64 C375.496,313.608 376.984,315.408 378.04,317.04 L378.688,316.56 C377.68,315.024 376.192,313.248 374.272,311.208 Z M382.768,306 L374.728,306 C375.232,304.632 375.64,303.168 375.928,301.584 L375.136,301.488 C374.488,305.04 373.264,308.064 371.464,310.512 L371.944,311.16 C372.904,309.864 373.72,308.424 374.392,306.816 L381.976,306.816 C381.928,313.872 381.832,318.192 381.64,319.776 C381.424,321.36 380.584,322.176 379.12,322.176 C378.448,322.176 377.632,322.152 376.696,322.152 L376.912,322.92 C377.968,322.92 378.736,322.944 379.168,322.944 C381.136,322.944 382.216,321.912 382.432,319.896 C382.648,318.12 382.768,313.488 382.768,306 Z M394.528,302.136 L393.952,302.688 C395.536,303.984 396.784,305.208 397.72,306.36 L398.296,305.784 C397.288,304.584 396.016,303.36 394.528,302.136 Z M392.224,309.192 L392.224,310.008 L395.848,310.008 L395.848,320.76 C395.848,321 395.704,321.24 395.44,321.504 L395.776,322.224 C397.384,321.168 398.896,319.944 400.288,318.6 L400.072,317.712 C398.824,318.912 397.696,319.896 396.664,320.664 L396.664,309.192 L392.224,309.192 Z M400.696,311.928 L400.696,312.744 L401.944,312.744 C402.688,315.096 404.128,317.184 406.264,319.008 C404.344,320.472 401.968,321.648 399.112,322.56 L399.568,323.256 C402.496,322.344 404.944,321.096 406.912,319.536 C408.688,320.928 410.944,322.176 413.632,323.232 L414.088,322.536 C411.496,321.552 409.288,320.376 407.488,319.032 C409.456,317.304 410.896,315.216 411.76,312.72 L411.76,311.928 L400.696,311.928 Z M402.736,312.744 L410.944,312.744 C410.104,314.976 408.736,316.896 406.84,318.528 C404.824,316.848 403.456,314.928 402.736,312.744 Z M402.784,302.688 L402.784,304.656 C402.784,306.96 401.68,308.736 399.52,309.984 L400.072,310.608 C402.424,309.192 403.624,307.176 403.624,304.56 L403.624,303.48 L409.336,303.48 L409.336,308.232 C409.336,309.336 409.888,309.912 411.04,309.912 L413.536,309.912 L413.536,309.144 L411.16,309.144 C410.488,309.144 410.176,308.808 410.176,308.136 L410.176,302.688 L402.784,302.688 Z M429.712,309.048 L429.712,309.864 L436.552,309.864 L436.552,323.328 L437.416,323.328 L437.416,309.864 L443.92,309.864 L443.92,309.048 L437.416,309.048 L437.416,301.488 L436.552,301.488 L436.552,309.048 L429.712,309.048 Z M424.456,301.824 L423.88,302.376 C425.68,303.768 427.144,305.088 428.248,306.336 L428.8,305.76 C427.624,304.44 426.184,303.12 424.456,301.824 Z M422.224,309.144 L422.224,309.96 L426.04,309.96 L426.04,320.736 C426.04,320.952 425.896,321.192 425.632,321.432 L425.968,322.152 C427.6,321.048 429.112,319.8 430.528,318.384 L430.336,317.52 C429.088,318.72 427.912,319.752 426.832,320.592 L426.832,309.144 L422.224,309.144 Z M453.304,304.776 L453.304,317.16 L454.096,317.16 L454.096,304.776 L453.304,304.776 Z M457.6,301.536 L457.6,313.032 C457.552,317.496 456.064,320.712 453.136,322.728 L453.736,323.256 C456.784,321.096 458.344,317.688 458.416,313.032 L458.416,301.536 L457.6,301.536 Z M460.288,302.808 L460.288,303.624 L466.576,303.624 L466.576,307.584 L461.248,307.584 L461.248,320.856 L462.04,320.856 L462.04,308.376 L466.576,308.376 L466.576,323.304 L467.392,323.304 L467.392,308.376 L471.928,308.376 L471.928,319.008 C471.928,319.656 471.616,319.992 471.04,319.992 L469.288,319.944 L469.504,320.784 L471.304,320.784 C472.24,320.784 472.72,320.256 472.72,319.2 L472.72,307.584 L467.392,307.584 L467.392,303.624 L473.632,303.624 L473.632,302.808 L460.288,302.808 Z" id="有品质的设计，来自专业的设计师-copy"></path>
        </g>
    </g>
</svg>