<?xml version="1.0" encoding="UTF-8"?>
<svg width="18px" height="18px" viewBox="0 0 18 18" version="1.1" xmlns="http://www.w3.org/2000/svg" xmlns:xlink="http://www.w3.org/1999/xlink">
    <!-- Generator: sketchtool 39.1 (31720) - http://www.bohemiancoding.com/sketch -->
    <title>F07E401C-8FE4-4AEF-B74B-4E3AD73B8196</title>
    <desc>Created with sketchtool.</desc>
    <defs></defs>
    <g id="从这里开始" stroke="none" stroke-width="1" fill="none" fill-rule="evenodd">
        <g id="登录后" transform="translate(-1316.000000, -872.000000)" fill="#FFFFFF">
            <g id="Group-2-Copy" transform="translate(1300.000000, 860.000000)">
                <g id="Group">
                    <g id="message" transform="translate(16.000000, 12.000000)">
                        <path d="M5.06698528,15.8880822 C5.06698528,16.4413174 5.38530419,16.5714842 5.78043512,16.1763533 L8.95678841,13 L15.9975845,13 C16.5512033,13 17,12.555163 17,12.0044225 L17,2.9955775 C17,2.44573523 16.5510798,2 15.992516,2 L3.00748397,2 C2.45106594,2 2,2.44483697 2,2.9955775 L2,12.0044225 C2,12.5542648 2.45254424,13 3.00424569,13 L5.06698528,13 L5.06698528,15.8880822 L5.06698528,15.8880822 L5.06698528,15.8880822 Z M15,11 L15,4 L4,4 L4,11 L7.06698528,11 L7.06698528,12.6185623 L8.68554757,11 L15,11 L15,11 L15,11 Z" id="Combined-Shape"></path>
                        <rect id="Rectangle-1078" opacity="0.5" x="6" y="6" width="7" height="1"></rect>
                        <rect id="Rectangle-1078-Copy" opacity="0.5" x="6" y="8" width="7" height="1"></rect>
                    </g>
                </g>
            </g>
        </g>
    </g>
</svg>