<?xml version="1.0" encoding="UTF-8"?>
<svg width="180px" height="30px" viewBox="0 0 180 30" version="1.1" xmlns="http://www.w3.org/2000/svg" xmlns:xlink="http://www.w3.org/1999/xlink">
    <!-- Generator: sketchtool 41.2 (35397) - http://www.bohemiancoding.com/sketch -->
    <title>BEC62257-2479-4DDC-B053-F204701A75D3</title>
    <desc>Created with sketchtool.</desc>
    <defs>
        <linearGradient x1="9.27283733%" y1="91.1445117%" x2="89.3653531%" y2="8.47571237%" id="linearGradient-1">
            <stop stop-color="#73F1FF" offset="0%"></stop>
            <stop stop-color="#0066FF" offset="100%"></stop>
        </linearGradient>
        <linearGradient x1="33.7409158%" y1="26.2695656%" x2="76.5290667%" y2="66.6910729%" id="linearGradient-2">
            <stop stop-color="#4CBEFF" offset="0%"></stop>
            <stop stop-color="#004CFF" offset="100%"></stop>
        </linearGradient>
        <linearGradient x1="8.41374057%" y1="7.91738397%" x2="92.3029077%" y2="92.7118769%" id="linearGradient-3">
            <stop stop-color="#3FD3FF" offset="0%"></stop>
            <stop stop-color="#0055FF" offset="100%"></stop>
        </linearGradient>
        <linearGradient x1="9.754874%" y1="7.45020543%" x2="92.7239982%" y2="90.3759842%" id="linearGradient-4">
            <stop stop-color="#3FB9FF" offset="0%"></stop>
            <stop stop-color="#4400FF" offset="100%"></stop>
        </linearGradient>
    </defs>
    <g id="newHome" stroke="none" stroke-width="1" fill="none" fill-rule="evenodd">
        <g id="Muse3.0-新首页-全局头部" transform="translate(-130.000000, -595.000000)">
            <g id="header/tiny" transform="translate(0.000000, 574.000000)">
                <g id="em-gb-museLogo" transform="translate(130.000000, 21.000000)">
                    <g id="muse" transform="translate(0.019868, 0.011900)">
                        <path d="M14.7906288,2.54683031 C18.1718401,-0.834703102 23.6530777,-0.835492274 27.034976,2.54672829 L27.034976,2.54672829 C30.416131,5.92820535 30.4162835,11.4105104 27.034874,14.792242 L14.7908329,27.0374496 C11.4096216,30.418983 5.92838404,30.4197722 2.54648568,27.0375517 L2.54648568,27.0375517 C-0.83466926,23.6560746 -0.834821793,18.1737696 2.5465877,14.7920379 L14.7906288,2.54683031 L14.7906288,2.54683031 Z" id="Rectangle-1" fill="url(#linearGradient-1)"></path>
                        <path d="M39.3215971,2.54683031 C42.7028084,-0.834703102 48.1840459,-0.835492274 51.5659443,2.54672829 L51.5659443,2.54672829 C54.9470992,5.92820535 54.9472517,11.4105104 51.5658422,14.792242 L39.3218011,27.0374496 C35.9405898,30.418983 30.4593523,30.4197722 27.0774539,27.0375517 L27.0774539,27.0375517 C23.696299,23.6560746 23.6961464,18.1737696 27.0775559,14.7920379 L39.3215971,2.54683031 L39.3215971,2.54683031 Z" id="Rectangle-1-Copy" fill="url(#linearGradient-2)"></path>
                        <path d="M39.3004601,27.0375517 C35.9193052,30.4190287 30.4375224,30.4191813 27.056113,27.0374496 L14.8120718,14.792242 C11.4308605,11.4107086 11.4300714,5.92894884 14.8119698,2.54672829 C18.1931247,-0.83474878 23.6749075,-0.834901327 27.056317,2.54683031 L39.3003581,14.7920379 C42.6815694,18.1735714 42.6823585,23.6553311 39.3004601,27.0375517 Z" id="Rectangle-1-Copy-2" fill="url(#linearGradient-3)"></path>
                        <path d="M63.8313264,14.7920379 C67.2125376,18.1735714 67.2133267,23.6553311 63.8314284,27.0375517 L63.8314284,27.0375517 C60.4502734,30.4190287 54.9684907,30.4191813 51.5870812,27.0374496 L39.3430401,14.792242 C35.9618288,11.4107086 35.9610397,5.92894884 39.342938,2.54672829 L39.342938,2.54672829 C42.724093,-0.83474878 48.2058757,-0.834901327 51.5872852,2.54683031 L63.8313264,14.7920379 L63.8313264,14.7920379 Z" id="Rectangle-1-Copy-3" fill="url(#linearGradient-4)"></path>
                    </g>
                    <g id="logoTyple" transform="translate(73.931602, 2.300703)" fill="#3F3F3F">
                        <g id="Group">
                            <path d="M6.63587727,7.5952518 L9.11773057,7.5952518 L9.11773057,5.39505816 L15.2431557,5.39505816 L15.2431557,7.70526148 L17.7514117,7.70526148 L17.7514117,5.39505816 L23.6392127,5.39505816 L23.6392127,2.94734273 L17.7514117,2.94734273 L17.7514117,0.444622465 L15.2431557,0.444622465 L15.2431557,2.94734273 L9.11773057,2.94734273 L9.11773057,0.444622465 L6.63587727,0.444622465 L6.63587727,2.94734273 L0.563257487,2.94734273 L0.563257487,5.39505816 L6.63587727,5.39505816 L6.63587727,7.5952518 Z M6.84709883,8.03529052 C5.36854792,11.2255713 2.83388923,14.3333448 0.193619761,16.2860167 C0.800881739,16.698553 1.77778144,17.5786304 2.22662725,18.073674 C2.9923054,17.4136159 3.78438624,16.6710506 4.55006439,15.7909731 L4.55006439,25.6643421 L7.05832038,25.6643421 L7.05832038,12.6281947 C7.87680392,11.4180882 8.66888476,10.0979721 9.27614674,8.8053583 L6.84709883,8.03529052 Z M16.5104851,22.7765879 C15.2959611,22.7765879 15.0847396,22.5290661 15.0847396,21.4014669 L15.0847396,16.7260554 C17.9626333,15.2959295 20.7349162,13.755794 22.9263399,12.1606536 L21.2101647,10.0704696 C19.5996004,11.4180882 17.4345794,12.7657068 15.0847396,14.085823 L15.0847396,8.28281231 L12.5764836,8.28281231 L12.5764836,15.4334416 C11.2299461,16.1210022 9.85700602,16.7535578 8.51046859,17.3311087 C8.88010632,17.8536546 9.32895213,18.6787273 9.48736829,19.3112829 C10.5170734,18.8712442 11.5467785,18.4037031 12.5764836,17.9361619 L12.5764836,21.4014669 C12.5764836,24.3717283 13.3421617,25.2243033 16.2200554,25.2243033 L20.6557082,25.2243033 C23.2695749,25.2243033 23.956045,23.9316896 24.2728773,19.6963168 C23.5600046,19.5037999 22.5302995,19.0912636 21.9494402,18.6237224 C21.8174267,22.0890274 21.6062052,22.7765879 20.497292,22.7765879 L16.5104851,22.7765879 Z M42.6755555,3.96493229 L42.6755555,6.05511625 L50.3059343,6.05511625 L50.3059343,3.96493229 L47.9560945,3.96493229 C47.6392621,2.94734273 47.1112082,1.62722655 46.609557,0.582134567 L44.6293549,1.13218298 C45.0253954,1.98475801 45.4214358,3.05735241 45.7382681,3.96493229 L42.6755555,3.96493229 Z M45.8174762,10.7580302 C45.7646708,9.52042123 45.4214358,7.70526148 44.9461873,6.30263803 L43.2828175,6.74267676 C43.758066,8.17280263 44.0748983,10.0429672 44.101301,11.2255713 L45.8174762,10.7580302 Z M34.0418744,3.96493229 L31.6920345,3.96493229 C31.3487995,2.94734273 30.8207456,1.68223139 30.2926917,0.637139408 L28.3124896,1.21469024 C28.70853,2.03976285 29.1309732,3.08485483 29.4214028,3.96493229 L26.6491198,3.96493229 L26.6491198,6.05511625 L34.0418744,6.05511625 L34.0418744,3.96493229 Z M29.7118324,10.7305277 C29.6854297,9.54792365 29.3685974,7.76026632 28.9197516,6.41264771 L27.2563818,6.82518402 C27.7052276,8.22780747 27.9956573,10.0429672 27.9692546,11.1980689 L29.7118324,10.7305277 Z M33.8042501,18.2111861 L33.8042501,16.1210022 L31.5072157,16.1210022 L31.5072157,13.3982625 L34.1210824,13.3982625 L34.1210824,11.3080786 L32.2992965,11.3080786 C32.7217396,9.96045996 33.1705854,8.22780747 33.5666259,6.71517434 L31.6920345,6.30263803 C31.5072157,7.76026632 31.0319672,9.8779527 30.6359267,11.3080786 L26.464301,11.3080786 L26.464301,13.3982625 L29.3421947,13.3982625 L29.3421947,16.1210022 L26.7547306,16.1210022 L26.7547306,18.2111861 L29.315792,18.2111861 C29.1837785,20.2463652 28.6557246,22.6390758 26.7019252,24.0967041 C27.2035764,24.4542356 27.8636438,25.2518058 28.1804761,25.7193469 C30.530316,23.7666751 31.2959941,20.7964136 31.4544103,18.2111861 L33.8042501,18.2111861 Z M41.24981,0.582134567 C39.7184537,1.37970476 37.0781843,2.2322798 34.7283444,2.72732337 L34.7019417,2.72732337 L34.7019417,7.92528084 C34.7019417,12.4906826 34.5171229,19.3662878 32.5897262,24.3992307 C32.9857666,24.5642452 33.7778474,25.1142937 34.0682771,25.4718251 C36.1012846,20.1913604 36.4181169,12.6831996 36.4181169,7.92528084 L36.4181169,4.15744923 C36.7877546,4.07494197 37.1573923,3.99243471 37.5270301,3.93742987 L37.5270301,7.870276 C37.5270301,12.4631802 37.5270301,18.8437418 35.3356064,23.4641484 C35.6788414,23.7391726 36.4181169,24.4267331 36.6557411,24.811767 C36.9725735,24.5367428 37.5270301,24.2617186 40.0352861,23.5466557 C40.1144941,24.1242065 40.1672995,24.6192501 40.2201049,25.0867912 L41.5402397,24.7842646 C41.3554208,22.9141 40.8273669,20.163858 40.3257157,17.9911667 L39.0583864,18.266191 C39.2960106,19.2837805 39.5336349,20.4388822 39.7184537,21.5939838 L37.6854462,22.0890274 C39.1111917,17.3586111 39.1639971,11.858127 39.1639971,7.870276 L39.1639971,3.49739114 C39.5072322,3.41488388 39.7976618,3.3048742 40.1408968,3.19486452 C40.3257157,12.5456875 40.7481588,20.9889306 42.7811663,25.6368396 C43.0979986,25.1142937 43.7316633,24.4542356 44.1541064,24.1242065 C42.2267097,20.0813507 41.8306693,11.5280979 41.6722531,2.67231853 C42.1210989,2.53480642 42.5435421,2.3697919 42.9659852,2.17727496 L41.24981,0.582134567 Z M50.675572,13.4257649 L50.675572,11.335581 L48.6953699,11.335581 C49.0914103,9.96045996 49.5402562,8.17280263 49.9098939,6.63266708 L48.0088999,6.22013077 C47.824081,7.70526148 47.3488325,9.8779527 46.9527921,11.335581 L42.5699448,11.335581 L42.5699448,13.4257649 L45.3950331,13.4257649 L45.3950331,16.6710506 L43.071596,16.6710506 L43.071596,18.7612345 L45.3950331,18.7612345 L45.3950331,25.6643421 L47.6128594,25.6643421 L47.6128594,18.7612345 L50.332337,18.7612345 L50.332337,16.6710506 L47.6128594,16.6710506 L47.6128594,13.4257649 L50.675572,13.4257649 Z" id="花瓣"></path>
                            <path d="M78.6184239,17.6886401 L78.6184239,16.4510312 L67.2388625,16.4510312 C67.4236814,15.6809634 67.5556948,14.800886 67.6613056,13.9208085 L78.8032428,13.9208085 L78.8032428,12.710702 L67.714111,12.710702 L67.714111,9.85045028 L76.4005976,9.85045028 L76.4005976,8.66784619 L67.714111,8.66784619 L67.714111,5.91760414 L77.6415242,5.91760414 L77.6415242,4.67999522 L71.6745152,4.67999522 C72.4401934,3.60740082 73.337885,2.25978222 74.024355,1.07717814 L72.7834284,0.527129726 C72.2025691,1.76473865 71.1200586,3.49739114 70.2751724,4.67999522 L62.7240017,4.67999522 L63.648096,4.18495165 C63.1992502,3.16736209 62.1695451,1.65472897 61.1662427,0.527129726 L60.0837322,1.04967572 C61.0342292,2.14977254 61.9847263,3.63490324 62.4599748,4.67999522 L56.6249792,4.67999522 L56.6249792,5.91760414 L66.420379,5.91760414 L66.420379,8.66784619 L57.9979194,8.66784619 L57.9979194,9.85045028 L66.420379,9.85045028 L66.420379,12.710702 L55.5424687,12.710702 L55.5424687,13.9208085 L66.3411709,13.9208085 C66.2355601,14.8283884 66.0771439,15.6809634 65.8923251,16.4510312 L56.1497307,16.4510312 L56.1497307,17.6886401 L65.5226873,17.6886401 C64.3081634,21.0714378 61.6414912,23.1616218 55.2256364,24.2067138 C55.436858,24.5092404 55.7536903,25.0867912 55.8857038,25.3893179 C62.7768071,24.1792114 65.6282981,21.7314959 66.9220302,17.6886401 L66.9748356,17.6886401 C68.9550377,21.8965105 72.8362338,24.3717283 78.1431754,25.3618154 C78.3015916,25.004284 78.6448266,24.4542356 78.9352563,24.1517089 C73.945147,23.3541387 70.222367,21.2364524 68.321373,17.6886401 L78.6184239,17.6886401 Z M101.245533,7.21021791 L94.0640003,7.21021791 L94.0640003,3.05735241 L101.245533,3.05735241 L101.245533,7.21021791 Z M101.245533,12.6006923 L94.0640003,12.6006923 L94.0640003,8.39282199 L101.245533,8.39282199 L101.245533,12.6006923 Z M85.5359299,8.39282199 L92.8494764,8.39282199 L92.8494764,12.6006923 L85.5359299,12.6006923 L85.5359299,8.39282199 Z M85.5359299,3.05735241 L92.8494764,3.05735241 L92.8494764,7.21021791 L85.5359299,7.21021791 L85.5359299,3.05735241 Z M102.48646,1.81974349 L84.2950033,1.81974349 L84.2950033,13.8107988 L102.48646,13.8107988 L102.48646,1.81974349 Z M96.9154913,18.7337321 C95.6745647,17.4961232 93.2455168,15.8459779 91.1861066,14.7458811 L90.3412204,15.5709537 C92.4006305,16.698553 94.8296785,18.4587079 96.0442024,19.6688144 L96.9154913,18.7337321 Z M82.9484658,24.2067138 C84.2950033,22.4190564 85.2455003,19.5037999 85.879165,17.3311087 L84.7702518,16.9185723 C84.1893925,19.0087563 83.1860901,21.8415056 81.81315,23.5741581 L82.9484658,24.2067138 Z M91.1597039,23.6566654 C89.5491395,23.6566654 89.2587099,23.4916508 89.2587099,22.7490855 L89.2587099,16.7260554 L87.9913805,16.7260554 L87.9913805,22.7490855 C87.9913805,24.481738 88.6778506,24.8942743 91.1597039,24.8942743 L97.0211021,24.8942743 C99.2653312,24.8942743 99.714177,24.0416993 99.9253985,20.3838773 C99.5557608,20.3013701 99.0541096,20.1088531 98.7108746,19.8613313 C98.5788611,23.1616218 98.3676395,23.6566654 96.9682967,23.6566654 L91.1597039,23.6566654 Z M100.057412,17.028582 C101.641574,19.1462684 103.252138,22.061525 103.885803,23.9316896 L105.100327,23.3541387 C104.440259,21.5114766 102.77689,18.6512248 101.192728,16.5335385 L100.057412,17.028582 Z" id="美思"></path>
                        </g>
                    </g>
                </g>
            </g>
        </g>
    </g>
</svg>