<?xml version="1.0" encoding="UTF-8"?>
<svg width="180px" height="30px" viewBox="0 0 180 30" version="1.1" xmlns="http://www.w3.org/2000/svg" xmlns:xlink="http://www.w3.org/1999/xlink">
    <!-- Generator: sketchtool 41.1 (35376) - http://www.bohemiancoding.com/sketch -->
    <title>A1079FDA-B0D0-476C-8C64-A47AB9DAB201</title>
    <desc>Created with sketchtool.</desc>
    <defs></defs>
    <g id="newHome" stroke="none" stroke-width="1" fill="none" fill-rule="evenodd">
        <g id="Muse3.0-新首页" transform="translate(-131.000000, -25.000000)" fill="#FFFFFF">
            <g id="em-gb-museLogo" transform="translate(131.000000, 25.000000)">
                <g id="logo">
                    <path d="M51.5166597,2.43443224 C48.2759505,-0.79719927 43.0221832,-0.79718434 39.7815925,2.434329 L33.9236546,8.274629 L52.2067446,26.5267693 C55.4474537,29.7584008 60.7012211,29.7583858 63.9418117,26.5268725 C67.1828185,23.2949441 67.1825544,18.056445 63.9417082,14.8246767 L51.5166597,2.43443224 Z M44.9061327,20.6865725 L26.6230426,2.43443224 C23.3823335,-0.79719927 18.1285661,-0.79718434 14.8879755,2.434329 C11.6469687,5.66625736 11.6472328,10.9047566 14.888079,14.1365248 L27.3131276,26.5267693 C30.5538367,29.7584008 35.8076041,29.7583858 39.0481947,26.5268725 L44.9061327,20.6865725 Z M2.44127053,14.8246767 C-0.799438594,18.0563082 -0.799423621,23.2953592 2.441167,26.5268725 C5.68217381,29.7588009 10.9353879,29.7585375 14.1762341,26.5267693 L20.0585363,20.6692157 L14.1977871,14.8248832 C11.6257838,12.2600844 10.8799917,8.56431828 11.9586984,5.35417171 C11.2320593,6.08528126 2.44127053,14.8246767 2.44127053,14.8246767 Z"></path>
                </g>
                <g id="logoTyple" transform="translate(73.690952, 1.298570)">
                    <g id="Group">
                        <path d="M6.65114093,7.61272218 L9.13870292,7.61272218 L9.13870292,5.40746772 L15.2782176,5.40746772 L15.2782176,7.72298491 L17.792243,7.72298491 L17.792243,5.40746772 L23.6935869,5.40746772 L23.6935869,2.95412213 L17.792243,2.95412213 L17.792243,0.445645173 L15.2782176,0.445645173 L15.2782176,2.95412213 L9.13870292,2.95412213 L9.13870292,0.445645173 L6.65114093,0.445645173 L6.65114093,2.95412213 L0.564553076,2.95412213 L0.564553076,5.40746772 L6.65114093,5.40746772 L6.65114093,7.61272218 Z M6.86284833,8.05377308 C5.38089651,11.2513921 2.84040767,14.366314 0.19406512,16.3234773 C0.802723905,16.7369625 1.78187065,17.6190643 2.23174888,18.1152466 C2.99918822,17.4536702 3.79309098,16.7093969 4.56053032,15.8272951 L4.56053032,25.7233745 L7.07455574,25.7233745 L7.07455574,12.6572418 C7.89492193,11.4443518 8.68882469,10.1211991 9.29748348,8.82561214 L6.86284833,8.05377308 Z M16.548462,22.828978 C15.3311445,22.828978 15.1194371,22.5808869 15.1194371,21.450694 L15.1194371,16.7645282 C18.0039504,15.3311128 20.7826101,13.7874347 22.9790744,12.1886252 L21.2589518,10.0936335 C19.6446828,11.4443518 17.4746819,12.7950702 15.1194371,14.1182229 L15.1194371,8.30186421 L12.6054117,8.30186421 L12.6054117,15.4689412 C11.255777,16.1580832 9.87967884,16.7920939 8.53004414,17.3709732 C8.90053209,17.8947211 9.35041033,18.7216916 9.50919088,19.3557022 C10.5412645,18.9146513 11.5733381,18.4460347 12.6054117,17.9774182 L12.6054117,21.450694 C12.6054117,24.4277875 13.372851,25.2823236 16.2573644,25.2823236 L20.7032198,25.2823236 C23.323099,25.2823236 24.011148,23.9867366 24.3287091,19.7416217 C23.6141966,19.548662 22.5821231,19.1351768 21.9999277,18.6665602 C21.8676106,22.139836 21.6559032,22.828978 20.5444393,22.828978 L16.548462,22.828978 Z M42.7737167,3.97405232 L42.7737167,6.06904406 L50.4216466,6.06904406 L50.4216466,3.97405232 L48.0664018,3.97405232 C47.7488407,2.95412213 47.2195721,1.63096945 46.7167671,0.583473577 L44.7320102,1.13478719 C45.1289615,1.9893233 45.5259129,3.06438485 45.843474,3.97405232 L42.7737167,3.97405232 Z M45.9228643,10.7827755 C45.8699374,9.54231984 45.5259129,7.72298491 45.0495713,6.31713519 L43.3823755,6.75818608 C43.8587171,8.19160148 44.1762782,10.0660678 44.2027416,11.2513921 L45.9228643,10.7827755 Z M34.1201765,3.97405232 L31.7649317,3.97405232 C31.4209072,2.95412213 30.8916386,1.68610081 30.3623701,0.638604939 L28.3776132,1.21748424 C28.7745646,2.04445466 29.1979794,3.09195053 29.4890771,3.97405232 L26.7104174,3.97405232 L26.7104174,6.06904406 L34.1201765,6.06904406 L34.1201765,3.97405232 Z M29.7801748,10.7552098 C29.7537113,9.56988552 29.4361502,7.77811627 28.986272,6.42739791 L27.3190762,6.84088312 C27.7689544,8.24673284 28.0600521,10.0660678 28.0335887,11.2238264 L29.7801748,10.7552098 Z M33.8820057,18.253075 L33.8820057,16.1580832 L31.5796877,16.1580832 L31.5796877,13.4290808 L34.1995668,13.4290808 L34.1995668,11.3340891 L32.3735905,11.3340891 C32.7970053,9.98337073 33.2468835,8.24673284 33.6438349,6.7306204 L31.7649317,6.31713519 C31.5796877,7.77811627 31.103346,9.90067369 30.7063947,11.3340891 L26.5251734,11.3340891 L26.5251734,13.4290808 L29.4096868,13.4290808 L29.4096868,16.1580832 L26.8162711,16.1580832 L26.8162711,18.253075 L29.3832234,18.253075 C29.2509063,20.2929354 28.7216378,22.6911496 26.7633443,24.1521307 C27.2661494,24.5104845 27.927735,25.3098893 28.2452961,25.7785058 C30.600541,23.8213425 31.3679803,20.844249 31.5267609,18.253075 L33.8820057,18.253075 Z M41.3446917,0.583473577 C39.809813,1.38287832 37.1634705,2.23741443 34.8082256,2.73359668 L34.7817622,2.73359668 L34.7817622,7.94351035 C34.7817622,12.5194134 34.5965182,19.4108336 32.6646881,24.4553532 C33.0616395,24.6207472 33.8555423,25.1720609 34.14664,25.5304147 C36.1843237,20.237804 36.5018848,12.7123731 36.5018848,7.94351035 L36.5018848,4.16701208 C36.8723728,4.08431504 37.2428608,4.001618 37.6133487,3.94648664 L37.6133487,7.88837899 C37.6133487,12.4918477 37.6133487,18.8870856 35.4168844,23.51812 C35.7609089,23.7937768 36.5018848,24.4829188 36.7400557,24.8688384 C37.0576168,24.5931816 37.6133487,24.3175248 40.1273741,23.6008171 C40.2067644,24.1796964 40.2596913,24.6758786 40.3126181,25.1444952 L41.6357894,24.8412727 C41.4505454,22.9668064 40.9212769,20.2102383 40.4184718,18.0325495 L39.1482274,18.3082063 C39.3863982,19.3281365 39.624569,20.4858951 39.809813,21.6436537 L37.7721293,22.139836 C39.2011542,17.3985389 39.2540811,11.8854027 39.2540811,7.88837899 L39.2540811,3.50543574 C39.5981056,3.4227387 39.8892033,3.31247598 40.2332278,3.20221325 C40.4184718,12.5745447 40.8418866,21.0372087 42.8795704,25.6958088 C43.1971315,25.1720609 43.8322537,24.5104845 44.2556685,24.1796964 C42.3238384,20.1275413 41.9268871,11.5546145 41.7681065,2.67846532 C42.2179847,2.54063692 42.6413995,2.37524283 43.0648144,2.18228306 L41.3446917,0.583473577 Z M50.7921346,13.4566465 L50.7921346,11.3616548 L48.8073777,11.3616548 C49.2043291,9.98337073 49.6542073,8.19160148 50.0246952,6.64792336 L48.1193286,6.23443814 C47.9340846,7.72298491 47.457743,9.90067369 47.0607916,11.3616548 L42.667863,11.3616548 L42.667863,13.4566465 L45.4994495,13.4566465 L45.4994495,16.7093969 L43.1706681,16.7093969 L43.1706681,18.8043886 L45.4994495,18.8043886 L45.4994495,25.7233745 L47.7223772,25.7233745 L47.7223772,18.8043886 L50.4481101,18.8043886 L50.4481101,16.7093969 L47.7223772,16.7093969 L47.7223772,13.4566465 L50.7921346,13.4566465 Z" id="花瓣"></path>
                        <path d="M78.7992599,17.729327 L78.7992599,16.4888714 L67.3935235,16.4888714 C67.5787675,15.7170323 67.7110846,14.8349306 67.8169383,13.9528288 L78.9845038,13.9528288 L78.9845038,12.7399388 L67.8698651,12.7399388 L67.8698651,9.87310801 L76.5763321,9.87310801 L76.5763321,8.68778374 L67.8698651,8.68778374 L67.8698651,5.93121566 L77.8201131,5.93121566 L77.8201131,4.69076002 L71.839379,4.69076002 C72.6068183,3.61569847 73.5065748,2.26498011 74.1946238,1.07965583 L72.9508428,0.528342216 C72.3686475,1.76879785 71.283647,3.50543574 70.4368174,4.69076002 L62.8682777,4.69076002 L63.7944976,4.19457776 C63.3446194,3.17464757 62.3125458,1.65853513 61.3069356,0.528342216 L60.2219352,1.05209015 C61.1746185,2.15471738 62.1273018,3.64326415 62.6036435,4.69076002 L56.7552265,4.69076002 L56.7552265,5.93121566 L66.5731573,5.93121566 L66.5731573,8.68778374 L58.1313246,8.68778374 L58.1313246,9.87310801 L66.5731573,9.87310801 L66.5731573,12.7399388 L55.670226,12.7399388 L55.670226,13.9528288 L66.493767,13.9528288 C66.3879133,14.8624962 66.2291328,15.7170323 66.0438888,16.4888714 L56.2788848,16.4888714 L56.2788848,17.729327 L65.6734008,17.729327 C64.4560833,21.1199058 61.7832773,23.2148975 55.3526649,24.2623934 C55.5643723,24.5656159 55.8819334,25.1444952 56.0142505,25.4477177 C62.9212046,24.2348277 65.7792545,21.7814821 67.0759624,17.729327 L67.1288892,17.729327 C69.1136461,21.9468762 73.0037697,24.4277875 78.3229182,25.420152 C78.4816987,25.0617981 78.8257233,24.5104845 79.116821,24.207262 C74.1152335,23.4078573 70.3838906,21.2852999 68.4785239,17.729327 L78.7992599,17.729327 Z M101.478415,7.22680265 L94.2803637,7.22680265 L94.2803637,3.06438485 L101.478415,3.06438485 L101.478415,7.22680265 Z M101.478415,12.6296761 L94.2803637,12.6296761 L94.2803637,8.41212693 L101.478415,8.41212693 L101.478415,12.6296761 Z M85.7326773,8.41212693 L93.0630462,8.41212693 L93.0630462,12.6296761 L85.7326773,12.6296761 L85.7326773,8.41212693 Z M85.7326773,3.06438485 L93.0630462,3.06438485 L93.0630462,7.22680265 L85.7326773,7.22680265 L85.7326773,3.06438485 Z M102.722196,1.82392921 L84.4888963,1.82392921 L84.4888963,13.842566 L102.722196,13.842566 L102.722196,1.82392921 Z M97.1384137,18.7768229 C95.8946327,17.5363673 93.4599976,15.8824264 91.3958504,14.7797992 L90.5490208,15.6067696 C92.6131679,16.7369625 95.0478031,18.5011661 96.2651206,19.7140561 L97.1384137,18.7768229 Z M83.1392616,24.2623934 C84.4888963,22.4706241 85.4415796,19.548662 86.0767019,17.3709732 L84.965238,16.957488 C84.3830426,19.0524797 83.3774325,21.8917448 82.0013343,23.6283827 L83.1392616,24.2623934 Z M91.3693869,23.7110798 C89.755118,23.7110798 89.4640203,23.5456857 89.4640203,22.8014123 L89.4640203,16.7645282 L88.1937759,16.7645282 L88.1937759,22.8014123 C88.1937759,24.5380502 88.8818249,24.9515354 91.3693869,24.9515354 L97.2442674,24.9515354 C99.4936586,24.9515354 99.9435368,24.0969993 100.155244,20.4307638 C99.7847562,20.3480667 99.2819512,20.155107 98.9379266,19.9070158 C98.8056095,23.2148975 98.5939021,23.7110798 97.1913405,23.7110798 L91.3693869,23.7110798 Z M100.287561,17.0677507 C101.875367,19.1903081 103.489636,22.1122703 104.124758,23.9867366 L105.342076,23.4078573 C104.68049,21.5609567 103.013294,18.6941259 101.425489,16.5715684 L100.287561,17.0677507 Z" id="美思"></path>
                    </g>
                </g>
            </g>
        </g>
    </g>
</svg>