<?xml version="1.0" encoding="UTF-8" standalone="no"?>
<svg width="72px" height="24px" viewBox="0 0 72 24" version="1.1" xmlns="http://www.w3.org/2000/svg" xmlns:xlink="http://www.w3.org/1999/xlink">
    <!-- Generator: Sketch 3.7.2 (28276) - http://www.bohemiancoding.com/sketch -->
    <title>em-home-quality-tex</title>
    <desc>Created with Sketch.</desc>
    <defs></defs>
    <g id="新首页" stroke="none" stroke-width="1" fill="none" fill-rule="evenodd">
        <g transform="translate(-235.000000, -817.000000)" id="whyChooseUS-Copy" fill="#222222">
            <g transform="translate(0.000000, 620.000000)">
                <g id="Group-2" transform="translate(235.000000, 197.000000)">
                    <path d="M11.048,0.32 L9.632,0.56 C9.944,1.16 10.232,1.832 10.496,2.576 L0.44,2.576 L0.44,3.824 L21.536,3.824 L21.536,2.576 L11.864,2.576 C11.6,1.736 11.336,0.992 11.048,0.32 L11.048,0.32 Z M17.744,22.28 C19.376,22.28 20.192,21.56 20.192,20.12 L20.192,11.792 L1.808,11.792 L1.808,22.328 L3.032,22.328 L3.032,12.968 L18.968,12.968 L18.968,19.856 C18.968,20.72 18.416,21.152 17.336,21.152 L15.392,21.104 L15.704,22.28 L17.744,22.28 Z M4.496,5.672 L4.496,10.088 L17.528,10.088 L17.528,5.672 L4.496,5.672 Z M16.28,9.032 L5.744,9.032 L5.744,6.728 L16.28,6.728 L16.28,9.032 Z M6.44,14.768 L6.44,19.4 L15.608,19.4 L15.608,14.768 L6.44,14.768 Z M14.408,18.368 L7.616,18.368 L7.616,15.824 L14.408,15.824 L14.408,18.368 Z M28.232,5.984 L28.232,7.232 L36.2,7.232 C36.008,8.12 35.816,8.984 35.576,9.848 L30.776,9.848 L30.776,18.032 L32.048,18.032 L32.048,11.096 L41.912,11.096 L41.912,17.888 L43.184,17.888 L43.184,9.848 L36.92,9.848 C37.136,9.032 37.328,8.144 37.52,7.232 L45.536,7.232 L45.536,5.984 L37.736,5.984 C37.832,5.288 37.928,4.544 38,3.776 L36.728,3.608 C36.632,4.4 36.536,5.192 36.416,5.984 L28.232,5.984 Z M43.808,0.704 C38.72,1.568 33.032,2.048 26.744,2.12 L26.744,9.512 C26.6,14.456 25.688,18.32 23.984,21.104 L24.896,22.064 C26.864,18.944 27.896,14.744 28.016,9.512 L28.016,3.248 C34.088,3.152 39.56,2.672 44.432,1.856 L43.808,0.704 Z M38.264,17.48 L37.592,18.464 C40.064,19.4 42.488,20.696 44.84,22.328 L45.56,21.2 C43.352,19.736 40.928,18.488 38.264,17.48 L38.264,17.48 Z M36.776,12.176 C36.488,14.72 35.672,16.64 34.352,17.984 C33.008,19.328 30.896,20.384 28.016,21.152 L28.688,22.328 C31.712,21.464 33.968,20.264 35.432,18.776 C36.872,17.264 37.736,15.08 38.024,12.248 L36.776,12.176 Z M50.84,10.472 L50.84,16.496 L58.328,16.496 L58.328,18.056 L50.12,18.056 L50.12,18.992 L58.328,18.992 L58.328,20.624 L48.296,20.624 L48.296,21.68 L69.704,21.68 L69.704,20.624 L59.624,20.624 L59.624,18.992 L67.928,18.992 L67.928,18.056 L59.624,18.056 L59.624,16.496 L67.208,16.496 L67.208,10.472 L50.84,10.472 Z M65.984,15.632 L59.624,15.632 L59.624,13.928 L65.984,13.928 L65.984,15.632 Z M58.328,15.632 L52.064,15.632 L52.064,13.928 L58.328,13.928 L58.328,15.632 Z M52.064,13.112 L52.064,11.336 L58.328,11.336 L58.328,13.112 L52.064,13.112 Z M59.624,11.336 L65.984,11.336 L65.984,13.112 L59.624,13.112 L59.624,11.336 Z M51.368,0.872 L51.368,6.68 L66.704,6.68 L66.704,0.872 L51.368,0.872 Z M65.456,5.816 L52.616,5.816 L52.616,4.184 L65.456,4.184 L65.456,5.816 Z M52.616,3.344 L52.616,1.736 L65.456,1.736 L65.456,3.344 L52.616,3.344 Z M48.296,8.096 L48.296,9.104 L69.704,9.104 L69.704,8.096 L48.296,8.096 Z" id="高质量"></path>
                </g>
            </g>
        </g>
    </g>
</svg>