<?xml version="1.0" encoding="UTF-8" standalone="no"?>
<svg width="72px" height="24px" viewBox="0 0 72 24" version="1.1" xmlns="http://www.w3.org/2000/svg" xmlns:xlink="http://www.w3.org/1999/xlink">
    <!-- Generator: Sketch 3.7.2 (28276) - http://www.bohemiancoding.com/sketch -->
    <title>em-home-eff-tex</title>
    <desc>Created with Sketch.</desc>
    <defs></defs>
    <g id="新首页" stroke="none" stroke-width="1" fill="none" fill-rule="evenodd">
        <g transform="translate(-532.000000, -817.000000)" id="whyChooseUS-Copy" fill="#222222">
            <g transform="translate(0.000000, 620.000000)">
                <g id="Group-10" transform="translate(532.000000, 197.000000)">
                    <path d="M11.048,0.32 L9.632,0.56 C9.944,1.16 10.232,1.832 10.496,2.576 L0.44,2.576 L0.44,3.824 L21.536,3.824 L21.536,2.576 L11.864,2.576 C11.6,1.736 11.336,0.992 11.048,0.32 L11.048,0.32 Z M17.744,22.28 C19.376,22.28 20.192,21.56 20.192,20.12 L20.192,11.792 L1.808,11.792 L1.808,22.328 L3.032,22.328 L3.032,12.968 L18.968,12.968 L18.968,19.856 C18.968,20.72 18.416,21.152 17.336,21.152 L15.392,21.104 L15.704,22.28 L17.744,22.28 Z M4.496,5.672 L4.496,10.088 L17.528,10.088 L17.528,5.672 L4.496,5.672 Z M16.28,9.032 L5.744,9.032 L5.744,6.728 L16.28,6.728 L16.28,9.032 Z M6.44,14.768 L6.44,19.4 L15.608,19.4 L15.608,14.768 L6.44,14.768 Z M14.408,18.368 L7.616,18.368 L7.616,15.824 L14.408,15.824 L14.408,18.368 Z M27.608,5.768 C26.648,7.928 25.472,9.776 24.128,11.312 L25.184,12.056 C26.552,10.448 27.752,8.528 28.76,6.32 L27.608,5.768 Z M33.944,10.04 L34.808,9.176 C33.512,7.592 32.384,6.416 31.424,5.648 L30.584,6.44 C31.64,7.376 32.768,8.576 33.944,10.04 L33.944,10.04 Z M27.224,11.72 L26.36,12.68 C27.44,13.544 28.52,14.504 29.576,15.536 C28.136,17.84 26.264,19.664 23.936,20.96 L24.728,22.112 C27.104,20.768 29.048,18.896 30.536,16.496 C31.448,17.432 32.384,18.44 33.296,19.52 L34.184,18.536 C33.272,17.456 32.264,16.4 31.208,15.344 C31.88,14.072 32.456,12.656 32.912,11.072 L31.76,10.568 C31.352,11.936 30.848,13.208 30.224,14.384 C29.288,13.472 28.28,12.584 27.224,11.72 L27.224,11.72 Z M29.6,0.248 L28.28,0.488 C28.712,1.256 29.12,2.144 29.504,3.128 L24.344,3.128 L24.344,4.4 L35.336,4.4 L35.336,3.128 L30.776,3.128 C30.416,2.048 30.032,1.088 29.6,0.248 L29.6,0.248 Z M38.384,5.768 L42.32,5.768 C42.248,9.104 41.552,12.008 40.256,14.504 C39.248,12.56 38.432,10.256 37.808,7.616 C38,7.04 38.192,6.416 38.384,5.768 L38.384,5.768 Z M39.536,15.752 C38.096,17.96 36.104,19.784 33.512,21.2 L34.256,22.376 C36.728,20.936 38.72,19.136 40.232,16.976 C41.624,19.232 43.304,21.008 45.296,22.28 L46.088,21.152 C44.096,19.928 42.392,18.152 40.976,15.8 C42.584,13.016 43.448,9.656 43.568,5.768 L45.728,5.768 L45.728,4.472 L38.72,4.472 C39.008,3.248 39.272,1.928 39.464,0.536 L38.192,0.296 C37.568,4.856 36.416,8.456 34.736,11.144 L35.552,12.152 C36.104,11.336 36.608,10.4 37.088,9.392 C37.736,11.768 38.552,13.88 39.536,15.752 L39.536,15.752 Z M48.8,2.576 L48.8,3.824 L57.848,3.824 C57.08,5.456 56,6.728 54.632,7.64 L54.872,8.696 C56.432,8.6 57.92,8.48 59.312,8.336 C57.68,10.208 56.264,11.504 55.04,12.224 L54.536,12.368 L54.8,13.52 C56,13.424 57.176,13.304 58.352,13.184 L58.352,16.184 L48.416,16.184 L48.416,17.408 L58.352,17.408 L58.352,22.448 L59.648,22.448 L59.648,17.408 L69.632,17.408 L69.632,16.184 L59.648,16.184 L59.648,13.088 L59.096,13.088 C60.2,12.944 61.328,12.752 62.432,12.56 C62.648,13.112 62.864,13.712 63.104,14.336 L64.256,13.808 C63.68,12.2 62.984,10.688 62.192,9.272 L61.064,9.632 C61.376,10.208 61.688,10.856 62,11.552 C60.32,11.84 58.568,12.104 56.744,12.296 C58.568,10.856 60.704,8.552 63.152,5.432 L62.024,4.928 C61.4,5.744 60.8,6.512 60.224,7.232 C58.976,7.352 57.728,7.448 56.48,7.544 C57.512,6.632 58.424,5.408 59.192,3.824 L69.2,3.824 L69.2,2.576 L59.72,2.576 C59.36,1.688 58.976,0.872 58.568,0.152 L57.248,0.392 C57.68,1.04 58.064,1.76 58.448,2.576 L48.8,2.576 Z M52.856,9.704 C51.728,11.072 50.456,12.272 49.04,13.304 L49.904,14.264 C51.272,13.256 52.592,11.984 53.84,10.448 L52.856,9.704 Z M50.144,4.928 L49.256,5.768 C50.672,6.824 51.8,7.832 52.664,8.792 L53.576,7.88 C52.64,6.872 51.488,5.888 50.144,4.928 L50.144,4.928 Z M65.216,9.728 L64.352,10.544 C65.888,11.84 67.112,13.088 68.024,14.264 L68.984,13.328 C67.976,12.128 66.704,10.928 65.216,9.728 L65.216,9.728 Z M67.4,4.832 C66.44,5.984 65.384,6.992 64.208,7.832 L65.048,8.768 C66.224,7.928 67.352,6.872 68.432,5.6 L67.4,4.832 Z" id="高效率"></path>
                </g>
            </g>
        </g>
    </g>
</svg>