<?xml version="1.0" encoding="UTF-8" standalone="no"?>
<svg width="72px" height="24px" viewBox="0 0 72 24" version="1.1" xmlns="http://www.w3.org/2000/svg" xmlns:xlink="http://www.w3.org/1999/xlink">
    <!-- Generator: Sketch 3.7.2 (28276) - http://www.bohemiancoding.com/sketch -->
    <title>em-home-easy-tex</title>
    <desc>Created with Sketch.</desc>
    <defs></defs>
    <g id="新首页" stroke="none" stroke-width="1" fill="none" fill-rule="evenodd">
        <g transform="translate(-1133.000000, -813.000000)" id="whyChooseUS-Copy" fill="#222222">
            <g transform="translate(0.000000, 620.000000)">
                <g id="Group-15" transform="translate(1133.000000, 193.000000)">
                    <path d="M12.384,11.576 L12.384,18.8 L21.432,18.8 L21.432,11.576 L12.384,11.576 Z M20.232,17.648 L13.584,17.648 L13.584,12.752 L20.232,12.752 L20.232,17.648 Z M2.112,3.8 L2.112,5 L5.88,5 L5.88,8.912 L1.776,8.912 L1.776,10.112 L6.336,10.112 L6.336,18.848 C5.424,18.128 4.608,17.048 3.84,15.608 C3.984,14.456 4.08,13.232 4.128,11.984 L3,11.84 C2.88,15.392 2.256,18.584 1.128,21.416 L2.088,22.28 C2.712,20.768 3.216,19.112 3.576,17.336 C4.584,19.016 5.808,20.192 7.2,20.84 C8.64,21.512 12.288,21.848 18.144,21.848 L22.632,21.848 L22.872,20.528 C21.768,20.576 20.088,20.6 17.856,20.6 C12.768,20.6 9.504,20.336 8.04,19.832 C7.896,19.784 7.728,19.712 7.584,19.64 L7.584,15.08 L10.824,15.08 L10.824,13.88 L7.584,13.88 L7.584,10.112 L10.848,10.112 L10.848,8.912 L7.104,8.912 L7.104,5 L10.824,5 L10.824,3.8 L7.104,3.8 L7.104,0.416 L5.88,0.416 L5.88,3.8 L2.112,3.8 Z M15.288,2.984 C15.024,4.472 14.616,5.672 14.088,6.584 C13.488,7.544 12.624,8.408 11.472,9.2 L12.288,10.256 C13.584,9.344 14.568,8.336 15.216,7.184 C15.768,6.152 16.2,4.76 16.512,2.984 L20.544,2.984 C20.496,5.648 20.352,7.304 20.136,7.928 C19.92,8.552 19.368,8.888 18.504,8.912 C18.048,8.912 17.496,8.864 16.848,8.816 L17.184,9.992 C17.808,10.016 18.336,10.04 18.768,10.04 C19.872,10.04 20.64,9.656 21.096,8.888 C21.528,8.096 21.768,5.72 21.792,1.736 L11.808,1.736 L11.808,2.984 L15.288,2.984 Z M35.064,0.392 L35.064,6.536 L36.336,6.536 L36.336,0.392 L35.064,0.392 Z M29.52,10.712 L29.52,22.328 L30.792,22.328 L30.792,21.08 L42.552,21.08 L42.552,22.28 L43.824,22.28 L43.824,9.656 L33.504,9.656 C37.464,8.456 40.728,6.896 43.32,4.976 C44.28,5.792 45.144,6.584 45.888,7.4 L46.776,6.488 C45.048,4.712 42.912,2.912 40.344,1.112 L39.456,1.976 C40.512,2.72 41.496,3.464 42.408,4.208 C38.544,6.992 32.832,9.032 25.272,10.304 L25.776,11.456 C27.072,11.216 28.32,10.976 29.52,10.712 L29.52,10.712 Z M30.792,19.88 L30.792,17.504 L42.552,17.504 L42.552,19.88 L30.792,19.88 Z M30.792,16.424 L30.792,14.168 L42.552,14.168 L42.552,16.424 L30.792,16.424 Z M30.792,13.064 L30.792,10.808 L42.552,10.808 L42.552,13.064 L30.792,13.064 Z M31.224,1.76 C29.808,3.512 28.056,5.048 25.992,6.344 L26.76,7.328 C28.896,5.984 30.696,4.4 32.16,2.576 L31.224,1.76 Z M63.024,21.56 C63.984,21.56 64.656,21.248 65.088,20.648 C65.592,19.88 65.928,17.912 66.072,14.696 L64.848,14.288 C64.728,17.216 64.488,18.968 64.152,19.568 C63.888,20.024 63.432,20.264 62.76,20.264 L58.008,20.264 C57.096,20.264 56.664,19.88 56.664,19.112 L56.664,5.48 L55.344,5.48 L55.344,19.4 C55.344,20.84 56.088,21.56 57.624,21.56 L63.024,21.56 Z M51.864,8.144 C51.264,11.816 50.328,15.128 49.056,18.056 L50.184,18.776 C51.456,15.848 52.44,12.392 53.136,8.408 L51.864,8.144 Z M66.816,7.328 L65.544,7.76 C67.128,10.616 68.592,13.904 69.888,17.624 L71.088,17.096 C69.888,13.64 68.448,10.376 66.816,7.328 L66.816,7.328 Z M58.08,0.632 L57,1.304 C59.232,3.512 60.984,5.528 62.256,7.352 L63.36,6.608 C62.136,4.904 60.384,2.912 58.08,0.632 L58.08,0.632 Z" id="超省心"></path>
                </g>
            </g>
        </g>
    </g>
</svg>