<?xml version="1.0" encoding="UTF-8" standalone="no"?>
<svg width="72px" height="24px" viewBox="0 0 72 24" version="1.1" xmlns="http://www.w3.org/2000/svg" xmlns:xlink="http://www.w3.org/1999/xlink">
    <!-- Generator: Sketch 3.7.2 (28276) - http://www.bohemiancoding.com/sketch -->
    <title>em-home-safe-tex</title>
    <desc>Created with Sketch.</desc>
    <defs></defs>
    <g id="新首页" stroke="none" stroke-width="1" fill="none" fill-rule="evenodd">
        <g transform="translate(-831.000000, -817.000000)" id="whyChooseUS-Copy" fill="#222222">
            <g transform="translate(0.000000, 620.000000)">
                <g id="Group-11" transform="translate(831.000000, 197.000000)">
                    <path d="M3.312,1.904 L3.312,3.2 L10.344,3.2 L10.344,4.928 C10.32,6.512 10.2,8 10.008,9.392 L1.656,9.392 L1.656,10.664 L9.792,10.664 C9.456,12.32 9,13.784 8.376,15.08 C6.984,17.624 4.656,19.616 1.344,21.08 L2.112,22.232 C5.448,20.744 7.848,18.704 9.312,16.112 C10.128,14.576 10.752,12.776 11.136,10.664 L13.416,10.664 L13.416,19.832 C13.416,21.248 14.112,21.968 15.504,21.968 L19.464,21.968 C20.424,21.968 21.144,21.752 21.576,21.344 C22.104,20.816 22.464,19.448 22.632,17.24 L21.408,16.832 C21.288,18.728 21.048,19.88 20.664,20.264 C20.376,20.576 19.896,20.744 19.2,20.744 L15.888,20.744 C15.096,20.744 14.712,20.336 14.712,19.568 L14.712,10.664 L22.32,10.664 L22.32,9.392 L11.328,9.392 C11.52,8 11.64,6.512 11.664,4.928 L11.664,3.2 L20.304,3.2 L20.304,1.904 L3.312,1.904 Z M31.848,5.984 L30.768,6.656 C32.4,8.672 33.888,10.616 35.232,12.488 C33.744,14.768 31.896,16.76 29.688,18.44 L30.576,19.52 C32.736,17.888 34.56,15.944 36.072,13.688 C37.368,15.56 38.52,17.36 39.528,19.136 L40.68,18.32 C39.624,16.52 38.352,14.552 36.84,12.44 C38.064,10.328 39.048,7.952 39.792,5.312 L38.496,5.072 C37.896,7.304 37.056,9.368 35.976,11.264 C34.728,9.584 33.36,7.832 31.848,5.984 L31.848,5.984 Z M28.008,1.496 L28.008,10.664 C27.912,14.984 27.024,18.584 25.296,21.44 L26.376,22.304 C28.272,19.184 29.256,15.296 29.304,10.664 L29.304,2.768 L41.88,2.768 L41.88,10.976 C41.88,15.44 42.12,18.392 42.624,19.856 C43.104,21.344 43.872,22.112 44.928,22.112 C45.336,22.112 45.696,21.824 46.032,21.272 C46.392,20.552 46.704,19.328 46.944,17.552 L45.792,17 C45.528,19.4 45.192,20.6 44.808,20.624 C44.352,20.624 43.968,20.048 43.68,18.92 C43.344,17.744 43.2,15.104 43.2,10.976 L43.2,1.496 L28.008,1.496 Z M50.232,1.616 L50.232,22.352 L51.528,22.352 L51.528,2.816 L55.68,2.816 C55.056,4.88 54.216,7.208 53.112,9.8 C54.744,11.864 55.56,13.736 55.56,15.416 C55.56,15.944 55.392,16.304 55.08,16.52 C54.744,16.76 54.072,16.904 53.112,16.952 C52.92,16.952 52.704,16.928 52.416,16.88 L52.824,18.176 C54.408,18.176 55.488,17.912 56.112,17.408 C56.592,17 56.832,16.328 56.856,15.416 C56.736,13.616 55.92,11.672 54.432,9.608 C55.416,7.208 56.256,4.88 56.976,2.624 L56.976,1.616 L50.232,1.616 Z M60.048,7.544 L60.048,8.744 L67.416,8.744 L67.416,7.544 L60.048,7.544 Z M56.592,20.168 L56.592,21.416 L70.704,21.416 L70.704,20.168 L66.264,20.168 C67.512,17.432 68.568,14.312 69.432,10.784 L68.16,10.448 C67.248,14.312 66.192,17.552 64.968,20.168 L56.592,20.168 Z M59.112,11.384 L58.008,11.768 C58.944,13.928 59.712,16.208 60.312,18.584 L61.44,18.296 C60.768,15.704 60,13.4 59.112,11.384 L59.112,11.384 Z M62.928,10.4 L61.824,10.784 C62.592,12.896 63.216,15.104 63.72,17.408 L64.848,17.12 C64.272,14.6 63.648,12.368 62.928,10.4 L62.928,10.4 Z M63.072,0.584 C61.488,3.968 59.208,6.728 56.28,8.864 L56.952,9.896 C59.64,8.024 61.896,5.36 63.672,1.88 C65.16,5.072 67.44,7.76 70.488,9.92 L71.208,8.84 C67.944,6.464 65.616,3.704 64.272,0.584 L63.072,0.584 Z" id="无风险"></path>
                </g>
            </g>
        </g>
    </g>
</svg>