<?xml version="1.0" encoding="UTF-8"?>
<svg width="70px" height="70px" viewBox="0 0 70 70" version="1.1" xmlns="http://www.w3.org/2000/svg" xmlns:xlink="http://www.w3.org/1999/xlink">
    <!-- Generator: Sketch 41.2 (35397) - http://www.bohemiancoding.com/sketch -->
    <title>ic-home-pho</title>
    <desc>Created with Sketch.</desc>
    <defs></defs>
    <g id="newHome" stroke="none" stroke-width="1" fill="none" fill-rule="evenodd">
        <g id="Muse3.0-新首页" transform="translate(-981.000000, -1330.000000)" stroke-width="2">
            <g id="Group-12">
                <g id="item" transform="translate(0.000000, 1100.000000)">
                    <g id="25-film-camera" transform="translate(981.000000, 230.000000)">
                        <g id="_x32_5_x5F_film_x5F_camera" transform="translate(6.000000, 10.000000)">
                            <g id="Group">
                                <rect id="Rectangle-path" stroke="#363F40" x="22" y="0" width="8" height="2"></rect>
                                <polyline id="Shape" stroke="#363F40" points="0 43 0 18 17 18"></polyline>
                                <polyline id="Shape" stroke="#363F40" points="49 18 58 18 58 43"></polyline>
                                <polyline id="Shape" stroke="#363F40" points="0 15 0 10 18 10 18 2 56 2"></polyline>
                                <rect id="Rectangle-path" stroke="#363F40" x="0" y="2" width="14" height="4"></rect>
                                <rect id="Rectangle-path" stroke="#363F40" x="52" y="2" width="6" height="12"></rect>
                                <path d="M53,6 L45,6" id="Shape" stroke="#363F40"></path>
                                <path d="M23,6 L21,6" id="Shape" stroke="#363F40"></path>
                                <path d="M7,15 L7,13" id="Shape" stroke="#363F40"></path>
                                <circle id="Oval" stroke="#DDDDDD" cx="34" cy="26" r="16"></circle>
                                <circle id="Oval" stroke="#363F40" cx="34" cy="26" r="12"></circle>
                                <circle id="Oval" stroke="#DDDDDD" cx="34" cy="26" r="7"></circle>
                                <path d="M31,26 C31,24.34325 32.34325,23 34,23" id="Shape" stroke="#363F40"></path>
                                <rect id="Rectangle-path" stroke="#363F40" x="0" y="46" width="58" height="4"></rect>
                                <path d="M0,24 L3,24" id="Shape" stroke="#363F40"></path>
                                <path d="M0,28 L3,28" id="Shape" stroke="#363F40"></path>
                                <path d="M55,24 L58,24" id="Shape" stroke="#363F40"></path>
                                <path d="M55,28 L58,28" id="Shape" stroke="#363F40"></path>
                                <path d="M12,21 L12,43" id="Shape" stroke="#363F40"></path>
                            </g>
                        </g>
                    </g>
                </g>
            </g>
        </g>
    </g>
</svg>