<?xml version="1.0" encoding="UTF-8"?>
<svg width="70px" height="70px" viewBox="0 0 70 70" version="1.1" xmlns="http://www.w3.org/2000/svg" xmlns:xlink="http://www.w3.org/1999/xlink">
    <!-- Generator: Sketch 41.2 (35397) - http://www.bohemiancoding.com/sketch -->
    <title>ic-home-web-ev</title>
    <desc>Created with Sketch.</desc>
    <defs></defs>
    <g id="newHome" stroke="none" stroke-width="1" fill="none" fill-rule="evenodd">
        <g id="Muse3.0-新首页" transform="translate(-981.000000, -1498.000000)" stroke-width="2">
            <g id="Group-12">
                <g id="item" transform="translate(0.000000, 1100.000000)">
                    <g id="13-merchandise-clothes" transform="translate(981.000000, 398.000000)">
                        <g id="13-online-shopping" transform="translate(6.000000, 6.000000)">
                            <g id="_x31_3_x5F_online_x5F_shopping">
                                <g id="Group">
                                    <polyline id="Shape" stroke="#363F40" points="23.3870968 55 0 55 0 0 58 0 58 36.9827586"></polyline>
                                    <path d="M0,8 L58,8" id="Shape" stroke="#363F40"></path>
                                    <path d="M2,4 L4,4" id="Shape" stroke="#CCCCCC"></path>
                                    <path d="M6,4 L8,4" id="Shape" stroke="#CCCCCC"></path>
                                    <path d="M10,4 L12,4" id="Shape" stroke="#CCCCCC"></path>
                                    <path d="M15,0 L15,8" id="Shape" stroke="#363F40"></path>
                                    <path d="M18,4 L55,4" id="Shape" stroke="#CCCCCC"></path>
                                    <polyline id="Shape" stroke="#CCCCCC" points="23.4444444 51 4 51 4 12 54 12 54 37.0714286"></polyline>
                                    <path d="M32,52 L33,52 C34.656,52 36,53.344 36,55 C36,56.656 34.656,58 33,58 L30,58 L30,46 L32,46 C33.656,46 35,47.344 35,49 C35,50.656 33.656,52 32,52 L30,52" id="Shape" stroke="#363F40"></path>
                                    <path d="M46,45 L46,55 C46,56.656 44.656,58 43,58 C41.344,58 40,56.656 40,55 L40,45" id="Shape" stroke="#363F40"></path>
                                    <polyline id="Shape" stroke="#363F40" points="56 45 56 50 53 53 50 50 50 45"></polyline>
                                    <path d="M53,52.5 L53,57.5" id="Line" stroke="#363F40" stroke-linecap="square"></path>
                                    <path d="M60,61 C60,61.553 59.553,62 59,62 L27,62 C26.447,62 26,61.553 26,61 L26,43 C26,42.447 26.447,42 27,42 L59,42 C59.553,42 60,42.447 60,43 L60,61 Z" id="Shape" stroke="#363F40"></path>
                                    <path d="M23,45 L11,45 L11,30 C11,28.896 10.104,28 9,28 L8,28 L8,20 L15,20 C15,22.209 16.791,24 19,24 C21.209,24 23,22.209 23,20 L30,20 L30,28 L29,28 C27.896,28 27,28.896 27,30 L27,39" id="Shape" stroke="#363F40"></path>
                                    <path d="M35,20 L45,20" id="Shape" stroke="#363F40"></path>
                                    <path d="M41,24 L51,24" id="Shape" stroke="#363F40"></path>
                                    <path d="M35,34 L43,34" id="Shape" stroke="#363F40"></path>
                                    <path d="M45,34 L51,34" id="Shape" stroke="#363F40"></path>
                                    <path d="M35,30 L37,30" id="Shape" stroke="#363F40"></path>
                                    <path d="M39,30 L41,30" id="Shape" stroke="#363F40"></path>
                                    <path d="M43,30 L45,30" id="Shape" stroke="#363F40"></path>
                                    <path d="M23,41 L11,41" id="Shape" stroke="#363F40"></path>
                                    <path d="M35,24 L39,24" id="Shape" stroke="#363F40"></path>
                                    <path d="M51,20 L47,20" id="Shape" stroke="#363F40"></path>
                                    <circle id="Oval" stroke="#363F40" cx="19" cy="33" r="3"></circle>
                                </g>
                            </g>
                        </g>
                    </g>
                </g>
            </g>
        </g>
    </g>
</svg>