<?xml version="1.0" encoding="UTF-8"?>
<svg width="70px" height="70px" viewBox="0 0 70 70" version="1.1" xmlns="http://www.w3.org/2000/svg" xmlns:xlink="http://www.w3.org/1999/xlink">
    <!-- Generator: Sketch 41.2 (35397) - http://www.bohemiancoding.com/sketch -->
    <title>ic-home-ind</title>
    <desc>Created with Sketch.</desc>
    <defs></defs>
    <g id="newHome" stroke="none" stroke-width="1" fill="none" fill-rule="evenodd">
        <g id="Muse3.0-新首页" transform="translate(-783.000000, -1498.000000)" stroke-width="2">
            <g id="Group-12">
                <g id="item" transform="translate(0.000000, 1100.000000)">
                    <g id="21-lights-equipment" transform="translate(783.000000, 398.000000)">
                        <g id="_x32_1_x5F_lights_x5F_equipment" transform="translate(5.000000, 3.000000)">
                            <g id="Group">
                                <path d="M35,4 L53,4" id="Shape" stroke="#CCCCCC"></path>
                                <path d="M35,8 L53,8" id="Shape" stroke="#CCCCCC"></path>
                                <path d="M34,12 L54,12" id="Shape" stroke="#CCCCCC"></path>
                                <g id="Shape">
                                    <path d="M56,62 L64,62" stroke="#CCCCCC"></path>
                                    <path d="M0,62 L32,62" stroke="#CCCCCC"></path>
                                    <polyline stroke="#363F40" points="35 63 35 60 53 60 53 63"></polyline>
                                    <polyline stroke="#363F40" points="42 22 42 60 46 60 46 22"></polyline>
                                    <polygon stroke="#363F40" points="32 22 36 0 52 0 56 22"></polygon>
                                    <path d="M36,22 L36,37" stroke="#363F40"></path>
                                    <path d="M29,57 C29,57.553 28.553,58 28,58 L22,58 C21.447,58 21,57.553 21,57 L21,39 C21,38.447 21.447,38 22,38 L28,38 C28.553,38 29,38.447 29,39 L29,57 L29,57 Z" stroke="#363F40"></path>
                                    <path d="M22,58 L0,58" stroke="#363F40"></path>
                                    <path d="M19,58 L19,62" stroke="#363F40"></path>
                                    <path d="M15,58 L15,62" stroke="#363F40"></path>
                                    <path d="M21,48 L0,48" stroke="#000000"></path>
                                    <path d="M16,30 L14,30" stroke="#CCCCCC"></path>
                                    <path d="M16,36 L14,36" stroke="#CCCCCC"></path>
                                    <path d="M6,30 L4,30" stroke="#CCCCCC"></path>
                                    <path d="M6,36 L4,36" stroke="#CCCCCC"></path>
                                    <path d="M16,42 L14,42" stroke="#CCCCCC"></path>
                                    <path d="M6,42 L4,42" stroke="#CCCCCC"></path>
                                    <path d="M25,35 L25,27 C25,25.344 23.656,24 22,24 L0,24" stroke="#363F40"></path>
                                </g>
                            </g>
                        </g>
                    </g>
                </g>
            </g>
        </g>
    </g>
</svg>