<?xml version="1.0" encoding="UTF-8"?>
<svg width="70px" height="70px" viewBox="0 0 70 70" version="1.1" xmlns="http://www.w3.org/2000/svg" xmlns:xlink="http://www.w3.org/1999/xlink">
    <!-- Generator: Sketch 41.2 (35397) - http://www.bohemiancoding.com/sketch -->
    <title>ic-home-h5</title>
    <desc>Created with Sketch.</desc>
    <defs></defs>
    <g id="newHome" stroke="none" stroke-width="1" fill="none" fill-rule="evenodd">
        <g id="Muse3.0-新首页" transform="translate(-784.000000, -1330.000000)" stroke-width="2">
            <g id="Group-12">
                <g id="item" transform="translate(0.000000, 1100.000000)">
                    <g id="20-smart-phone" transform="translate(784.000000, 230.000000)">
                        <g id="_x32_0_x5F_smart_x5F_phone" transform="translate(17.000000, 4.000000)">
                            <g id="Group">
                                <path d="M36,57 L36,5 C36,2.238 33.762,0 31,0 L5,0 C2.238,0 0,2.238 0,5 L0,57 C0,59.762 2.238,62 5,62 L31,62 C33.762,62 36,59.762 36,57 L36,57 Z" id="Shape" stroke="#3C4546"></path>
                                <rect id="Rectangle-path" stroke="#3C4546" x="4" y="10" width="28" height="44"></rect>
                                <path d="M16,58 L20,58" id="Shape" stroke="#DDDDDD"></path>
                                <path d="M13,5 L11,5" id="Shape" stroke="#DDDDDD"></path>
                                <path d="M15,5 L25,5" id="Shape" stroke="#DDDDDD"></path>
                                <path d="M9,48 L11,48" id="Shape" stroke="#DDDDDD"></path>
                                <path d="M13,48 L15,48" id="Shape" stroke="#DDDDDD"></path>
                                <path d="M17,48 L19,48" id="Shape" stroke="#DDDDDD"></path>
                                <path d="M21,48 L23,48" id="Shape" stroke="#DDDDDD"></path>
                                <path d="M25,48 L27,48" id="Shape" stroke="#DDDDDD"></path>
                                <path d="M9,16 L11,16" id="Shape" stroke="#DDDDDD"></path>
                                <path d="M13,16 L15,16" id="Shape" stroke="#DDDDDD"></path>
                                <path d="M17,16 L19,16" id="Shape" stroke="#DDDDDD"></path>
                                <path d="M21,16 L23,16" id="Shape" stroke="#DDDDDD"></path>
                                <path d="M25,16 L27,16" id="Shape" stroke="#DDDDDD"></path>
                                <path d="M9,21 L11,21" id="Shape" stroke="#DDDDDD"></path>
                                <path d="M13,21 L15,21" id="Shape" stroke="#DDDDDD"></path>
                                <path d="M17,21 L19,21" id="Shape" stroke="#DDDDDD"></path>
                                <path d="M21,21 L23,21" id="Shape" stroke="#DDDDDD"></path>
                                <path d="M25,21 L27,21" id="Shape" stroke="#DDDDDD"></path>
                                <path d="M9,26 L11,26" id="Shape" stroke="#DDDDDD"></path>
                                <path d="M13,26 L15,26" id="Shape" stroke="#DDDDDD"></path>
                                <path d="M17,26 L19,26" id="Shape" stroke="#DDDDDD"></path>
                                <path d="M21,26 L23,26" id="Shape" stroke="#DDDDDD"></path>
                                <path d="M25,26 L27,26" id="Shape" stroke="#DDDDDD"></path>
                                <path d="M9,31 L11,31" id="Shape" stroke="#DDDDDD"></path>
                                <path d="M13,31 L15,31" id="Shape" stroke="#DDDDDD"></path>
                                <path d="M17,31 L19,31" id="Shape" stroke="#DDDDDD"></path>
                                <path d="M21,31 L23,31" id="Shape" stroke="#DDDDDD"></path>
                                <path d="M25,31 L27,31" id="Shape" stroke="#DDDDDD"></path>
                                <path d="M9,36 L11,36" id="Shape" stroke="#DDDDDD"></path>
                                <path d="M13,36 L15,36" id="Shape" stroke="#DDDDDD"></path>
                                <path d="M17,36 L19,36" id="Shape" stroke="#DDDDDD"></path>
                            </g>
                        </g>
                    </g>
                </g>
            </g>
        </g>
    </g>
</svg>